<?xml version="1.0" standalone="no"?>
<!DOCTYPE svg PUBLIC "-//W3C//DTD SVG 1.1//EN" "http://www.w3.org/Graphics/SVG/1.1/DTD/svg11.dtd" >
<svg>
<metadata>
Created by FontForge 20090914 at Tue Mar  3 15:45:49 2020
 By www-data
Copyright 2011 The Quicksand Project Authors (https://github.com/andrew-paglinawan/QuicksandFamily), with Reserved Font Name &#226;&#128;&#156;Quicksand&#226;&#128;&#157;.
</metadata>
<defs>
<font id="Quicksand-Medium" horiz-adv-x="0" >
  <font-face 
    font-family="Quicksand Medium"
    font-weight="500"
    font-stretch="normal"
    units-per-em="1000"
    panose-1="0 0 6 0 0 0 0 0 0 0"
    ascent="800"
    descent="-200"
    x-height="521.999"
    cap-height="699.999"
    bbox="-436.001 -267.002 1324 1163"
    underline-thickness="50"
    underline-position="-50"
    unicode-range="U+000D-U+FB02"
  />
<missing-glyph horiz-adv-x="584" 
d="M75 700h434c23.333 0 35 -11.667 35 -35v-630c0 -23.333 -11.667 -35 -35 -35h-434c-23.333 0 -35 11.667 -35 35v630c0 23.333 11.667 35 35 35zM91 668c-0.666992 -1.33301 -0.332031 -2.66699 1.00098 -4l416 -599c1.33301 -2 2.66602 -2.83301 3.99902 -2.5
s2 1.83301 2 4.5v598c0 3.33301 -1.66699 5 -5 5h-414c-2 0 -3.33301 -0.666992 -4 -2zM75.002 29.999l412.998 0.000976562c2 0 3.33301 0.666992 4 2s0.333984 2.66602 -0.999023 3.99902l-415 599c-1.33301 2 -2.66602 2.83301 -3.99902 2.5s-2 -1.83301 -2 -4.5v-598
c0 -3.33301 1.66699 -5 5 -5z" />
    <glyph glyph-name="fi" unicode="fi" horiz-adv-x="617" 
d="M246.5 634c-10.333 -13.333 -15.498 -29.668 -15.498 -49.001v-70h99c13.333 0 24.166 -4.16699 32.499 -12.5s12.5 -18.833 12.5 -31.5s-4.16699 -23 -12.5 -31s-19.166 -12 -32.499 -12h-99v-380c0 -13.333 -4.5 -24.666 -13.5 -33.999s-20.5 -14 -34.5 -14
c-13.333 0 -24.5 4.66699 -33.5 14s-13.5 20.666 -13.5 33.999v380h-62c-12.667 0 -23.334 4 -32.001 12s-13 18.333 -13 31s4.33301 23.167 13 31.5s19.334 12.5 32.001 12.5h62v70c0 46.667 15 83.834 45 111.501s72.333 41.5 127 41.5c22.667 0 42.667 -4.16699 60 -12.5
s26 -20.833 26 -37.5c0 -12.667 -3.83301 -23.167 -11.5 -31.5s-16.834 -12.5 -27.501 -12.5c-2.66699 0 -10 1.33301 -22 4c-14.667 4 -27.334 6 -38.001 6c-22 0 -38.167 -6.66699 -48.5 -20zM537.502 13.998c-9 -9.33301 -20.5 -14 -34.5 -14
c-13.333 0 -24.5 4.66699 -33.5 14s-13.5 20.666 -13.5 33.999v433c0 13.333 4.5 24.666 13.5 33.999s20.167 14 33.5 14c14 0 25.5 -4.66699 34.5 -14s13.5 -20.666 13.5 -33.999v-433c0 -13.333 -4.5 -24.666 -13.5 -33.999zM461.502 605.498
c-8.33301 7 -12.5 18.167 -12.5 33.5v16c0 16 4.5 27.333 13.5 34s22.833 10 41.5 10s32.167 -3.5 40.5 -10.5s12.5 -18.167 12.5 -33.5v-16c0 -16 -4.33301 -27.333 -13 -34s-22.334 -10 -41.001 -10c-19.333 0 -33.166 3.5 -41.499 10.5z" />
    <glyph glyph-name="fl" unicode="fl" horiz-adv-x="644" 
d="M246.5 634c-10.333 -13.333 -15.498 -29.668 -15.498 -49.001v-70h99c13.333 0 24.166 -4.16699 32.499 -12.5s12.5 -18.833 12.5 -31.5s-4.16699 -23 -12.5 -31s-19.166 -12 -32.499 -12h-99v-380c0 -13.333 -4.5 -24.666 -13.5 -33.999s-20.5 -14 -34.5 -14
c-13.333 0 -24.5 4.66699 -33.5 14s-13.5 20.666 -13.5 33.999v380h-62c-12.667 0 -23.334 4 -32.001 12s-13 18.333 -13 31s4.33301 23.167 13 31.5s19.334 12.5 32.001 12.5h62v70c0 46.667 15 83.834 45 111.501s72.333 41.5 127 41.5c22.667 0 42.667 -4.16699 60 -12.5
s26 -20.833 26 -37.5c0 -12.667 -3.83301 -23.167 -11.5 -31.5s-16.834 -12.5 -27.501 -12.5c-2.66699 0 -10 1.33301 -22 4c-14.667 4 -27.334 6 -38.001 6c-22 0 -38.167 -6.66699 -48.5 -20zM550.002 13.998c-9.33301 -9.33301 -20.666 -14 -33.999 -14
s-24.5 4.66699 -33.5 14s-13.5 20.666 -13.5 33.999v644c0 13.333 4.66699 24.666 14 33.999s20.666 14 33.999 14s24.5 -4.66699 33.5 -14s13.5 -20.666 13.5 -33.999v-644c0 -13.333 -4.66699 -24.666 -14 -33.999z" />
    <glyph glyph-name="f_f" unicode="ff" horiz-adv-x="781" 
d="M246.5 634c-10.333 -13.333 -15.498 -29.668 -15.498 -49.001v-70h99c13.333 0 24.166 -4.16699 32.499 -12.5s12.5 -18.833 12.5 -31.5s-4.16699 -23 -12.5 -31s-19.166 -12 -32.499 -12h-99v-380c0 -13.333 -4.5 -24.666 -13.5 -33.999s-20.5 -14 -34.5 -14
c-13.333 0 -24.5 4.66699 -33.5 14s-13.5 20.666 -13.5 33.999v380h-62c-12.667 0 -23.334 4 -32.001 12s-13 18.333 -13 31s4.33301 23.167 13 31.5s19.334 12.5 32.001 12.5h62v70c0 46.667 15 83.834 45 111.501s72.333 41.5 127 41.5c22.667 0 42.667 -4.16699 60 -12.5
s26 -20.833 26 -37.5c0 -12.667 -3.83301 -23.167 -11.5 -31.5s-16.834 -12.5 -27.501 -12.5c-2.66699 0 -10 1.33301 -22 4c-14.667 4 -27.334 6 -38.001 6c-22 0 -38.167 -6.66699 -48.5 -20zM636.502 633.998c-10.333 -13.333 -15.498 -29.668 -15.498 -49.001v-70h99
c13.333 0 24.166 -4.16699 32.499 -12.5s12.5 -18.833 12.5 -31.5s-4.16699 -23 -12.5 -31s-19.166 -12 -32.499 -12h-99v-380c0 -13.333 -4.5 -24.666 -13.5 -33.999s-20.5 -14 -34.5 -14c-13.333 0 -24.5 4.66699 -33.5 14s-13.5 20.666 -13.5 33.999v380h-62
c-12.667 0 -23.334 4 -32.001 12s-13 18.333 -13 31s4.33301 23.167 13 31.5s19.334 12.5 32.001 12.5h62v70c0 46.667 15 83.834 45 111.501s72.333 41.5 127 41.5c22.667 0 42.667 -4.16699 60 -12.5s26 -20.833 26 -37.5c0 -12.667 -3.83301 -23.167 -11.5 -31.5
s-16.834 -12.5 -27.501 -12.5c-2.66699 0 -10 1.33301 -22 4c-14.667 4 -27.334 6 -38.001 6c-22 0 -38.167 -6.66699 -48.5 -20z" />
    <glyph glyph-name="f_f_i" unicode="ffi" horiz-adv-x="1008" 
d="M246.5 634c-10.333 -13.333 -15.498 -29.668 -15.498 -49.001v-70h99c13.333 0 24.166 -4.16699 32.499 -12.5s12.5 -18.833 12.5 -31.5s-4.16699 -23 -12.5 -31s-19.166 -12 -32.499 -12h-99v-380c0 -13.333 -4.5 -24.666 -13.5 -33.999s-20.5 -14 -34.5 -14
c-13.333 0 -24.5 4.66699 -33.5 14s-13.5 20.666 -13.5 33.999v380h-62c-12.667 0 -23.334 4 -32.001 12s-13 18.333 -13 31s4.33301 23.167 13 31.5s19.334 12.5 32.001 12.5h62v70c0 46.667 15 83.834 45 111.501s72.333 41.5 127 41.5c22.667 0 42.667 -4.16699 60 -12.5
s26 -20.833 26 -37.5c0 -12.667 -3.83301 -23.167 -11.5 -31.5s-16.834 -12.5 -27.501 -12.5c-2.66699 0 -10 1.33301 -22 4c-14.667 4 -27.334 6 -38.001 6c-22 0 -38.167 -6.66699 -48.5 -20zM636.502 633.998c-10.333 -13.333 -15.498 -29.668 -15.498 -49.001v-70h99
c13.333 0 24.166 -4.16699 32.499 -12.5s12.5 -18.833 12.5 -31.5s-4.16699 -23 -12.5 -31s-19.166 -12 -32.499 -12h-99v-380c0 -13.333 -4.5 -24.666 -13.5 -33.999s-20.5 -14 -34.5 -14c-13.333 0 -24.5 4.66699 -33.5 14s-13.5 20.666 -13.5 33.999v380h-62
c-12.667 0 -23.334 4 -32.001 12s-13 18.333 -13 31s4.33301 23.167 13 31.5s19.334 12.5 32.001 12.5h62v70c0 46.667 15 83.834 45 111.501s72.333 41.5 127 41.5c22.667 0 42.667 -4.16699 60 -12.5s26 -20.833 26 -37.5c0 -12.667 -3.83301 -23.167 -11.5 -31.5
s-16.834 -12.5 -27.501 -12.5c-2.66699 0 -10 1.33301 -22 4c-14.667 4 -27.334 6 -38.001 6c-22 0 -38.167 -6.66699 -48.5 -20zM928.504 13.9961c-9 -9.33301 -20.5 -14 -34.5 -14c-13.333 0 -24.5 4.66699 -33.5 14s-13.5 20.666 -13.5 33.999v433
c0 13.333 4.5 24.666 13.5 33.999s20.167 14 33.5 14c14 0 25.5 -4.66699 34.5 -14s13.5 -20.666 13.5 -33.999v-433c0 -13.333 -4.5 -24.666 -13.5 -33.999zM852.504 605.496c-8.33301 7 -12.5 18.167 -12.5 33.5v16c0 16 4.5 27.333 13.5 34s22.833 10 41.5 10
s32.167 -3.5 40.5 -10.5s12.5 -18.167 12.5 -33.5v-16c0 -16 -4.33301 -27.333 -13 -34s-22.334 -10 -41.001 -10c-19.333 0 -33.166 3.5 -41.499 10.5z" />
    <glyph glyph-name="f_f_l" unicode="ffl" horiz-adv-x="1034" 
d="M246.5 634c-10.333 -13.333 -15.498 -29.668 -15.498 -49.001v-70h99c13.333 0 24.166 -4.16699 32.499 -12.5s12.5 -18.833 12.5 -31.5s-4.16699 -23 -12.5 -31s-19.166 -12 -32.499 -12h-99v-380c0 -13.333 -4.5 -24.666 -13.5 -33.999s-20.5 -14 -34.5 -14
c-13.333 0 -24.5 4.66699 -33.5 14s-13.5 20.666 -13.5 33.999v380h-62c-12.667 0 -23.334 4 -32.001 12s-13 18.333 -13 31s4.33301 23.167 13 31.5s19.334 12.5 32.001 12.5h62v70c0 46.667 15 83.834 45 111.501s72.333 41.5 127 41.5c22.667 0 42.667 -4.16699 60 -12.5
s26 -20.833 26 -37.5c0 -12.667 -3.83301 -23.167 -11.5 -31.5s-16.834 -12.5 -27.501 -12.5c-2.66699 0 -10 1.33301 -22 4c-14.667 4 -27.334 6 -38.001 6c-22 0 -38.167 -6.66699 -48.5 -20zM636.502 633.998c-10.333 -13.333 -15.498 -29.668 -15.498 -49.001v-70h99
c13.333 0 24.166 -4.16699 32.499 -12.5s12.5 -18.833 12.5 -31.5s-4.16699 -23 -12.5 -31s-19.166 -12 -32.499 -12h-99v-380c0 -13.333 -4.5 -24.666 -13.5 -33.999s-20.5 -14 -34.5 -14c-13.333 0 -24.5 4.66699 -33.5 14s-13.5 20.666 -13.5 33.999v380h-62
c-12.667 0 -23.334 4 -32.001 12s-13 18.333 -13 31s4.33301 23.167 13 31.5s19.334 12.5 32.001 12.5h62v70c0 46.667 15 83.834 45 111.501s72.333 41.5 127 41.5c22.667 0 42.667 -4.16699 60 -12.5s26 -20.833 26 -37.5c0 -12.667 -3.83301 -23.167 -11.5 -31.5
s-16.834 -12.5 -27.501 -12.5c-2.66699 0 -10 1.33301 -22 4c-14.667 4 -27.334 6 -38.001 6c-22 0 -38.167 -6.66699 -48.5 -20zM941.004 13.9961c-9.33301 -9.33301 -20.666 -14 -33.999 -14s-24.5 4.66699 -33.5 14s-13.5 20.666 -13.5 33.999v644
c0 13.333 4.66699 24.666 14 33.999s20.666 14 33.999 14s24.5 -4.66699 33.5 -14s13.5 -20.666 13.5 -33.999v-644c0 -13.333 -4.66699 -24.666 -14 -33.999z" />
    <glyph glyph-name=".notdef" horiz-adv-x="584" 
d="M75 700h434c23.333 0 35 -11.667 35 -35v-630c0 -23.333 -11.667 -35 -35 -35h-434c-23.333 0 -35 11.667 -35 35v630c0 23.333 11.667 35 35 35zM91 668c-0.666992 -1.33301 -0.332031 -2.66699 1.00098 -4l416 -599c1.33301 -2 2.66602 -2.83301 3.99902 -2.5
s2 1.83301 2 4.5v598c0 3.33301 -1.66699 5 -5 5h-414c-2 0 -3.33301 -0.666992 -4 -2zM75.002 29.999l412.998 0.000976562c2 0 3.33301 0.666992 4 2s0.333984 2.66602 -0.999023 3.99902l-415 599c-1.33301 2 -2.66602 2.83301 -3.99902 2.5s-2 -1.83301 -2 -4.5v-598
c0 -3.33301 1.66699 -5 5 -5z" />
    <glyph glyph-name="nonmarkingreturn" unicode="&#xd;" horiz-adv-x="277" 
 />
    <glyph glyph-name="space" unicode=" " horiz-adv-x="277" 
 />
    <glyph glyph-name="exclam" unicode="!" horiz-adv-x="233" 
d="M87 242l-22.001 398c-1.33301 17.333 2.83398 31.666 12.501 42.999s22.5 17 38.5 17c16.667 0 29.667 -5.66699 39 -17s13.333 -25.666 12 -42.999l-21 -398c-0.666992 -10.667 -3.5 -18.667 -8.5 -24s-11.833 -8 -20.5 -8c-18.667 0 -28.667 10.667 -30 32z
M74.499 13.5c-8.33301 9 -12.5 21.5 -12.5 37.5v19c0 16 4.16699 28.5 12.5 37.5s20.5 13.5 36.5 13.5h11c16 0 28.167 -4.5 36.5 -13.5s12.5 -21.5 12.5 -37.5v-19c0 -16 -4.16699 -28.5 -12.5 -37.5s-20.5 -13.5 -36.5 -13.5h-11c-16 0 -28.167 4.5 -36.5 13.5z" />
    <glyph glyph-name="quotedbl" unicode="&#x22;" horiz-adv-x="410" 
d="M101 700h30.001c11.333 0 20 -2.5 26 -7.5s9 -12.167 9 -21.5c0 -4.66699 -1 -10 -3 -16l-66 -212c-6.66699 -18.667 -18.667 -28 -36 -28c-8.66699 0 -15 3 -19 9s-5.33301 14.667 -4 26l20 211c3.33301 26 17.666 39 42.999 39zM308.001 700l31 0.000976562
c10.667 0 19 -2.5 25 -7.5s9 -12.167 9 -21.5c0 -4.66699 -1 -10 -3 -16l-67 -212c-6 -18.667 -18 -28 -36 -28c-8 0 -13.833 3.16699 -17.5 9.5s-5.16699 15.166 -4.5 26.499l21 210c2 26 16 39 42 39z" />
    <glyph glyph-name="numbersign" unicode="#" horiz-adv-x="677" 
d="M532 449l-32.9951 -194.004h65c12.667 0 23.334 -4.33301 32.001 -13s13 -19.334 13 -32.001c0 -12 -4.33301 -21.833 -13 -29.5s-19.334 -11.5 -32.001 -11.5h-80l-23 -133c-1.33301 -10.667 -5.83301 -19.334 -13.5 -26.001s-16.834 -10 -27.501 -10
c-12.667 0 -23.167 4.16699 -31.5 12.5s-12.5 19.166 -12.5 32.499c0 4.66699 0.333008 8.33398 1 11.001l19 113h-177l-23 -133c-2 -11.333 -6.83301 -20.166 -14.5 -26.499s-16.834 -9.5 -27.501 -9.5c-13.333 0 -24 4.33301 -32 13s-12 19.667 -12 33
c0 4.66699 0.333008 8 1 10l20 113h-55c-12.667 0 -23.334 4.33301 -32.001 13s-13 19.334 -13 32.001c0 12 4.16699 21.833 12.5 29.5s19.166 11.5 32.499 11.5h69l34 194h-65c-12.667 0 -23.334 4.33301 -32.001 13s-13 19.334 -13 32.001c0 12 4.16699 21.833 12.5 29.5
s19.166 11.5 32.499 11.5h80l22 129c1.33301 10.667 5.83301 19.334 13.5 26.001s16.834 10 27.501 10c12.667 0 23.167 -4.16699 31.5 -12.5s12.5 -19.166 12.5 -32.499c0 -4.66699 -0.333008 -8.33398 -1 -11.001l-19 -109h178l22 129
c1.33301 10.667 5.83301 19.334 13.5 26.001s17.167 10 28.5 10c12.667 0 23.167 -4.33301 31.5 -13s12.5 -19.667 12.5 -33c0 -4.66699 -0.333008 -8 -1 -10l-19 -109h54c13.333 0 24.166 -4.16699 32.499 -12.5s12.5 -19.166 12.5 -32.499
c0 -12 -4.16699 -21.833 -12.5 -29.5s-19.166 -11.5 -32.499 -11.5h-69zM444.005 448.996h-177l-34 -194h178z" />
    <glyph glyph-name="dollar" unicode="$" horiz-adv-x="582" 
d="M486 61.5c-35.333 -35 -80.665 -57.1689 -135.998 -66.502v-83c0 -13.333 -4.66699 -24.666 -14 -33.999s-21 -14 -35 -14c-13.333 0 -24.333 4.66699 -33 14s-13 20.666 -13 33.999v80c-38.667 3.33301 -73.834 11.666 -105.501 24.999s-61.834 33.333 -90.501 60
c-14 12 -21 25.667 -21 41c0 12 4.66699 22.833 14 32.5s20.333 14.5 33 14.5c11.333 0 21 -3.66699 29 -11c22.667 -20 45.167 -35.833 67.5 -47.5s46.833 -19.167 73.5 -22.5v231c-64 14.667 -113.167 37.834 -147.5 69.501s-51.5 74.834 -51.5 129.501
c0 52.667 18.333 96.334 55 131.001s84.667 55.667 144 63v51c0 13.333 4.5 24.666 13.5 33.999s20.5 14 34.5 14c13.333 0 24.5 -4.66699 33.5 -14s13.5 -20.666 13.5 -33.999v-53c31.333 -4.66699 60.333 -13 87 -25s48.667 -26.667 66 -44
c15.333 -13.333 23 -27.666 23 -42.999c0 -12 -4.5 -22.667 -13.5 -32s-19.833 -14 -32.5 -14c-9.33301 0 -17 2.66699 -23 8c-12 11.333 -27.5 22 -46.5 32s-39.167 17.667 -60.5 23v-222c64 -16.667 111.5 -39.834 142.5 -69.501s46.5 -73.5 46.5 -131.5
c0 -49.333 -17.667 -91.5 -53 -126.5zM177.501 453.498c17.667 -16.333 43.5 -29.834 77.5 -40.501v202c-32.667 -5.33301 -58.167 -16.666 -76.5 -33.999s-27.5 -38.333 -27.5 -63c0 -26.667 8.83301 -48.167 26.5 -64.5zM417.501 125.997c17 16.667 25.5 36 25.5 58
c-0.666992 25.333 -8.66699 46.5 -24 63.5s-38.333 31.167 -69 42.5v-201c28 8 50.5 20.333 67.5 37z" />
    <glyph glyph-name="percent" unicode="%" horiz-adv-x="799" 
d="M108.5 354c-23 16.667 -40.833 39.5 -53.5 68.5s-19 60.833 -19 95.5c0 35.333 6.33301 67.5 19 96.5s30.5 52 53.5 69s49.833 25.5 80.5 25.5c46 0 82.833 -18.167 110.5 -54.5s41.5 -81.5 41.5 -135.5c0 -34.667 -6.5 -66.5 -19.5 -95.5s-31 -52 -54 -69
s-49.167 -25.5 -78.5 -25.5c-30.667 0 -57.5 8.33301 -80.5 25zM162.5 9c-9 7.33301 -13.499 16.666 -13.499 27.999c0 8 2.66699 16.333 8 25l410 621c9.33301 12.667 20.666 19 33.999 19c10 0 19.5 -3.66699 28.5 -11s13.5 -16.666 13.5 -27.999
c0 -6 -2.66699 -14.333 -8 -25l-411 -621c-9.33301 -12.667 -20.333 -19 -33 -19c-10 0 -19.5 3.66699 -28.5 11zM241.501 435c12.333 21.333 18.5 49 18.5 83c0 34.667 -6.16699 62.667 -18.5 84s-29.833 32 -52.5 32s-40.167 -10.667 -52.5 -32s-18.5 -49 -18.5 -83
c0 -34.667 6.16699 -62.667 18.5 -84s29.833 -32 52.5 -32s40.167 10.667 52.5 32zM532.001 16c-23.333 16.667 -41.501 39.333 -54.501 68s-19.5 60.334 -19.5 95.001c0 35.333 6.33301 67.5 19 96.5s30.5 52 53.5 69s49.833 25.5 80.5 25.5s57.5 -8.5 80.5 -25.5
s40.667 -39.833 53 -68.5s18.5 -60.667 18.5 -96c0 -34.667 -6.5 -66.334 -19.5 -95.001s-31 -51.5 -54 -68.5s-49.167 -25.5 -78.5 -25.5s-55.666 8.33301 -78.999 25zM663 95.999c12 21.333 18 48.999 18 82.999c0 34.667 -6.16699 62.834 -18.5 84.501
s-29.5 32.5 -51.5 32.5c-22.667 0 -40.167 -10.833 -52.5 -32.5s-18.5 -49.5 -18.5 -83.5c0 -34.667 6.16699 -62.667 18.5 -84s29.833 -32 52.5 -32s40 10.667 52 32z" />
    <glyph glyph-name="ampersand" unicode="&#x26;" horiz-adv-x="697" 
d="M672 42c0 -9.33301 -3.66211 -18.666 -10.9951 -27.999s-17 -14 -29 -14c-11.333 0 -20.666 2.66699 -27.999 8l-92 76c-62.667 -62.667 -141.334 -94 -236.001 -94c-46 0 -87.833 10.5 -125.5 31.5s-67.167 48.667 -88.5 83s-32 70.5 -32 108.5
c0 46.667 12.333 88.167 37 124.5s61.667 64.833 111 85.5c-13.333 19.333 -23.333 37.666 -30 54.999s-10 35.333 -10 54c0 32.667 8.33301 62.5 25 89.5s40.667 48.5 72 64.5s67.666 24 108.999 24c46 0 86.5 -8.16699 121.5 -24.5s58.833 -37.166 71.5 -62.499
c4.66699 -9.33301 7 -19.666 7 -30.999c0 -10.667 -3.83301 -19.667 -11.5 -27s-17.834 -11 -30.501 -11c-14.667 0 -25.334 5.33301 -32.001 16c-14 20 -31.167 34.833 -51.5 44.5s-45.166 14.5 -74.499 14.5c-34 0 -60.167 -8.66699 -78.5 -26
s-27.5 -39.666 -27.5 -66.999c0 -24 8.66699 -48.333 26 -73s42 -54.334 74 -89.001l18 -20c38.667 -42.667 86 -89 142 -139c17.333 34 29.333 71.333 36 112c3.33301 19.333 16.666 29 39.999 29c13.333 0 24.166 -5.5 32.499 -16.5s11.5 -23.833 9.5 -38.5
c-8.66699 -54.667 -25.334 -103.334 -50.001 -146.001l85 -72c14 -12.667 21 -26.334 21 -41.001zM446.005 141c-71.333 62.667 -131.666 122 -180.999 178c-9.33301 10 -20.333 22.667 -33 38c-38 -11.333 -65 -28 -81 -50s-24 -48.667 -24 -80c0 -26 6 -50 18 -72
s30.667 -40 56 -54s56.666 -21 93.999 -21c58.667 0 109 20.333 151 61z" />
    <glyph glyph-name="quotesingle" unicode="'" horiz-adv-x="204" 
d="M101 700h31.001c10.667 0 19 -2.5 25 -7.5s9 -11.833 9 -20.5c0 -5.33301 -1 -11 -3 -17l-66 -212c-6 -18.667 -18 -28 -36 -28c-8.66699 0 -15 3 -19 9s-5.33301 14.667 -4 26l20 211c3.33301 26 17.666 39 42.999 39z" />
    <glyph glyph-name="parenleft" unicode="(" horiz-adv-x="364" 
d="M282 -180c-78 46.667 -138.001 108.833 -180.001 186.5s-63 161.5 -63 251.5s21 173.167 63 249.5s102.333 139.166 181 188.499c6.66699 4.66699 13.667 7 21 7c12 0 21.667 -4.5 29 -13.5s11 -18.5 11 -28.5c0 -12.667 -5.66699 -23.667 -17 -33
c-62 -42.667 -109.5 -96.667 -142.5 -162s-49.5 -134.666 -49.5 -207.999c0 -75.333 16.333 -146 49 -212s80.334 -118.667 143.001 -158c11.333 -8 17 -19 17 -33c0 -10 -3.83301 -19.333 -11.5 -28s-17.167 -13 -28.5 -13c-6.66699 0 -14 2 -22 6z" />
    <glyph glyph-name="parenright" unicode=")" horiz-adv-x="364" 
d="M31.5 -172.5c-7.66699 9 -11.498 18.5 -11.498 28.5c0 13.333 5.66699 24.333 17 33c62 42.667 109.5 96.667 142.5 162s49.5 134.666 49.5 207.999c0 74.667 -16.333 145 -49 211s-80.334 119 -143.001 159c-5.33301 3.33301 -9.5 8 -12.5 14s-4.5 12 -4.5 18
c0 10.667 3.83301 20.334 11.5 29.001s17.167 13 28.5 13c7.33301 0 14.666 -2.33301 21.999 -7c78 -46.667 138 -108.667 180 -186s63 -161 63 -251c0 -89.333 -21.167 -172.333 -63.5 -249s-102.5 -139.667 -180.5 -189c-6.66699 -4.66699 -13.667 -7 -21 -7
c-11.333 0 -20.833 4.5 -28.5 13.5z" />
    <glyph glyph-name="asterisk" unicode="*" horiz-adv-x="341" 
d="M149.5 398.5c-5 5.66699 -6.83398 12.8359 -5.50098 21.5029l8 85c0.666992 2 0.333984 3.33301 -0.999023 4s-3 0.333984 -5 -0.999023l-70 -49c-6 -4 -12 -6 -18 -6c-9.33301 0 -17 4.66699 -23 14c-2.66699 5.33301 -4 10.666 -4 15.999
c0 10.667 5.66699 18.667 17 24l79 36c2 0.666992 3 1.66699 3 3s-1 2.33301 -3 3l-79 36c-5.33301 2.66699 -9.5 6.16699 -12.5 10.5s-4.5 9.16602 -4.5 14.499s1.33301 10.333 4 15c6 9.33301 14 14 24 14c4.66699 0 10.334 -1.66699 17.001 -5l70 -51
c2 -1.33301 3.66699 -1.66602 5 -0.999023s1.66602 2 0.999023 4l-8 85c-0.666992 8.66699 1.5 16 6.5 22s12.167 9 21.5 9c8 0 14.5 -3 19.5 -9s7.16699 -13.333 6.5 -22l-8 -85c-0.666992 -2 -0.333984 -3.33301 0.999023 -4s3 -0.333984 5 0.999023l70 50
c5.33301 4 11 6 17 6c10.667 0 18.667 -4.66699 24 -14c2.66699 -4.66699 4 -9.66699 4 -15c0 -11.333 -6 -19.666 -18 -24.999l-78 -36c-2 -0.666992 -3 -1.66699 -3 -3s1 -2.33301 3 -3l78 -36c12 -6 18 -14.667 18 -26c0 -2.66699 -1.33301 -7.33398 -4 -14.001
c-6.66699 -10 -14.667 -15 -24 -15c-6.66699 0 -12.334 2 -17.001 6l-70 50c-2 1.33301 -3.66699 1.66602 -5 0.999023s-1.66602 -2 -0.999023 -4l8 -85c0.666992 -8.66699 -1.66602 -15.834 -6.99902 -21.501s-12.333 -8.5 -21 -8.5s-15.5 2.83301 -20.5 8.5z" />
    <glyph glyph-name="plus" unicode="+" horiz-adv-x="571" 
d="M529.5 310.5c8.33301 -8.33301 12.502 -19.168 12.502 -32.501c0 -12.667 -4.16699 -23 -12.5 -31s-19.166 -12 -32.499 -12h-154v-153c0 -14.667 -4.66699 -26.834 -14 -36.501s-21.666 -14.5 -36.999 -14.5c-14.667 0 -26.834 4.83301 -36.501 14.5
s-14.5 21.834 -14.5 36.501v153h-153c-12.667 0 -23.334 4.33301 -32.001 13s-13 19.334 -13 32.001s4.16699 23 12.5 31s19.166 12 32.499 12h153v163c0 14.667 4.83301 26.667 14.5 36s21.834 14 36.501 14c15.333 0 27.666 -4.66699 36.999 -14s14 -21.333 14 -36v-163
h154c13.333 0 24.166 -4.16699 32.499 -12.5z" />
    <glyph glyph-name="comma" unicode="," horiz-adv-x="241" 
d="M175 -51.5c-10.667 -21.667 -24.1699 -40.168 -40.5029 -55.501s-33.166 -23 -50.499 -23c-11.333 0 -20.666 2.83301 -27.999 8.5s-11 13.834 -11 24.501c0 9.33301 2.33301 15.833 7 19.5s10.167 6.5 16.5 8.5s11.166 3.66699 14.499 5
c9.33301 4.66699 16.5 10.834 21.5 18.501s7.5 16.167 7.5 25.5c0 7.33301 -3 13.666 -9 18.999s-13.667 8 -23 8c-10.667 0 -19.667 -2.66699 -27 -8c-6.66699 3.33301 -11.667 7.5 -15 12.5s-5 11.833 -5 20.5c0.666992 16 9.33398 30.167 26.001 42.5
s34.334 18.5 53.001 18.5c24.667 0 44 -7.66699 58 -23s21 -36.666 21 -63.999c0 -16.667 -5.33301 -35.834 -16 -57.501z" />
    <glyph glyph-name="hyphen" unicode="-" horiz-adv-x="394" 
d="M67 253.5c-9.33301 9 -14 20.5 -14 34.5c0 13.333 4.66699 24.333 14 33s20.666 13 33.999 13h192c13.333 0 24.5 -4.5 33.5 -13.5s13.5 -20.5 13.5 -34.5c0 -13.333 -4.5 -24.333 -13.5 -33s-20.167 -13 -33.5 -13h-192c-13.333 0 -24.666 4.5 -33.999 13.5z" />
    <glyph glyph-name="period" unicode="." horiz-adv-x="221" 
d="M68.5 14c-8.33301 8.66699 -12.5 21.333 -12.5 38v19c0 16 4.16699 28.333 12.5 37s20.5 13 36.5 13h10c16.667 0 29.167 -4.33301 37.5 -13s12.5 -21 12.5 -37v-19c0 -34 -16.667 -51 -50 -51h-10c-16 0 -28.167 4.33301 -36.5 13z" />
    <glyph glyph-name="slash" unicode="/" horiz-adv-x="549" 
d="M34.5 -120c-9 8 -13.5 17.667 -13.5 29c0 5.33301 1.66699 12 5 20l419 844c9.33301 18 22.333 27 39 27c10 0 19.333 -3.83301 28 -11.5s13 -17.167 13 -28.5c0 -8 -1.66699 -15.333 -5 -22l-418 -844c-8 -17.333 -20.667 -26 -38 -26c-10.667 0 -20.5 4 -29.5 12z" />
    <glyph glyph-name="zero" unicode="0" horiz-adv-x="606" 
d="M163 36c-38.667 30.667 -67.834 73 -87.501 127s-29.5 116.333 -29.5 187s9.83301 133 29.5 187s48.834 96.333 87.501 127s85.334 46 140.001 46s101.334 -15.333 140.001 -46s67.834 -73 87.501 -127s29.5 -116.333 29.5 -187s-9.83301 -133 -29.5 -187
s-48.834 -96.333 -87.501 -127s-85.334 -46 -140.001 -46s-101.334 15.333 -140.001 46zM416.5 155c27 46 40.5 111 40.5 195s-13.5 149 -40.5 195s-64.833 69 -113.5 69s-86.5 -23 -113.5 -69s-40.5 -111 -40.5 -195s13.5 -149 40.5 -195s64.833 -69 113.5 -69
s86.5 23 113.5 69z" />
    <glyph glyph-name="one" unicode="1" horiz-adv-x="351" 
d="M255.5 685.5c8.33301 -9 12.499 -20.167 12.499 -33.5v-604c0 -13.333 -5 -24.666 -15 -33.999s-22.333 -14 -37 -14s-26.667 4.66699 -36 14s-14 20.666 -14 33.999v520l-88 -53c-7.33301 -4.66699 -15.666 -7 -24.999 -7c-13.333 0 -24.666 5.16699 -33.999 15.5
s-14 21.5 -14 33.5c0 8 2.33301 15.667 7 23s10.667 13.333 18 18l158 95c9.33301 4.66699 21 7 35 7c13.333 -0.666992 24.166 -5.5 32.499 -14.5z" />
    <glyph glyph-name="two" unicode="2" horiz-adv-x="549" 
d="M500 75c8.66699 -8.66699 13.001 -19.3311 13.001 -31.998s-4.33301 -23 -13 -31s-19.334 -12 -32.001 -12h-355c-13.333 0 -24.333 4.16699 -33 12.5s-13 19.5 -13 33.5c0 12 4.66699 23.333 14 34l223 242c62 66 93 124.333 93 175c0 36 -11.833 65.833 -35.5 89.5
s-53.834 35.5 -90.501 35.5c-24.667 0 -48.334 -7 -71.001 -21s-41 -34 -55 -60c-10.667 -14 -23.334 -21 -38.001 -21c-11.333 0 -22 4.33301 -32 13s-15 18.667 -15 30c0 7.33301 2.5 15 7.5 23s12.167 17.333 21.5 28c22 29.333 50 52.666 84 69.999s68.333 26 103 26
c44.667 0 83.334 -9 116.001 -27s57.834 -42.667 75.501 -74s26.5 -67.333 26.5 -108c0 -76.667 -41.333 -159.334 -124 -248.001l-151 -165h249c12.667 0 23.334 -4.33301 32.001 -13z" />
    <glyph glyph-name="three" unicode="3" horiz-adv-x="521" 
d="M377.5 414.5c30.333 -19 54.1689 -44.8311 71.502 -77.498s26 -69.334 26 -110.001c0 -47.333 -11 -89 -33 -125s-52.333 -63.667 -91 -83s-83 -29 -133 -29c-26.667 0 -52.5 3.66699 -77.5 11s-46.5 18 -64.5 32c-18 10 -27 23.667 -27 41
c0 12.667 4.5 24.334 13.5 35.001s19.833 16 32.5 16c12 0 24 -4.33301 36 -13c27.333 -25.333 61.666 -38 102.999 -38c26 0 50.167 6 72.5 18s40.166 29.167 53.499 51.5s20 48.166 20 77.499c0 43.333 -13.333 76.666 -40 99.999s-58.667 35 -96 35
c-10.667 0 -26 -2.33301 -46 -7c-14.667 -4 -25.667 -6 -33 -6c-12 0 -21.667 4.16699 -29 12.5s-11 18.833 -11 31.5c0 7.33301 1.33301 13.666 4 18.999s7 11.666 13 18.999l170 187h-231c-12.667 0 -23.334 4.33301 -32.001 13s-13 19.334 -13 32.001s4.33301 23 13 31
s19.334 12 32.001 12h319c15.333 0 27.333 -4.66699 36 -14s13 -20.666 13 -33.999c0 -12 -6.33301 -24.333 -19 -37l-155 -172c38 0 72.167 -9.5 102.5 -28.5z" />
    <glyph glyph-name="four" unicode="4" horiz-adv-x="645" 
d="M568 275.5c8.66699 -8.33301 12.999 -18.834 12.999 -31.501s-4.33301 -23 -13 -31s-19.334 -12 -32.001 -12h-53v-153c0 -13.333 -4.66699 -24.666 -14 -33.999s-20.666 -14 -33.999 -14s-24.5 4.66699 -33.5 14s-13.5 20.666 -13.5 33.999v153h-274
c-12 0 -22.833 4.66699 -32.5 14s-14.5 20.333 -14.5 33c0 12 3.66699 22.667 11 32l319 401c4.66699 6 10.5 10.667 17.5 14s14.167 5 21.5 5c13.333 0 24.5 -4.66699 33.5 -14s13.5 -20.666 13.5 -33.999v-364h53c12.667 0 23.334 -4.16699 32.001 -12.5zM387.999 287.999
v250l-195 -250h195z" />
    <glyph glyph-name="five" unicode="5" horiz-adv-x="567" 
d="M384 438.5c35.333 -19.667 63 -47 83 -82s30 -74.167 30 -117.5c0 -46 -11.833 -87.667 -35.5 -125s-56 -66.833 -97 -88.5s-85.833 -32.5 -134.5 -32.5c-27.333 0 -54.666 4.33301 -81.999 13s-50.333 20.667 -69 36c-6.66699 5.33301 -12 12.333 -16 21
s-6 17.334 -6 26.001c0 10 4.16699 19.167 12.5 27.5s19.166 12.5 32.499 12.5c8.66699 0 20.334 -5 35.001 -15c30 -22 60.667 -33 92 -33c32 0 61.167 7 87.5 21s47.166 33 62.499 57s23 50.333 23 79c0 42.667 -14 77 -42 103s-63.333 39 -106 39
c-18 0 -33.833 -2.33301 -47.5 -7s-30.167 -11.667 -49.5 -21c-8 -4 -15.833 -7.5 -23.5 -10.5s-14.167 -4.5 -19.5 -4.5c-19.333 0 -33.666 5.66699 -42.999 17s-14 24.333 -14 39l1 10l36 259c2 10.667 7.5 19.667 16.5 27s19.833 11 32.5 11h294
c12.667 0 23.167 -4.33301 31.5 -13s12.5 -19.334 12.5 -32.001s-4.16699 -23.167 -12.5 -31.5s-18.833 -12.5 -31.5 -12.5h-261l-26 -171c14.667 8 32.5 14.667 53.5 20s41.833 8 62.5 8c43.333 0 82.666 -9.83301 117.999 -29.5z" />
    <glyph glyph-name="six" unicode="6" horiz-adv-x="543" 
d="M398 417.5c32.667 -21 58.832 -49.165 78.499 -84.498s29.5 -73.333 29.5 -114c0 -41.333 -10 -79.5 -30 -114.5s-47.333 -62.833 -82 -83.5s-73 -31 -115 -31c-48 0 -89.5 12.333 -124.5 37s-61.833 57 -80.5 97s-28 83 -28 129c0 51.333 10 107.833 30 169.5
s52.833 119 98.5 172s104.167 90.833 175.5 113.5c6 2 12 3 18 3c14 0 25.5 -3.66699 34.5 -11s13.5 -19 13.5 -35c0 -11.333 -3.66699 -21.333 -11 -30s-17.333 -14.667 -30 -18c-46.667 -16.667 -90 -45.334 -130 -86.001s-68.667 -86.334 -86 -137.001
c39.333 36.667 84.333 55 135 55c36.667 0 71.334 -10.5 104.001 -31.5zM372.998 118.002c25.333 26.667 38 60.334 38 101.001c0 39.333 -12.167 72.833 -36.5 100.5s-55.833 41.5 -94.5 41.5c-40 0 -72.833 -13.833 -98.5 -41.5s-38.5 -61.834 -38.5 -102.501
c0 -38.667 12.5 -71.5 37.5 -98.5s57.5 -40.5 97.5 -40.5c38 0 69.667 13.333 95 40z" />
    <glyph glyph-name="seven" unicode="7" horiz-adv-x="548" 
d="M496.5 687c9.66699 -8.66699 14.502 -19.6699 14.502 -33.0029c0 -6.66699 -1.66699 -14 -5 -22l-268 -606c-4 -9.33301 -10 -16.666 -18 -21.999s-16.667 -8 -26 -8c-12.667 0 -24 4.33301 -34 13s-15 19.334 -15 32.001c0 6.66699 1.66699 14 5 22l244 549h-289
c-12.667 0 -23.334 4.33301 -32.001 13s-13 19.334 -13 32.001s4.16699 23 12.5 31s19.166 12 32.499 12h356c14 0 25.833 -4.33301 35.5 -13z" />
    <glyph glyph-name="eight" unicode="8" horiz-adv-x="578" 
d="M486.5 292c19 -28.667 28.499 -59.333 28.499 -92c0 -36.667 -10 -70.5 -30 -101.5s-47.333 -55.667 -82 -74s-72.667 -27.5 -114 -27.5s-79.333 9.16699 -114 27.5s-62 43 -82 74s-30 64.833 -30 101.5c0 36 9.5 67.5 28.5 94.5s43.5 49.167 73.5 66.5
c-24.667 14 -45 33.167 -61 57.5s-24 52.833 -24 85.5c0 36 9.33301 69 28 99s43.834 53.667 75.501 71s66.834 26 105.501 26c38 0 73 -8.66699 105 -26s57.167 -41 75.5 -71s27.5 -63 27.5 -99c0 -34 -8.33301 -62.833 -25 -86.5s-37.334 -42.167 -62.001 -55.5
c32 -18 57.5 -41.333 76.5 -70zM206.999 581.001c-21.333 -20.667 -32.001 -47 -32.001 -79c0 -31.333 11 -57.5 33 -78.5s49 -31.5 81 -31.5c31.333 0 58 10.5 80 31.5s33 47.167 33 78.5c0 32 -10.667 58.333 -32 79s-48.333 31 -81 31
c-33.333 0 -60.666 -10.333 -81.999 -31zM382.498 118.001c25 22 37.5 49.667 37.5 83s-12.833 61.333 -38.5 84s-56.5 34 -92.5 34s-66.667 -11.333 -92 -34s-38 -50.667 -38 -84s12.333 -61 37 -83s55.667 -33 93 -33s68.5 11 93.5 33z" />
    <glyph glyph-name="nine" unicode="9" horiz-adv-x="550" 
d="M398.5 675c35 -24.667 61.667 -57.001 80 -97.001s27.5 -83 27.5 -129c0 -51.333 -10 -107.333 -30 -168s-52.667 -117.167 -98 -169.5s-103.666 -89.833 -174.999 -112.5c-6 -2 -12 -3 -18 -3c-13.333 0 -24.833 3.83301 -34.5 11.5s-14.5 19.167 -14.5 34.5
c0 11.333 3.66699 21.333 11 30s17.333 14.667 30 18c47.333 16.667 91.166 44.667 131.499 84s68.833 84.333 85.5 135c-38.667 -37.333 -83.667 -56 -135 -56c-36.667 0 -71.5 10.5 -104.5 31.5s-59.333 49.333 -79 85s-29.5 73.834 -29.5 114.501s10.167 78.5 30.5 113.5
s47.833 62.833 82.5 83.5s73 31 115 31c48 0 89.5 -12.333 124.5 -37zM371.5 382.999c25.667 27.333 38.498 61.333 38.498 102c0 38.667 -12.667 71.5 -38 98.5s-58 40.5 -98 40.5c-37.333 0 -68.666 -13.333 -93.999 -40s-38 -60 -38 -100s12.167 -73.667 36.5 -101
s55.5 -41 93.5 -41c40.667 0 73.834 13.667 99.501 41z" />
    <glyph glyph-name="colon" unicode=":" horiz-adv-x="237" 
d="M76.5 415c-8.33301 8.66699 -12.5 21.334 -12.5 38.001v18c0 16.667 4.16699 29.334 12.5 38.001s20.5 13 36.5 13h11c16 0 28.167 -4.33301 36.5 -13s12.5 -21.334 12.5 -38.001v-18c0 -16.667 -4.16699 -29.334 -12.5 -38.001s-20.5 -13 -36.5 -13h-11
c-16 0 -28.167 4.33301 -36.5 13zM76.5 13.5c-8.33301 9 -12.5 21.5 -12.5 37.5v19c0 16 4.16699 28.5 12.5 37.5s20.5 13.5 36.5 13.5h11c16 0 28.167 -4.5 36.5 -13.5s12.5 -21.5 12.5 -37.5v-19c0 -16 -4.16699 -28.5 -12.5 -37.5s-20.5 -13.5 -36.5 -13.5h-11
c-16 0 -28.167 4.5 -36.5 13.5z" />
    <glyph glyph-name="semicolon" unicode=";" horiz-adv-x="254" 
d="M99 415c-8.66699 8.66699 -13 21.334 -13 38.001v18c0 16.667 4.33301 29.334 13 38.001s21.334 13 38.001 13h10c16 0 28.5 -4.33301 37.5 -13s13.5 -21.334 13.5 -38.001v-18c0 -16.667 -4.5 -29.334 -13.5 -38.001s-21.5 -13 -37.5 -13h-10
c-16.667 0 -29.334 4.33301 -38.001 13zM197 -51.5c-10.667 -21.667 -24.1699 -40.168 -40.5029 -55.501s-33.166 -23 -50.499 -23c-11.333 0 -20.666 2.83301 -27.999 8.5s-11 13.834 -11 24.501c0 9.33301 2.33301 15.833 7 19.5s10.167 6.5 16.5 8.5
s11.166 3.66699 14.499 5c9.33301 4.66699 16.5 10.834 21.5 18.501s7.5 16.167 7.5 25.5c0 7.33301 -3 13.666 -9 18.999s-13.667 8 -23 8c-10.667 0 -19.667 -2.66699 -27 -8c-6.66699 3.33301 -11.667 7.5 -15 12.5s-5 11.833 -5 20.5
c0.666992 16 9.33398 30.167 26.001 42.5s34.334 18.5 53.001 18.5c24.667 0 44 -7.66699 58 -23s21 -36.666 21 -63.999c0 -16.667 -5.33301 -35.834 -16 -57.501z" />
    <glyph glyph-name="less" unicode="&#x3c;" horiz-adv-x="524" 
d="M467 48c0 -12 -4.33203 -23.001 -12.999 -33.001s-17.667 -15 -27 -15c-8 0 -21.333 5.33301 -40 16l-336 195c-15.333 8.66699 -23 22.334 -23 41.001s8 32.667 24 42l334 190c15.333 9.33301 27.333 14 36 14c11.333 0 21.666 -5 30.999 -15s14 -20.667 14 -32
c0 -14 -6.66699 -24.667 -20 -32l-291 -167l289 -169c14.667 -8 22 -19.667 22 -35z" />
    <glyph glyph-name="equal" unicode="=" horiz-adv-x="562" 
d="M63.5 343c-9 8.66699 -13.5 19.333 -13.5 32s4.5 23 13.5 31s20.167 12 33.5 12h368c13.333 0 24.5 -4.16699 33.5 -12.5s13.5 -18.833 13.5 -31.5c0 -12 -4.5 -22.333 -13.5 -31s-20.167 -13 -33.5 -13h-368c-13.333 0 -24.5 4.33301 -33.5 13zM63.5 153.999
c-9 8.66699 -13.5 19.333 -13.5 32s4.5 23 13.5 31s20.167 12 33.5 12h368c13.333 0 24.5 -4.16699 33.5 -12.5s13.5 -18.833 13.5 -31.5c0 -12 -4.5 -22.333 -13.5 -31s-20.167 -13 -33.5 -13h-368c-13.333 0 -24.5 4.33301 -33.5 13z" />
    <glyph glyph-name="greater" unicode="&#x3e;" horiz-adv-x="527" 
d="M499 246c0 -18.667 -7.66797 -32.332 -23.001 -40.999l-339 -191c-15.333 -9.33301 -27.666 -14 -36.999 -14c-10.667 0 -20.667 5 -30 15s-14 20.667 -14 32c0 13.333 7.66699 24.333 23 33l292 165l-293 171c-13.333 7.33301 -20 18.666 -20 33.999
c0 12 4.33301 23 13 33s18 15 28 15c6.66699 0 14.5 -2.33301 23.5 -7s14.5 -7.66699 16.5 -9l335 -194c16.667 -10.667 25 -24.667 25 -42z" />
    <glyph glyph-name="question" unicode="?" horiz-adv-x="510" 
d="M188.5 359c9 9.33301 20.1709 13.9971 33.5039 13.9971c44.667 1.33301 81.167 13.833 109.5 37.5s42.5 57.5 42.5 101.5c0 38 -13 69.5 -39 94.5s-58 37.5 -96 37.5c-21.333 0 -41.833 -4.5 -61.5 -13.5s-36.834 -21.167 -51.501 -36.5
c-13.333 -12 -26.666 -18 -39.999 -18c-9.33301 0 -18 3 -26 9c-14.667 10.667 -22 23 -22 37c0 12 5 23 15 33c22.667 26 50.167 46.333 82.5 61s66.833 22 103.5 22c42.667 0 81.5 -9.66699 116.5 -29s62.833 -46.166 83.5 -80.499s31 -73.166 31 -116.499
c0 -40 -8.83301 -75.5 -26.5 -106.5s-41.834 -56 -72.501 -75s-65.334 -30.5 -104.001 -34.5c-0.666992 0 -0.833984 -0.166992 -0.500977 -0.5s1.16602 -0.166016 2.49902 0.500977v-66c0 -13.333 -4.5 -24.666 -13.5 -33.999s-20.167 -14 -33.5 -14
c-14 0 -25.5 4.66699 -34.5 14s-13.167 20.666 -12.5 33.999v94c0 14 4.5 25.667 13.5 35zM182.004 13.4971c-8.66699 9 -13 21.5 -13 37.5v19c0 16 4.33301 28.5 13 37.5s21 13.5 37 13.5h10c16 0 28.333 -4.5 37 -13.5s13 -21.5 13 -37.5v-19
c0 -16 -4.33301 -28.5 -13 -37.5s-21 -13.5 -37 -13.5h-10c-16 0 -28.333 4.5 -37 13.5z" />
    <glyph glyph-name="at" unicode="@" horiz-adv-x="967" 
d="M593.5 81.5c-21 17.667 -31.1611 40.498 -30.4941 68.498c-19.333 -32.667 -43.333 -56.667 -72 -72s-59 -23 -91 -23c-26.667 0 -51.167 7 -73.5 21s-40.333 33.5 -54 58.5s-20.5 53.5 -20.5 85.5c0 42 10.833 85.833 32.5 131.5s51 83.5 88 113.5s76.833 45 119.5 45
c27.333 0 51.333 -7.33301 72 -22s35.334 -34.667 44.001 -60l7 42c1.33301 9.33301 5.66602 17.5 12.999 24.5s18 10.5 32 10.5c28 0 42 -11.667 42 -35c0 -6 -0.333008 -10.667 -1 -14l-43 -272c-0.666992 -3.33301 -1 -8.33301 -1 -15c0 -16 4.16699 -28.167 12.5 -36.5
s18.5 -12.5 30.5 -12.5c28 0 54.167 13.5 78.5 40.5s43.666 61.833 57.999 104.5s21.5 86.334 21.5 131.001c0 49.333 -11.5 92.666 -34.5 129.999s-55.833 66.5 -98.5 87.5s-92.334 31.5 -149.001 31.5c-88 0 -167.5 -17.667 -238.5 -53s-127 -86.166 -168 -152.499
s-61.5 -144.166 -61.5 -233.499c0 -53.333 10.667 -102.833 32 -148.5s55 -82.834 101 -111.501s103.667 -43 173 -43c49.333 0 89.666 4.66699 120.999 14s66 24.333 104 45c6.66699 3.33301 12 5 16 5c11.333 0 19.666 -6.66699 24.999 -20
c1.33301 -2.66699 2 -6.33398 2 -11.001c0 -13.333 -9.66699 -24.666 -29 -33.999c-40.667 -20.667 -78.334 -36.5 -113.001 -47.5s-76.667 -16.5 -126 -16.5c-85.333 0 -156 17.333 -212 52s-97 79.834 -123 135.501s-39 115.834 -39 180.501
c0 101.333 23.667 190.166 71 266.499s111.666 135 192.999 176s172 61.5 272 61.5c73.333 0 136.333 -14 189 -42s92.5 -65.667 119.5 -113s40.5 -100.333 40.5 -159c0 -55.333 -10.667 -109.333 -32 -162s-51.5 -95.667 -90.5 -129s-83.167 -50 -132.5 -50
c-30 0 -55.5 8.83301 -76.5 26.5zM495.006 153.498c23.333 16.333 42.667 36.999 58 61.999s24.333 49.167 27 72.5c6 21.333 9 40.333 9 57c0 30.667 -8.66699 53.5 -26 68.5s-39.666 22.5 -66.999 22.5c-30 0 -56.667 -11.333 -80 -34s-41.5 -50.667 -54.5 -84
s-19.5 -65.333 -19.5 -96c0 -29.333 7.33301 -52.166 22 -68.499s34 -24.5 58 -24.5c25.333 0 49.666 8.16699 72.999 24.5z" />
    <glyph glyph-name="A" unicode="A" horiz-adv-x="642" 
d="M624 43c0 -13.333 -4.49902 -24.335 -13.499 -33.002s-19.5 -13 -31.5 -13c-9.33301 0 -17.833 2.83301 -25.5 8.5s-13.834 13.5 -18.501 23.5l-62 147h-309l-61 -148c-3.33301 -10 -8.83301 -17.667 -16.5 -23s-16.167 -8 -25.5 -8c-14 0 -24.667 3.66699 -32 11
s-11 17.333 -11 30c0 2.66699 0.666992 8 2 16l255 618c4.66699 10.667 11.167 18.834 19.5 24.501s17.833 7.83398 28.5 6.50098c10 0 19 -2.66699 27 -8s13.667 -13 17 -23l254 -610c2 -6 3 -12.333 3 -19zM435.001 266.998l-117 280l-116 -280h233z" />
    <glyph glyph-name="B" unicode="B" horiz-adv-x="653" 
d="M574.5 319.5c23.667 -29 35.4971 -66.8311 35.4971 -113.498c0 -74 -21.5 -126.833 -64.5 -158.5s-95.5 -47.5 -157.5 -47.5h-257c-13.333 0 -24.666 4.66699 -33.999 14s-14 20.666 -14 33.999v604c0 13.333 4.66699 24.666 14 33.999s20.666 14 33.999 14h257
c60.667 0 106.834 -15 138.501 -45s47.5 -73.333 47.5 -130c0 -32 -7.66699 -60.5 -23 -85.5s-37.666 -44.167 -66.999 -57.5c36.667 -12.667 66.834 -33.5 90.501 -62.5zM445.497 581.502c-17 16.333 -40.833 24.501 -71.5 24.501h-189v-195h191
c27.333 0.666992 50 9.5 68 26.5s27 41.167 27 72.5s-8.5 55.166 -25.5 71.499zM474.997 120.503c22 19 33 47.5 33 85.5c0 74 -42 111 -126 111h-197v-225h202c36.667 0 66 9.5 88 28.5z" />
    <glyph glyph-name="C" unicode="C" horiz-adv-x="638" 
d="M606 619c0 -12 -4.00488 -22.999 -12.0049 -32.999c-8 -10.667 -19 -16 -33 -16c-9.33301 0 -18.333 2.33301 -27 7c-41.333 23.333 -86 35 -134 35c-50 0 -94.167 -11 -132.5 -33s-68.166 -52.833 -89.499 -92.5s-32 -85.167 -32 -136.5c0 -55.333 11 -103 33 -143
s52.333 -70.5 91 -91.5s82 -31.5 130 -31.5c49.333 0 94 12 134 36c8 4 16.667 6 26 6c14.667 0 26.334 -5.66699 35.001 -17c8 -10 12 -20.667 12 -32c0 -8 -2.16699 -15.5 -6.5 -22.5s-10.166 -12.5 -17.499 -16.5c-26 -14.667 -55.167 -26.334 -87.5 -35.001
s-64.166 -13 -95.499 -13c-64.667 0 -124.167 14.333 -178.5 43s-97.666 70.334 -129.999 125.001s-48.5 118.667 -48.5 192c0 67.333 15.5 128.166 46.5 182.499s73.667 97 128 128s115.166 46.5 182.499 46.5c64.667 0 125.334 -16 182.001 -48c16 -8.66699 24 -22 24 -40
z" />
    <glyph glyph-name="D" unicode="D" horiz-adv-x="717" 
d="M538 653c44.667 -31.333 78.334 -73.498 101.001 -126.498s34 -111.833 34 -176.5c0 -65.333 -11.333 -124.5 -34 -177.5s-56.334 -95 -101.001 -126s-98.334 -46.5 -161.001 -46.5h-246c-13.333 0 -24.666 4.66699 -33.999 14s-14 20.666 -14 33.999v604
c0 13.333 4.66699 24.666 14 33.999s20.666 14 33.999 14h246c62.667 0 116.334 -15.667 161.001 -47zM520 164.502c34 48.333 50.999 110.166 50.999 185.499c0 74.667 -17.167 136.334 -51.5 185.001s-85.166 73 -152.499 73h-185v-516h185c68 0 119 24.167 153 72.5z" />
    <glyph glyph-name="E" unicode="E" horiz-adv-x="570" 
d="M513.5 78c9 -9.33301 13.5 -20.333 13.5 -33c0 -13.333 -4.5 -24.166 -13.5 -32.499s-20.5 -12.5 -34.5 -12.5h-348c-13.333 0 -24.666 4.66699 -33.999 14s-14 20.666 -14 33.999v604c0 13.333 4.66699 24.666 14 33.999s20.666 14 33.999 14h348
c14 0 25.5 -4.33301 34.5 -13s13.5 -20 13.5 -34c0 -13.333 -4.5 -24.166 -13.5 -32.499s-20.5 -12.5 -34.5 -12.5h-297v-204h252c14 0 25.5 -4.33301 34.5 -13s13.5 -19.667 13.5 -33c0 -14 -4.5 -25 -13.5 -33s-20.5 -12 -34.5 -12h-252v-221h297
c14 0 25.5 -4.66699 34.5 -14z" />
    <glyph glyph-name="F" unicode="F" horiz-adv-x="564" 
d="M181 608v-206.999h246c14 0 25.5 -4.33301 34.5 -13s13.5 -20 13.5 -34c0 -12 -4.5 -22.333 -13.5 -31s-20.5 -13 -34.5 -13h-246v-262c0 -13.333 -4.83301 -24.666 -14.5 -33.999s-21.167 -14 -34.5 -14c-14 0 -25.667 4.66699 -35 14s-14 20.666 -14 33.999v604
c0 13.333 4.66699 24.666 14 33.999s20.666 14 33.999 14h341c14 0 25.5 -4.33301 34.5 -13s13.5 -20 13.5 -34c0 -12 -4.66699 -22.5 -14 -31.5s-20.666 -13.5 -33.999 -13.5h-291z" />
    <glyph glyph-name="G" unicode="G" horiz-adv-x="695" 
d="M630.5 354c9 -9.33301 13.502 -20.665 13.502 -33.998v-225c0 -18 -8 -32 -24 -42c-30.667 -20 -64.334 -35.5 -101.001 -46.5s-74.334 -16.5 -113.001 -16.5c-66.667 0 -127.834 16 -183.501 48s-99.5 75.5 -131.5 130.5s-48 115.5 -48 181.5s16 126.5 48 181.5
s75.833 98.5 131.5 130.5s116.834 48 183.501 48c33.333 0 65.5 -3.66699 96.5 -11s58.833 -18.333 83.5 -33c8 -4.66699 14 -10.334 18 -17.001s6 -14 6 -22c0 -13.333 -4.5 -24.833 -13.5 -34.5s-19.833 -14.5 -32.5 -14.5c-10 0 -18.667 2.33301 -26 7
c-43.333 20 -87.333 30 -132 30c-48 0 -91.833 -11.667 -131.5 -35s-71 -55.333 -94 -96s-34.5 -85.334 -34.5 -134.001s11.5 -93.167 34.5 -133.5s54.333 -72.333 94 -96s83.5 -35.5 131.5 -35.5c22.667 0 46.5 2.66699 71.5 8s46.5 12.333 64.5 21v159h-121
c-13.333 0 -24.666 4.5 -33.999 13.5s-14 20.167 -14 33.5c0 14 4.66699 25.5 14 34.5s20.666 13.5 33.999 13.5h176c13.333 0 24.5 -4.66699 33.5 -14z" />
    <glyph glyph-name="H" unicode="H" horiz-adv-x="719" 
d="M623 686.5c9.33301 -9 14 -20.499 14 -34.499v-603c-0.666992 -14 -5.66699 -25.667 -15 -35s-21.333 -14 -36 -14c-13.333 0 -24.833 4.66699 -34.5 14s-14.5 21 -14.5 35v259h-355v-259c0 -14 -5 -25.667 -15 -35s-21.667 -14 -35 -14
c-14.667 0 -26.5 4.66699 -35.5 14s-13.5 21 -13.5 35v603c0 13.333 4.66699 24.666 14 33.999s21.333 14 36 14c13.333 0 24.833 -4.66699 34.5 -14s14.5 -20.666 14.5 -33.999v-252h355v252c0 13.333 5 24.666 15 33.999s21.667 14 35 14c14.667 0 26.667 -4.5 36 -13.5z
" />
    <glyph glyph-name="I" unicode="I" horiz-adv-x="265" 
d="M167 14c-10 -9.33301 -21.667 -14 -35 -14c-14.667 0 -26.5 4.66699 -35.5 14s-13.5 21 -13.5 35v603c0 13.333 4.66699 24.666 14 33.999s21.333 14 36 14c13.333 0 24.833 -4.66699 34.5 -14s14.5 -20.666 14.5 -33.999v-603c0 -14 -5 -25.667 -15 -35z" />
    <glyph glyph-name="J" unicode="J" horiz-adv-x="560" 
d="M138.5 18c-33 18.667 -59.167 44.334 -78.5 77.001c-6 9.33301 -9 18.333 -9 27c0 12.667 5 23.5 15 32.5s20.333 13.5 31 13.5c14.667 0 29.667 -8.33301 45 -25c26 -38.667 61 -58 105 -58c36.667 0 67.667 12.333 93 37s38 55 38 91v439c0 13.333 5 24.666 15 33.999
s21.667 14 35 14c14.667 0 26.5 -4.5 35.5 -13.5s13.5 -20.5 13.5 -34.5v-439c0 -40.667 -10 -78 -30 -112s-47.5 -61 -82.5 -81s-74.167 -30 -117.5 -30c-39.333 0 -75.5 9.33301 -108.5 28z" />
    <glyph glyph-name="K" unicode="K" horiz-adv-x="663" 
d="M626 48c0 -14.667 -5.50098 -26.666 -16.501 -35.999s-23.5 -14 -37.5 -14c-13.333 0 -25 6 -35 18l-243 313l-112 -106v-174c0 -14 -4.66699 -25.667 -14 -35s-21.333 -14 -36 -14s-26.5 4.66699 -35.5 14s-13.5 21 -13.5 35v603c0 13.333 4.66699 24.666 14 33.999
s21.333 14 36 14s26.5 -4.5 35.5 -13.5s13.5 -20.5 13.5 -34.5v-311l355 344c12.667 11.333 25.334 17 38.001 17c12 0 22.333 -5 31 -15s13 -20.667 13 -32c0 -10 -4.66699 -20.333 -14 -31l-237 -224l247 -319c7.33301 -9.33301 11 -20.333 11 -33z" />
    <glyph glyph-name="L" unicode="L" horiz-adv-x="550" 
d="M503.5 80c9 -8.66699 13.5 -19.999 13.5 -33.999c0 -13.333 -4.5 -24.333 -13.5 -33s-20.5 -13 -34.5 -13h-338c-14 0 -25.5 4.66699 -34.5 14s-13.5 20.666 -13.5 33.999v604c0 13.333 4.66699 24.666 14 33.999s21.333 14 36 14c13.333 0 24.833 -4.66699 34.5 -14
s14.5 -20.666 14.5 -33.999v-559h287c14 0 25.5 -4.33301 34.5 -13z" />
    <glyph glyph-name="M" unicode="M" horiz-adv-x="822" 
d="M725 686.5c9.33301 -9 13.999 -20.1689 13.999 -33.502v-605c0 -13.333 -4.5 -24.666 -13.5 -33.999s-20.833 -14 -35.5 -14s-26.667 4.5 -36 13.5s-14 20.5 -14 34.5v463l-194 -294c-4.66699 -6 -10.5 -11 -17.5 -15s-14.167 -5.66699 -21.5 -5
c-6.66699 -0.666992 -13.5 1 -20.5 5s-12.833 9 -17.5 15l-195 303v-472c0 -14 -4.16699 -25.5 -12.5 -34.5s-19.5 -13.5 -33.5 -13.5c-13.333 0 -24.166 4.5 -32.499 13.5s-12.5 20.5 -12.5 34.5v605c0 12.667 4.66699 23.834 14 33.501s21 14.5 35 14.5
c8 0 15.833 -2 23.5 -6s13.834 -9.33301 18.501 -16l237 -359l240 359c10.667 14.667 24 22 40 22c13.333 -0.666992 24.666 -5.5 33.999 -14.5z" />
    <glyph glyph-name="N" unicode="N" horiz-adv-x="732" 
d="M637 687.5c8 -8.33301 12 -18.833 12 -31.5v-607c0 -14 -4.5 -25.667 -13.5 -35s-20.5 -14 -34.5 -14c-7.33301 0 -14.5 1.16699 -21.5 3.5s-12.5 5.83301 -16.5 10.5l-393 512v-482c0 -12.667 -4.16699 -23.167 -12.5 -31.5s-18.833 -12.5 -31.5 -12.5
s-23 4.16699 -31 12.5s-12 18.833 -12 31.5v608c0 14 4.5 25.5 13.5 34.5s20.167 13.5 33.5 13.5c8 0 15.667 -1.5 23 -4.5s13 -7.16699 17 -12.5l392 -513v486c0 12.667 4.16699 23.167 12.5 31.5s18.833 12.5 31.5 12.5s23 -4.16699 31 -12.5z" />
    <glyph glyph-name="O" unicode="O" horiz-adv-x="762" 
d="M675.5 167c-29 -54.667 -69.167 -97.834 -120.5 -129.501s-109.333 -47.5 -174 -47.5s-122.667 15.833 -174 47.5s-91.5 74.834 -120.5 129.501s-43.5 115.667 -43.5 183s14.5 128.333 43.5 183s69.167 97.834 120.5 129.501s109.333 47.5 174 47.5
s122.667 -15.833 174 -47.5s91.5 -74.834 120.5 -129.501s43.5 -115.667 43.5 -183s-14.5 -128.333 -43.5 -183zM586 485.5c-20 40.333 -47.833 72 -83.5 95s-76.167 34.5 -121.5 34.5s-85.833 -11.333 -121.5 -34s-63.5 -54.167 -83.5 -94.5s-30 -85.833 -30 -136.5
c0 -50 10 -95.167 30 -135.5s47.833 -72 83.5 -95s76.167 -34.5 121.5 -34.5s85.833 11.5 121.5 34.5s63.5 54.667 83.5 95s30 85.5 30 135.5s-10 95.167 -30 135.5z" />
    <glyph glyph-name="P" unicode="P" horiz-adv-x="600" 
d="M461 671.5c30 -19 53.834 -44.835 71.501 -77.502s26.5 -68.667 26.5 -108s-8.83301 -75.666 -26.5 -108.999s-41.5 -59.666 -71.5 -78.999s-62.667 -29 -98 -29h-188v-221c0 -13.333 -4.33301 -24.666 -13 -33.999s-19.667 -14 -33 -14c-14 0 -25.167 4.5 -33.5 13.5
s-12.5 20.5 -12.5 34.5v604c0 13.333 4.66699 24.666 14 33.999s20.666 14 33.999 14h232c35.333 0 68 -9.5 98 -28.5zM413.001 377.498c15.333 11.667 27.5 27.167 36.5 46.5s13.5 40 13.5 62c0 34 -9.83301 62.833 -29.5 86.5s-43.167 35.5 -70.5 35.5h-188v-248h188
c18 0 34.667 5.83301 50 17.5z" />
    <glyph glyph-name="Q" unicode="Q" horiz-adv-x="763" 
d="M771.5 -53.5c9 -9 13.498 -19.501 13.498 -31.501c0 -17.333 -10.667 -34 -32 -50s-47.333 -29 -78 -39s-58.667 -15 -84 -15c-40.667 0 -73.667 4 -99 12s-51.666 19.667 -78.999 35c-20.667 11.333 -37.667 19.5 -51 24.5s-29 7.5 -47 7.5
c-8 0 -15.5 -1.16699 -22.5 -3.5s-13.833 -5.16602 -20.5 -8.49902c-16 -8 -31 -12 -45 -12c-12.667 0 -23.5 4.83301 -32.5 14.5s-13.5 20.5 -13.5 32.5c0 20.667 9 34.334 27 41.001l112 41c-54 9.33301 -102 30.666 -144 63.999s-74.667 75.333 -98 126
s-35 105.667 -35 165c0 67.333 14.5 128.333 43.5 183s69.167 97.834 120.5 129.501s109.333 47.5 174 47.5s122.667 -15.833 174 -47.5s91.5 -74.834 120.5 -129.501s43.5 -115.667 43.5 -183c0 -58.667 -11.167 -112.667 -33.5 -162s-53.5 -90.666 -93.5 -123.999
s-86 -55.333 -138 -66l-76 -28c16.667 -2 31.834 -5.83301 45.501 -11.5s30.167 -13.5 49.5 -23.5c24 -12 45 -21.167 63 -27.5s38 -9.5 60 -9.5c19.333 0 36 2.66699 50 8s27.333 12.666 40 21.999l18.5 14.5c7 5.66699 13.333 10 19 13s11.5 4.5 17.5 4.5
c11.333 0 21.5 -4.5 30.5 -13.5zM175.998 214.499c20 -40.333 47.833 -72 83.5 -95s76.167 -34.5 121.5 -34.5s85.833 11.5 121.5 34.5s63.5 54.667 83.5 95s30 85.5 30 135.5s-10 95.167 -30 135.5s-47.833 72 -83.5 95s-76.167 34.5 -121.5 34.5
s-85.833 -11.333 -121.5 -34s-63.5 -54.167 -83.5 -94.5s-30 -85.833 -30 -136.5c0 -50 10 -95.167 30 -135.5z" />
    <glyph glyph-name="R" unicode="R" horiz-adv-x="680" 
d="M632 62.5c4 -7 6.00391 -14.1631 6.00391 -21.4961c0 -14 -4.5 -24.333 -13.5 -31s-19.833 -10 -32.5 -10s-23.334 2.66699 -32.001 8c-20 11.333 -36.333 29.666 -49 54.999s-19 62.666 -19 111.999c0 33.333 -10 58 -30 74s-46 24 -78 24h-202v-225
c0 -14 -4 -25.5 -12 -34.5s-18.333 -13.5 -31 -13.5c-15.333 0 -28.5 4.66699 -39.5 14s-16.5 20.666 -16.5 33.999v604c0 13.333 4.66699 24.666 14 33.999s20.666 14 33.999 14h281c36 0 69 -8.83301 99 -26.5s54 -42 72 -73s27 -65.833 27 -104.5
c0 -37.333 -10 -72.166 -30 -104.499s-45.667 -56.5 -77 -72.5c24.667 -12.667 44.167 -30.334 58.5 -53.001s22.166 -49 23.499 -79c2.66699 -38 5.66699 -63.833 9 -77.5s10.666 -23.5 21.999 -29.5c6.66699 -4.66699 12 -10.5 16 -17.5zM457.504 376.004
c15 12 27.167 28.168 36.5 48.501s14 43.166 14 68.499c0 32 -9.83301 59.167 -29.5 81.5s-43.5 33.5 -71.5 33.5h-225v-252h228c16.667 1.33301 32.5 8 47.5 20z" />
    <glyph glyph-name="S" unicode="S" horiz-adv-x="582" 
d="M166 10.5c-37.333 13.667 -73.002 35.832 -107.002 66.499c-14 12 -21 25.667 -21 41c0 12 4.66699 22.833 14 32.5s20.333 14.5 33 14.5c11.333 0 21 -3.66699 29 -11c26.667 -24.667 54.167 -42.834 82.5 -54.501s60.5 -17.5 96.5 -17.5c42 0 77.5 9.66699 106.5 29
s43.5 43.666 43.5 72.999c-0.666992 34.667 -15.167 61.5 -43.5 80.5s-71.5 34.833 -129.5 47.5c-68.667 14 -121.5 37 -158.5 69s-55.5 76.333 -55.5 133c0 39.333 10.333 73.833 31 103.5s49.334 52.5 86.001 68.5s78 24 124 24c41.333 0 80.333 -6.66699 117 -20
s66.334 -31 89.001 -53c15.333 -13.333 23 -27.666 23 -42.999c0 -12 -4.5 -22.667 -13.5 -32s-19.833 -14 -32.5 -14c-9.33301 0 -17 2.66699 -23 8c-17.333 17.333 -41.333 32 -72 44s-60 18 -88 18c-44.667 0 -80.167 -9.16699 -106.5 -27.5s-39.5 -42.5 -39.5 -72.5
c0 -32.667 13.167 -57.667 39.5 -75s65.5 -32 117.5 -44c52 -11.333 94.5 -24.666 127.5 -39.999s58.5 -36.666 76.5 -63.999s27 -63 27 -107c0 -38.667 -10.833 -73 -32.5 -103s-51.167 -53.333 -88.5 -70s-78.333 -25 -123 -25c-48.667 0 -91.667 6.83301 -129 20.5z" />
    <glyph glyph-name="T" unicode="T" horiz-adv-x="617" 
d="M571.5 687.5c9 -8.33301 13.502 -19.499 13.502 -33.499s-4.5 -25 -13.5 -33s-20.5 -12 -34.5 -12h-178v-561c0 -13.333 -4.83301 -24.666 -14.5 -33.999s-21.834 -14 -36.501 -14s-26.834 4.66699 -36.501 14s-14.5 20.666 -14.5 33.999v561h-177
c-14 0 -25.5 4.16699 -34.5 12.5s-13.5 19.5 -13.5 33.5c0 13.333 4.5 24.166 13.5 32.499s20.5 12.5 34.5 12.5h457c14 0 25.5 -4.16699 34.5 -12.5z" />
    <glyph glyph-name="U" unicode="U" horiz-adv-x="708" 
d="M612.5 687.5c8.33301 -9 12.498 -20.501 12.498 -34.501v-384c0 -52.667 -11.667 -100 -35 -142s-55.5 -74.833 -96.5 -98.5s-87.167 -35.5 -138.5 -35.5c-52 0 -98.667 11.833 -140 35.5s-73.666 56.5 -96.999 98.5s-35 89.333 -35 142v384c0 14 4.66699 25.5 14 34.5
s21.333 13.5 36 13.5c12.667 0 23.834 -4.66699 33.501 -14s14.5 -20.666 14.5 -33.999v-384c0 -34.667 8 -65.834 24 -93.501s37.333 -49.167 64 -64.5s55.334 -23 86.001 -23c32 0 61.667 7.66699 89 23s49.166 36.833 65.499 64.5s24.5 58.834 24.5 93.501v384
c0 14 4 25.5 12 34.5s19 13.5 33 13.5s25.167 -4.5 33.5 -13.5z" />
    <glyph glyph-name="V" unicode="V" horiz-adv-x="672" 
d="M626.5 688c9.66699 -8.66699 14.502 -19.332 14.502 -31.999c0 -6.66699 -1.66699 -14 -5 -22l-255 -603c-4.66699 -10 -11.334 -17.667 -20.001 -23s-17.667 -8 -27 -8c-8.66699 0.666992 -16.834 3.5 -24.501 8.5s-13.834 12.167 -18.501 21.5l-255 604
c-2.66699 5.33301 -4 12.333 -4 21c0 14 5 25.333 15 34s21 13 33 13c20 0 34.667 -10.667 44 -32l218 -515l206 516c4.66699 9.33301 10.834 16.666 18.501 21.999s16.167 8 25.5 8c13.333 0 24.833 -4.33301 34.5 -13z" />
    <glyph glyph-name="W" unicode="W" horiz-adv-x="953" 
d="M915 689c10.667 -9.33301 15.9951 -21.668 15.9951 -37.001c0 -5.33301 -1 -11 -3 -17l-207 -605c-2.66699 -9.33301 -8.16699 -16.5 -16.5 -21.5s-17.166 -7.83301 -26.499 -8.5c-9.33301 0 -18.333 2.66699 -27 8s-15 13 -19 23l-156 365l-155 -365
c-4 -10 -10.333 -17.667 -19 -23s-18 -8 -28 -8c-9.33301 0.666992 -18 3.66699 -26 9s-13.333 12.333 -16 21l-207 605c-2 6 -3 11.667 -3 17c0 14.667 5.5 26.834 16.5 36.501s22.833 14.5 35.5 14.5c10.667 0 20.334 -2.83301 29.001 -8.5s14.334 -13.167 17.001 -22.5
l169 -501l145 356c4 9.33301 10 16.666 18 21.999s17 8 27 8s19 -2.66699 27 -8s14 -12.666 18 -21.999l141 -356l168 501c2.66699 10 8.33398 17.667 17.001 23s18.667 8 30 8c12.667 0 24.334 -4.66699 35.001 -14z" />
    <glyph glyph-name="X" unicode="X" horiz-adv-x="634" 
d="M584 72c6 -8 8.99902 -17.667 8.99902 -29c0 -14 -4.83301 -25.333 -14.5 -34s-20.5 -13 -32.5 -13c-16.667 0 -29.667 6.66699 -39 20l-194 260l-190 -259c-10 -14 -23 -21 -39 -21c-12 0 -22.167 4.16699 -30.5 12.5s-12.5 17.833 -12.5 28.5c0 11.333 4 22.333 12 33
l205 279l-206 277c-6.66699 8.66699 -10 18.334 -10 29.001c0 13.333 4.83301 24.666 14.5 33.999s20.834 14 33.501 14c7.33301 0 14.5 -1.66699 21.5 -5s12.833 -8.33301 17.5 -15l192 -258l190 255c11.333 14.667 24 22 38 22c12 0 22.5 -4.5 31.5 -13.5
s13.5 -19.167 13.5 -30.5c0 -10 -3.33301 -19.667 -10 -29l-208 -278z" />
    <glyph glyph-name="Y" unicode="Y" horiz-adv-x="581" 
d="M555 625l-215.002 -303v-274c0 -13.333 -4.5 -24.666 -13.5 -33.999s-19.833 -14 -32.5 -14c-13.333 0 -24.666 4.66699 -33.999 14s-14 20.666 -14 33.999v282l-214 289c-9.33301 12 -14 24 -14 36c0 13.333 5.33301 24.666 16 33.999s22.334 14 35.001 14
c15.333 0 28.333 -7.33301 39 -22l188 -260l181 259c10.667 15.333 24 23 40 23c12.667 0 23.667 -4.66699 33 -14s14 -20.666 14 -33.999c0 -10 -3 -20 -9 -30z" />
    <glyph glyph-name="Z" unicode="Z" horiz-adv-x="646" 
d="M583.5 78.5c9 -8.33301 13.499 -19.166 13.499 -32.499s-4.66699 -24.333 -14 -33s-20.666 -13 -33.999 -13h-456c-14 0 -25.833 4.83301 -35.5 14.5s-14.5 20.5 -14.5 32.5c0 10.667 3.66699 20.667 11 30l408 532h-335c-14 0 -25.5 4.33301 -34.5 13
s-13.5 19.667 -13.5 33s4.5 24.166 13.5 32.499s20.5 12.5 34.5 12.5h428c13.333 0 25.333 -4.5 36 -13.5s16 -20.167 16 -33.5c0 -9.33301 -3.66699 -19.333 -11 -30l-408 -532h361c14 0 25.5 -4.16699 34.5 -12.5z" />
    <glyph glyph-name="bracketleft" unicode="[" horiz-adv-x="403" 
d="M365 -123.5c7.33301 -7.66699 11 -17.166 11 -28.499c0 -10.667 -3.66699 -19.667 -11 -27s-16.666 -11 -27.999 -11h-218c-10.667 0 -19.834 3.66699 -27.501 11s-11.5 16.666 -11.5 27.999v812c0 11.333 3.83301 20.666 11.5 27.999s16.834 11 27.501 11h218
c11.333 0 20.666 -3.66699 27.999 -11s11 -16.666 11 -27.999s-3.66699 -20.5 -11 -27.5s-16.666 -10.5 -27.999 -10.5h-165v-735h165c11.333 0 20.666 -3.83301 27.999 -11.5z" />
    <glyph glyph-name="backslash" unicode="\" horiz-adv-x="549" 
d="M462.5 -126.5c-7 5 -12.167 11.5 -15.5 19.5l-420 849c-3.33301 6 -5 12.667 -5 20c0 11.333 4.33301 20.833 13 28.5s18 11.5 28 11.5c17.333 0 30.333 -9 39 -27l421 -849c3.33301 -8 5 -14.667 5 -20c0 -11.333 -4.66699 -20.833 -14 -28.5s-19 -11.5 -29 -11.5
c-8 0 -15.5 2.5 -22.5 7.5z" />
    <glyph glyph-name="bracketright" unicode="]" horiz-adv-x="403" 
d="M311.5 689c7.66699 -7.33301 11.5 -16.667 11.5 -28v-812c0 -11.333 -3.83301 -20.666 -11.5 -27.999s-17.167 -11 -28.5 -11h-217c-11.333 0 -20.833 3.66699 -28.5 11s-11.5 16.666 -11.5 27.999c0 10.667 3.83301 19.667 11.5 27s17.167 11 28.5 11h165v735h-165
c-11.333 0 -20.833 3.83301 -28.5 11.5s-11.5 17.167 -11.5 28.5c0 10.667 3.83301 19.667 11.5 27s17.167 11 28.5 11h217c11.333 0 20.833 -3.66699 28.5 -11z" />
    <glyph glyph-name="asciicircum" unicode="^" horiz-adv-x="576" 
d="M519.5 418c3 -6 4.50098 -12 4.50098 -18c0 -13.333 -5 -24.833 -15 -34.5s-21.667 -14.5 -35 -14.5c-18.667 0 -32 6.66699 -40 20l-145 249l-148 -249c-8 -13.333 -21 -20 -39 -20c-13.333 0 -24.833 4.83301 -34.5 14.5s-14.5 21.167 -14.5 34.5
c0 9.33301 5 21.333 15 36l156 266c6 10 14 16.833 24 20.5s23 5.5 39 5.5c17.333 0 31.166 -1.83301 41.499 -5.5s18.5 -10.5 24.5 -20.5l156 -267c4 -5.33301 7.5 -11 10.5 -17z" />
    <glyph glyph-name="underscore" unicode="_" horiz-adv-x="688" 
d="M64.5 -149c-7.66699 7.33301 -11.5 16.666 -11.5 27.999c0 10.667 3.83301 19.667 11.5 27s17.167 11 28.5 11h502c12 0 21.667 -3.66699 29 -11s11 -16.666 11 -27.999s-3.66699 -20.5 -11 -27.5s-17 -10.5 -29 -10.5h-502c-11.333 0 -20.833 3.66699 -28.5 11z" />
    <glyph glyph-name="grave" unicode="`" horiz-adv-x="245" 
d="M143 594l-91 62c-18 10 -27 23.667 -27 41c0 12 4.5 21.833 13.5 29.5s18.833 11.5 29.5 11.5c14.667 0 28.667 -6.66699 42 -20l78 -81c7.33301 -7.33301 11 -15 11 -23c0 -8.66699 -3 -15.5 -9 -20.5s-13.667 -7.5 -23 -7.5c-5.33301 0 -13.333 2.66699 -24 8z" />
    <glyph glyph-name="a" unicode="a" horiz-adv-x="614" 
d="M530.5 517.5c9 -9 13.501 -20.834 13.501 -35.501v-434c0 -13.333 -4.5 -24.666 -13.5 -33.999s-20.5 -14 -34.5 -14s-25.333 4.5 -34 13.5s-13 20.5 -13 34.5v26c-17.333 -23.333 -41 -43.166 -71 -59.499s-62.333 -24.5 -97 -24.5c-45.333 0 -86.5 11.667 -123.5 35
s-66 55.833 -87 97.5s-31.5 88.5 -31.5 140.5s10.5 98.833 31.5 140.5s49.833 74.167 86.5 97.5s77 35 121 35c35.333 0 68.166 -7.33301 98.499 -22s54.5 -33.334 72.5 -56.001v24c0 14 4.33301 25.667 13 35s20 14 34 14s25.5 -4.5 34.5 -13.5zM375.501 101.999
c24.333 16 43.333 38 57 66s20.5 59.667 20.5 95c0 34.667 -6.83301 66 -20.5 94s-32.667 50.167 -57 66.5s-52.166 24.5 -83.499 24.5s-59.166 -8 -83.499 -24s-43.333 -38 -57 -66s-20.5 -59.667 -20.5 -95s6.83301 -67 20.5 -95s32.667 -50 57 -66s52.166 -24 83.499 -24
s59.166 8 83.499 24z" />
    <glyph glyph-name="b" unicode="b" horiz-adv-x="614" 
d="M457 501c36.667 -23.333 65.499 -55.6689 86.499 -97.002s31.5 -88 31.5 -140s-10.5 -99 -31.5 -141s-49.833 -74.667 -86.5 -98s-77 -35 -121 -35c-34.667 0 -67 7.66699 -97 23s-54.333 34.333 -73 57v-29c0 -13.333 -4.5 -24.666 -13.5 -33.999s-20.5 -14 -34.5 -14
c-13.333 0 -24.5 4.5 -33.5 13.5s-13.5 20.5 -13.5 34.5v651c0 14 4.33301 25.5 13 34.5s20 13.5 34 13.5s25.5 -4.66699 34.5 -14s13.5 -20.666 13.5 -33.999v-244c16 24 39.333 44.667 70 62s63.334 26 98.001 26c45.333 0 86.333 -11.667 123 -35zM405.999 102.497
c24.667 16.333 43.834 38.667 57.501 67s20.5 59.833 20.5 94.5s-6.83301 66 -20.5 94s-32.834 50 -57.501 66s-52.334 24 -83.001 24c-31.333 0 -59.333 -8 -84 -24s-43.834 -37.833 -57.501 -65.5s-20.5 -59.167 -20.5 -94.5s6.83301 -67 20.5 -95
s32.834 -50.167 57.501 -66.5s52.667 -24.5 84 -24.5c30.667 0 58.334 8.16699 83.001 24.5z" />
    <glyph glyph-name="c" unicode="c" horiz-adv-x="514" 
d="M430.5 511c35 -16.667 52.5029 -38.002 52.5029 -64.002c0 -11.333 -3.66699 -21.5 -11 -30.5s-16.666 -13.5 -27.999 -13.5c-8.66699 0 -15.5 1.33301 -20.5 4s-11.833 7 -20.5 13c-4 4 -10.333 8.66699 -19 14c-8 4 -19.333 7.33301 -34 10s-28 4 -40 4
c-34.667 0 -65.334 -8 -92.001 -24s-47.334 -38.167 -62.001 -66.5s-22 -59.833 -22 -94.5c0 -35.333 7.16699 -67 21.5 -95s34.5 -50 60.5 -66s55.667 -24 89 -24c34.667 0 62.667 5.33301 84 16c4.66699 2.66699 11 7 19 13c6.66699 5.33301 12.5 9.33301 17.5 12
s11.167 4 18.5 4c13.333 0 23.833 -4.16699 31.5 -12.5s11.5 -19.166 11.5 -32.499c0 -14 -8.83301 -27.833 -26.5 -41.5s-41.334 -24.834 -71.001 -33.501s-61.5 -13 -95.5 -13c-50.667 0 -95.334 11.833 -134.001 35.5s-68.5 56.334 -89.5 98.001
s-31.5 88.167 -31.5 139.5s11 97.833 33 139.5s52.667 74.334 92 98.001s84.333 35.5 135 35.5c52.667 0 96.5 -8.33301 131.5 -25z" />
    <glyph glyph-name="d" unicode="d" horiz-adv-x="614" 
d="M530.5 726.5c9 -9 13.5 -20.501 13.5 -34.501v-644c0 -13.333 -4.5 -24.666 -13.5 -33.999s-20.5 -14 -34.5 -14s-25.333 4.5 -34 13.5s-13 20.5 -13 34.5v28c-16.667 -24 -40.167 -44.333 -70.5 -61s-62.833 -25 -97.5 -25c-45.333 0 -86.333 11.667 -123 35
s-65.667 55.833 -87 97.5s-32 88.5 -32 140.5s10.5 98.833 31.5 140.5s49.833 74.167 86.5 97.5s77 35 121 35c35.333 0 68 -7.33301 98 -22s54.333 -33.667 73 -57v235c0 14 4.33301 25.5 13 34.5s20 13.5 34 13.5s25.5 -4.5 34.5 -13.5zM375.5 101.999
c24.333 16 43.333 38 57 66s20.5 59.667 20.5 95c0 34.667 -6.83301 66.167 -20.5 94.5s-32.667 50.5 -57 66.5s-52.166 24 -83.499 24s-59.166 -8 -83.499 -24s-43.333 -38.167 -57 -66.5s-20.5 -59.833 -20.5 -94.5c0 -35.333 6.83301 -67 20.5 -95s32.667 -50 57 -66
s52.166 -24 83.499 -24s59.166 8 83.499 24z" />
    <glyph glyph-name="e" unicode="e" horiz-adv-x="570" 
d="M516 251.5c-9.33301 -8.33301 -20.334 -12.502 -33.001 -12.502h-352c4.66699 -48.667 23.167 -87.667 55.5 -117s71.833 -44 118.5 -44c32 0 58 4.66699 78 14s37.667 21.333 53 36c10 6 19.667 9 29 9c11.333 0 20.833 -4 28.5 -12s11.5 -17.333 11.5 -28
c0 -14 -6.66699 -26.667 -20 -38c-19.333 -19.333 -45 -35.666 -77 -48.999s-64.667 -20 -98 -20c-54 0 -101.5 11.333 -142.5 34s-72.667 54.334 -95 95.001s-33.5 86.667 -33.5 138c0 56 11.5 105.167 34.5 147.5s53.333 74.833 91 97.5s78.167 34 121.5 34
c42.667 0 82.667 -11 120 -33s67.333 -52.333 90 -91s34.334 -82 35.001 -130c-0.666992 -12 -5.66699 -22.167 -15 -30.5zM188.999 416.498c-27.333 -21 -45.335 -53.5 -54.002 -97.5h295v8c-3.33301 35.333 -19.166 64.333 -47.499 87s-60.5 34 -96.5 34
c-37.333 0 -69.666 -10.5 -96.999 -31.5z" />
    <glyph glyph-name="f" unicode="f" horiz-adv-x="390" 
d="M246.5 634c-10.333 -13.333 -15.498 -29.668 -15.498 -49.001v-70h99c13.333 0 24.166 -4.16699 32.499 -12.5s12.5 -18.833 12.5 -31.5s-4.16699 -23 -12.5 -31s-19.166 -12 -32.499 -12h-99v-380c0 -13.333 -4.5 -24.666 -13.5 -33.999s-20.5 -14 -34.5 -14
c-13.333 0 -24.5 4.66699 -33.5 14s-13.5 20.666 -13.5 33.999v380h-62c-12.667 0 -23.334 4 -32.001 12s-13 18.333 -13 31s4.33301 23.167 13 31.5s19.334 12.5 32.001 12.5h62v70c0 46.667 15 83.834 45 111.501s72.333 41.5 127 41.5c22.667 0 42.667 -4.16699 60 -12.5
s26 -20.833 26 -37.5c0 -12.667 -3.83301 -23.167 -11.5 -31.5s-16.834 -12.5 -27.501 -12.5c-2.66699 0 -10 1.33301 -22 4c-14.667 4 -27.334 6 -38.001 6c-22 0 -38.167 -6.66699 -48.5 -20z" />
    <glyph glyph-name="g" unicode="g" horiz-adv-x="627" 
d="M543.5 517.5c9 -9 13.5 -20.835 13.5 -35.502v-440c0 -54 -11.5 -99.167 -34.5 -135.5s-54.167 -63.166 -93.5 -80.499s-83.666 -26 -132.999 -26c-26.667 0 -57.834 4.66699 -93.501 14s-58.5 19 -68.5 29c-20.667 10.667 -31 24 -31 40c0 4 1.33301 9.33301 4 16
c7.33301 16.667 19.666 25 36.999 25c8.66699 0 18 -2 28 -6c53.333 -20.667 95 -31 125 -31c53.333 0 94.166 12.833 122.499 38.5s42.5 60.834 42.5 105.501v54c-14 -26 -37.5 -48.333 -70.5 -67s-67.833 -28 -104.5 -28c-46 0 -88 11.667 -126 35
s-67.833 55.833 -89.5 97.5s-32.5 88.5 -32.5 140.5s10.833 98.833 32.5 140.5s51.334 74.167 89.001 97.5s79.167 35 124.5 35c36.667 0 70.834 -8.33301 102.501 -25s56.5 -37 74.5 -61v32c0 14 4.33301 25.667 13 35s20 14 34 14s25.5 -4.5 34.5 -13.5zM385 101.498
c25.333 15.667 45.166 37.668 59.499 66.001s21.5 60.166 21.5 95.499s-7.16699 67 -21.5 95s-34.166 50 -59.499 66s-54.333 24 -87 24c-32 0 -60.667 -8 -86 -24s-45.166 -38.167 -59.499 -66.5s-21.5 -59.833 -21.5 -94.5s7.16699 -66.167 21.5 -94.5
s34.166 -50.5 59.499 -66.5s54 -24 86 -24c32.667 0 61.667 7.83301 87 23.5z" />
    <glyph glyph-name="h" unicode="h" horiz-adv-x="579" 
d="M508 315v-267.001c0 -13.333 -4.5 -24.666 -13.5 -33.999s-20.5 -14 -34.5 -14c-13.333 0 -24.5 4.66699 -33.5 14s-13.5 20.666 -13.5 33.999v267c0 86.667 -36.667 130 -110 130c-39.333 0 -72 -12.5 -98 -37.5s-39 -55.833 -39 -92.5v-267
c0 -13.333 -4.5 -24.666 -13.5 -33.999s-20.5 -14 -34.5 -14s-25.333 4.5 -34 13.5s-13 20.5 -13 34.5v644c0 13.333 4.5 24.666 13.5 33.999s20.167 14 33.5 14c14 0 25.5 -4.66699 34.5 -14s13.5 -20.666 13.5 -33.999v-253c16.667 26 40 48.167 70 66.5s62 27.5 96 27.5
c117.333 0 176 -72.667 176 -218z" />
    <glyph glyph-name="i" unicode="i" horiz-adv-x="227" 
d="M147.5 14c-9 -9.33301 -20.5 -14 -34.5 -14c-13.333 0 -24.5 4.66699 -33.5 14s-13.5 20.666 -13.5 33.999v433c0 13.333 4.5 24.666 13.5 33.999s20.167 14 33.5 14c14 0 25.5 -4.66699 34.5 -14s13.5 -20.666 13.5 -33.999v-433c0 -13.333 -4.5 -24.666 -13.5 -33.999z
M71.5 605.5c-8.33301 7 -12.5 18.167 -12.5 33.5v16c0 16 4.5 27.333 13.5 34s22.833 10 41.5 10s32.167 -3.5 40.5 -10.5s12.5 -18.167 12.5 -33.5v-16c0 -16 -4.33301 -27.333 -13 -34s-22.334 -10 -41.001 -10c-19.333 0 -33.166 3.5 -41.499 10.5z" />
    <glyph glyph-name="j" unicode="j" horiz-adv-x="273" 
d="M-7.5 -184c-8.33301 8.66699 -12.5 19 -12.5 31v9c0 22 13.667 36.333 41 43c42.667 12 64 45.333 64 100v477c0 13.333 4.5 24.666 13.5 33.999s20.5 14 34.5 14c13.333 0 24.5 -4.66699 33.5 -14s13.5 -20.666 13.5 -33.999v-501c0 -34.667 -7.16699 -65 -21.5 -91
s-33.5 -46 -57.5 -60s-49.667 -21 -77 -21c-12.667 0 -23.167 4.33301 -31.5 13zM90.5 605.5c-8.33301 7 -12.5 18.167 -12.5 33.5v16c0 16 4.5 27.333 13.5 34s22.833 10 41.5 10s32.167 -3.5 40.5 -10.5s12.5 -18.167 12.5 -33.5v-16c0 -16 -4.33301 -27.333 -13 -34
s-22.334 -10 -41.001 -10c-19.333 0 -33.166 3.5 -41.499 10.5z" />
    <glyph glyph-name="k" unicode="k" horiz-adv-x="555" 
d="M514 48c0 -13.333 -5.16602 -24.498 -15.499 -33.498s-21.166 -13.5 -32.499 -13.5c-14.667 0 -26.334 5.33301 -35.001 16l-197 209l-60 -54v-124c0 -13.333 -4.5 -24.666 -13.5 -33.999s-20.167 -14 -33.5 -14c-14 0 -25.5 4.66699 -34.5 14s-13.5 20.666 -13.5 33.999
v644c0 13.333 4.5 24.666 13.5 33.999s20.5 14 34.5 14c13.333 0 24.5 -4.66699 33.5 -14s13.5 -20.666 13.5 -33.999v-406l245 225c11.333 10 23 15 35 15c11.333 0 21.666 -4.83301 30.999 -14.5s14 -19.834 14 -30.501c0 -13.333 -6.33301 -25.333 -19 -36l-173 -154
l192 -208c10 -10.667 15 -22.334 15 -35.001z" />
    <glyph glyph-name="l" unicode="l" horiz-adv-x="253" 
d="M160 14c-9.33301 -9.33301 -20.666 -14 -33.999 -14s-24.5 4.66699 -33.5 14s-13.5 20.666 -13.5 33.999v644c0 13.333 4.66699 24.666 14 33.999s20.666 14 33.999 14s24.5 -4.66699 33.5 -14s13.5 -20.666 13.5 -33.999v-644c0 -13.333 -4.66699 -24.666 -14 -33.999z
" />
    <glyph glyph-name="m" unicode="m" horiz-adv-x="918" 
d="M847 315v-267.001c0 -14 -4.33301 -25.5 -13 -34.5s-20 -13.5 -34 -13.5s-25.5 4.66699 -34.5 14s-13.5 20.666 -13.5 33.999v266c0 87.333 -36.667 131 -110 131c-26 0 -49.5 -5.83301 -70.5 -17.5s-37.333 -27.5 -49 -47.5s-17.5 -42 -17.5 -66v-266
c0 -13.333 -4.5 -24.666 -13.5 -33.999s-20.5 -14 -34.5 -14s-25.333 4.5 -34 13.5s-13 20.5 -13 34.5v267c0 39.333 -8.33301 70.833 -25 94.5s-44.334 35.5 -83.001 35.5c-39.333 0 -71.833 -12.5 -97.5 -37.5s-38.5 -55.833 -38.5 -92.5v-267
c0 -13.333 -4.5 -24.666 -13.5 -33.999s-20.5 -14 -34.5 -14s-25.333 4.5 -34 13.5s-13 20.5 -13 34.5v428c0 13.333 4.5 24.666 13.5 33.999s20.167 14 33.5 14c14 0 25.5 -4.66699 34.5 -14s13.5 -20.666 13.5 -33.999v-35c17.333 26 40.5 47.833 69.5 65.5
s60.5 26.5 94.5 26.5c82.667 0 136.334 -36.667 161.001 -110c14.667 28 39 53.333 73 76s70 34 108 34c116.667 0 175 -72.667 175 -218z" />
    <glyph glyph-name="n" unicode="n" horiz-adv-x="589" 
d="M518 320l0.000976562 -271.999c0 -13.333 -4.5 -24.666 -13.5 -33.999s-20.5 -14 -34.5 -14c-13.333 0 -24.5 4.66699 -33.5 14s-13.5 20.666 -13.5 33.999v271c0 39.333 -9 70.666 -27 93.999s-47.333 35 -88 35c-26.667 0 -50.834 -5.83301 -72.501 -17.5
s-38.667 -27.334 -51 -47.001s-18.5 -41.167 -18.5 -64.5v-271c0 -13.333 -4.5 -24.666 -13.5 -33.999s-20.5 -14 -34.5 -14s-25.333 4.5 -34 13.5s-13 20.5 -13 34.5v428c0 13.333 4.5 24.666 13.5 33.999s20.167 14 33.5 14c14 0 25.5 -4.66699 34.5 -14
s13.5 -20.666 13.5 -33.999v-35c17.333 26.667 41.5 49.167 72.5 67.5s64.167 27.5 99.5 27.5c120 0 180 -72 180 -216z" />
    <glyph glyph-name="o" unicode="o" horiz-adv-x="606" 
d="M532 122c-23.333 -41.333 -55.166 -73.666 -95.499 -96.999s-84.833 -35 -133.5 -35s-93.167 11.667 -133.5 35s-72.166 55.666 -95.499 96.999s-35 88 -35 140s11.667 99 35 141s55.166 74.667 95.499 98s84.833 35 133.5 35s93.167 -11.667 133.5 -35
s72.166 -56 95.499 -98s35 -89 35 -141s-11.667 -98.667 -35 -140zM449.5 358.5c-15 28.333 -35.333 50.333 -61 66s-54.167 23.5 -85.5 23.5s-59.833 -7.83301 -85.5 -23.5s-46 -37.667 -61 -66s-22.5 -60.5 -22.5 -96.5c0 -35.333 7.5 -67 22.5 -95
s35.333 -49.833 61 -65.5s54.167 -23.5 85.5 -23.5s59.833 7.83301 85.5 23.5s46 37.5 61 65.5s22.5 59.667 22.5 95c0 36 -7.5 68.167 -22.5 96.5z" />
    <glyph glyph-name="p" unicode="p" horiz-adv-x="614" 
d="M457 498.5c36.667 -23 65.499 -55.168 86.499 -96.501s31.5 -88 31.5 -140s-10.5 -98.5 -31.5 -139.5s-49.833 -73.167 -86.5 -96.5s-77 -35 -121 -35c-34.667 0 -67 7.66699 -97 23s-54.333 34 -73 56v-222c0 -13.333 -4.5 -24.666 -13.5 -33.999s-20.5 -14 -34.5 -14
c-13.333 0 -24.5 4.5 -33.5 13.5s-13.5 20.5 -13.5 34.5v629c0 14 4.33301 25.667 13 35s20 14 34 14s25.5 -4.66699 34.5 -14s13.5 -21 13.5 -35v-29c16 23.333 39.333 43.333 70 60s63.334 25 98.001 25c45.333 0 86.333 -11.5 123 -34.5zM405.999 102.999
c24.667 16 43.834 37.8311 57.501 65.498s20.5 58.834 20.5 93.501s-6.83301 65.834 -20.5 93.501s-32.834 49.5 -57.501 65.5s-52.334 24 -83.001 24c-31.333 0 -59.333 -7.83301 -84 -23.5s-43.834 -37.5 -57.501 -65.5s-20.5 -59.333 -20.5 -94s6.83301 -66 20.5 -94
s32.834 -49.833 57.501 -65.5s52.667 -23.5 84 -23.5c30.667 0 58.334 8 83.001 24z" />
    <glyph glyph-name="q" unicode="q" horiz-adv-x="614" 
d="M530.5 512.5c9 -9 13.5 -20.834 13.5 -35.501v-629c0 -13.333 -4.5 -24.666 -13.5 -33.999s-20.5 -14 -34.5 -14s-25.333 4.5 -34 13.5s-13 20.5 -13 34.5v228c-16.667 -24 -40.167 -44.333 -70.5 -61s-62.833 -25 -97.5 -25c-45.333 0 -86.333 11.667 -123 35
s-65.667 55.833 -87 97.5s-32 88.5 -32 140.5s10.5 98.833 31.5 140.5s49.833 74.167 86.5 97.5s77 35 121 35c35.333 0 68 -7.33301 98 -22s54.333 -33.667 73 -57v20c0 14 4.33301 25.667 13 35s20 14 34 14s25.5 -4.5 34.5 -13.5zM375.5 101.999
c24.333 16 43.333 38 57 66s20.5 59.667 20.5 95c0 34.667 -6.83301 66.167 -20.5 94.5s-32.667 50.5 -57 66.5s-52.166 24 -83.499 24s-59.166 -8 -83.499 -24s-43.333 -38.167 -57 -66.5s-20.5 -59.833 -20.5 -94.5c0 -35.333 6.83301 -67 20.5 -95s32.667 -50 57 -66
s52.166 -24 83.499 -24s59.166 8 83.499 24z" />
    <glyph glyph-name="r" unicode="r" horiz-adv-x="413" 
d="M377 522.5c12.667 -9 19.002 -20.168 19.002 -33.501c0 -16 -4.16699 -28.167 -12.5 -36.5s-18.5 -12.5 -30.5 -12.5c-6 0 -15 2 -27 6c-14 4.66699 -25 7 -33 7c-20.667 0 -40.834 -7.16699 -60.501 -21.5s-35.667 -34 -48 -59s-18.5 -52.833 -18.5 -83.5v-241
c0 -13.333 -4.5 -24.666 -13.5 -33.999s-20.5 -14 -34.5 -14s-25.333 4.5 -34 13.5s-13 20.5 -13 34.5v428c0 13.333 4.5 24.666 13.5 33.999s20.167 14 33.5 14c14 0 25.5 -4.66699 34.5 -14s13.5 -20.666 13.5 -33.999v-51c14.667 32.667 36.667 59.167 66 79.5
s62.666 30.833 99.999 31.5c17.333 0 32.333 -4.5 45 -13.5z" />
    <glyph glyph-name="s" unicode="s" horiz-adv-x="477" 
d="M32 109c0 13.333 7.00098 24.665 21.001 33.998c6.66699 4.66699 14.334 7 23.001 7c12 0 23 -5 33 -15c20 -22.667 41.5 -39.667 64.5 -51s50.5 -17 82.5 -17c25.333 0.666992 47.666 6.5 66.999 17.5s29 28.833 29 53.5c0 22.667 -9.83301 40 -29.5 52
s-48.5 23 -86.5 33c-37.333 10 -68.333 20.5 -93 31.5s-45.5 27 -62.5 48s-25.5 48.5 -25.5 82.5c0 30 8.5 56.333 25.5 79s39.667 40.334 68 53.001s59.166 19 92.499 19c32 0 63.833 -6 95.5 -18s57.5 -30.333 77.5 -55c8 -9.33301 12 -19 12 -29
c0 -10.667 -5.33301 -21 -16 -31c-6.66699 -6 -15 -9 -25 -9c-12 0 -21.667 4 -29 12c-14 16 -31.167 28.333 -51.5 37s-42.833 13 -67.5 13c-25.333 0 -46.833 -5.16699 -64.5 -15.5s-26.5 -27.833 -26.5 -52.5c0.666992 -23.333 10.834 -40.666 30.501 -51.999
s49.834 -22.333 90.501 -33c35.333 -9.33301 64.666 -19.333 87.999 -30s43 -26.5 59 -47.5s24 -48.5 24 -82.5c0 -31.333 -9 -58.5 -27 -81.5s-41.5 -40.667 -70.5 -53s-59.833 -18.5 -92.5 -18.5c-42 0 -80.833 7.33301 -116.5 22s-65.834 38 -90.501 70
c-6 9.33301 -9 18.333 -9 27z" />
    <glyph glyph-name="t" unicode="t" horiz-adv-x="380" 
d="M213 431l-0.000976562 -298.001c0 -33.333 15 -50 45 -50c4.66699 0 11 1.16699 19 3.5s14.333 3.5 19 3.5c8.66699 0 16 -3.66699 22 -11s9 -16.666 9 -27.999c0 -14 -8 -26 -24 -36s-34 -15 -54 -15c-22 -0 -42.167 2.33301 -60.5 7s-34.666 16.5 -48.999 35.5
s-21.5 47.833 -21.5 86.5v302h-58c-12.667 0 -23.167 4.16699 -31.5 12.5s-12.5 18.833 -12.5 31.5s4.16699 23 12.5 31s18.833 12 31.5 12h58v84c0 13.333 4.5 24.666 13.5 33.999s20.5 14 34.5 14c13.333 0 24.5 -4.66699 33.5 -14s13.5 -20.666 13.5 -33.999v-84h83
c12.667 0 23.167 -4.16699 31.5 -12.5s12.5 -18.833 12.5 -31.5s-4.16699 -23 -12.5 -31s-18.833 -12 -31.5 -12h-83z" />
    <glyph glyph-name="u" unicode="u" horiz-adv-x="580" 
d="M495.5 510c9 -9.33301 13.5 -20.666 13.5 -33.999v-266c0 -69.333 -19.167 -123.166 -57.5 -161.499s-92.5 -57.5 -162.5 -57.5c-69.333 0 -123 19.167 -161 57.5s-57 92.166 -57 161.499v266c0 13.333 4.5 24.666 13.5 33.999s20.167 14 33.5 14
c14 0 25.5 -4.66699 34.5 -14s13.5 -20.666 13.5 -33.999v-266c0 -87.333 41 -131 123 -131c40.667 0 71.667 11 93 33s32 54.667 32 98v266c0 13.333 4.5 24.666 13.5 33.999s20.167 14 33.5 14c14 0 25.5 -4.66699 34.5 -14z" />
    <glyph glyph-name="v" unicode="v" horiz-adv-x="548" 
d="M503 516.5c8.66699 -8.33301 13 -18.168 13 -29.501c0 -6 -2.33301 -14.333 -7 -25l-190 -432c-4 -8.66699 -9.66699 -15.667 -17 -21s-15.333 -8.33301 -24 -9c-10.667 -1.33301 -20.5 0.666992 -29.5 6s-15.833 13.333 -20.5 24l-190 432c-3.33301 10 -5 18.333 -5 25
c0 10.667 4.33301 20.334 13 29.001s20 13 34 13c10 0 19 -2.5 27 -7.5s14.333 -12.5 19 -22.5l151 -351l151 351c9.33301 20 23.666 30 42.999 30c12.667 0 23.334 -4.16699 32.001 -12.5z" />
    <glyph glyph-name="w" unicode="w" horiz-adv-x="761" 
d="M715.5 515.5c9 -9 13.5 -20.5 13.5 -34.5c0 -4.66699 -1.33301 -11 -4 -19l-153 -432c-4 -10.667 -10.667 -18.667 -20 -24s-19.333 -7.33301 -30 -6c-18 1.33301 -31.667 11.333 -41 30l-104 272l-96 -272c-4 -9.33301 -9.66699 -16.5 -17 -21.5
s-15.333 -7.83301 -24 -8.5c-10 -1.33301 -19.833 0.833984 -29.5 6.50098s-16.167 13.5 -19.5 23.5l-155 432c-2 6 -3 12.333 -3 19c0 13.333 4.33301 24.666 13 33.999s20 14 34 14c22.667 0 37.334 -10 44.001 -30l119 -337l95 249c8 20 22.667 30 44 30
c20 0 33.667 -10 41 -30l97 -245l117 333c7.33301 20 22.666 30 45.999 30c12.667 0 23.5 -4.5 32.5 -13.5z" />
    <glyph glyph-name="x" unicode="x" horiz-adv-x="486" 
d="M463 46c0 -13.333 -5.00098 -24.832 -15.001 -34.499s-21 -14.5 -33 -14.5c-15.333 0 -28.333 7 -39 21l-134 169l-132 -169c-4.66699 -6.66699 -10.334 -11.667 -17.001 -15s-13.667 -5 -21 -5c-11.333 0 -21.833 4.16699 -31.5 12.5s-14.5 18.166 -14.5 29.499
c0 12 3.66699 22 11 30l150 187l-154 194c-6.66699 8.66699 -10 18 -10 28c0 13.333 4.83301 24.666 14.5 33.999s20.834 14 33.501 14c16 0 29 -6.66699 39 -20l137 -173l129 172c10 14 22.667 21 38 21c12.667 0 23.334 -4.16699 32.001 -12.5s13 -18.166 13 -29.499
c0 -12.667 -3.66699 -23 -11 -31l-148 -187l152 -193c7.33301 -8 11 -17.333 11 -28z" />
    <glyph glyph-name="y" unicode="y" horiz-adv-x="579" 
d="M495.5 515c9 -9.33301 13.502 -20.667 13.502 -34v-432c0 -83.333 -23 -145.666 -69 -186.999s-106.667 -62 -182 -62c-24.667 0 -49 2.33301 -73 7s-43.667 11 -59 19c-24.667 11.333 -37 26.666 -37 45.999c0 3.33301 0.666992 7.66602 2 12.999
c4 11.333 9.66699 20 17 26s15.666 9 24.999 9c5.33301 0 10.333 -1 15 -3c20.667 -9.33301 39 -16.666 55 -21.999s34.667 -8 56 -8c103.333 0 155 53 155 159v20c-18 -24 -41.167 -42.667 -69.5 -56s-60.833 -20 -97.5 -20c-55.333 0 -98.5 17.667 -129.5 53
s-46.5 81.666 -46.5 138.999v299c0 14 4.33301 25.5 13 34.5s20 13.5 34 13.5s25.5 -4.66699 34.5 -14s13.5 -20.666 13.5 -33.999v-274c0 -44 9.66699 -76.5 29 -97.5s48.666 -31.5 87.999 -31.5c38 0 69.333 12 94 36s37 55 37 93v274c0 14 4.33301 25.5 13 34.5
s20 13.5 34 13.5s25.5 -4.66699 34.5 -14z" />
    <glyph glyph-name="z" unicode="z" horiz-adv-x="482" 
d="M435 75.5c8.66699 -8.33301 13.0039 -18.8359 13.0039 -31.5029s-4.33301 -23.167 -13 -31.5s-19.334 -12.5 -32.001 -12.5h-323c-12.667 0 -23.167 4.66699 -31.5 14s-12.5 19 -12.5 29c0.666992 8.66699 2 15.834 4 21.501s5.66699 12.167 11 19.5l262 350h-217
c-12.667 0 -23.334 4.33301 -32.001 13s-13 19.334 -13 32.001s4.16699 23 12.5 31s19.166 12 32.499 12h307c12.667 0 23.167 -4.66699 31.5 -14s12.166 -20.666 11.499 -33.999c-0.666992 -6.66699 -1.83398 -12.5 -3.50098 -17.5s-5.16699 -10.5 -10.5 -16.5l-264 -352
h235c12.667 0 23.334 -4.16699 32.001 -12.5z" />
    <glyph glyph-name="braceleft" unicode="{" horiz-adv-x="412" 
d="M378.5 -147c5 -6.66699 7.50098 -13.6689 7.50098 -21.002c-0.666992 -9.33301 -4.16699 -17.166 -10.5 -23.499s-13.833 -9.5 -22.5 -9.5c-6 0 -10.333 0.333008 -13 1c-48.667 9.33301 -86.5 22.833 -113.5 40.5s-45.667 38.834 -56 63.501s-15.5 54.334 -15.5 89.001
l1 95c0 38.667 -8.5 69 -25.5 91s-41.5 33.333 -73.5 34h-4c-10.667 0 -19.667 3.66699 -27 11s-11 16.333 -11 27s3.66699 19.5 11 26.5s16.333 10.5 27 10.5h6c32 0.666992 56.167 12 72.5 34s24.5 52 24.5 90l-1 95c0 54 14.167 96 42.5 126s75.5 52.333 141.5 67
c3.33301 0.666992 7.66602 1 12.999 1c11.333 0 19.833 -3.33301 25.5 -10s8.5 -15 8.5 -25c0 -7.33301 -2.5 -14 -7.5 -20s-11.833 -10.333 -20.5 -13c-32 -10.667 -56.167 -22 -72.5 -34s-27.333 -26 -33 -42s-8.5 -37 -8.5 -63l1 -95c0 -38.667 -8.5 -70.667 -25.5 -96
s-41.167 -43 -72.5 -53c31.333 -10.667 55.5 -28.5 72.5 -53.5s25.5 -56.5 25.5 -94.5l-1 -95c0 -26.667 2.83301 -47.834 8.5 -63.501s16.5 -29.5 32.5 -41.5s40.333 -23.333 73 -34c8.66699 -3.33301 15.5 -8.33301 20.5 -15z" />
    <glyph glyph-name="bar" unicode="|" horiz-adv-x="230" 
d="M148.5 -134.5c-9 -9 -20.5 -13.5 -34.5 -13.5c-13.333 0 -24.5 4.5 -33.5 13.5s-13.5 20.5 -13.5 34.5v846c0 14 4.66699 25.5 14 34.5s21 13.5 35 13.5c13.333 0 24.333 -4.5 33 -13.5s13 -20.5 13 -34.5v-846c0 -14 -4.5 -25.5 -13.5 -34.5z" />
    <glyph glyph-name="braceright" unicode="}" horiz-adv-x="412" 
d="M386 278c7.33301 -7.33301 11 -16.3359 11 -27.0029s-3.66699 -19.5 -11 -26.5s-16.333 -10.5 -27 -10.5h-6c-32 -0.666992 -56.167 -12 -72.5 -34s-24.5 -52.333 -24.5 -91l1 -95c0 -33.333 -5.5 -61.5 -16.5 -84.5s-29.833 -43.333 -56.5 -61s-64 -33.5 -112 -47.5
c-5.33301 -1.33301 -10 -2 -14 -2c-9.33301 0 -17 4 -23 12s-9 16.333 -9 25c0 7.33301 2.5 13.833 7.5 19.5s11.833 10.167 20.5 13.5c32.667 10.667 57 21.834 73 33.501s26.833 25.5 32.5 41.5s8.5 37.333 8.5 64l-1 95c0 38.667 8.5 70.667 25.5 96s41.167 43 72.5 53
c-31.333 10.667 -55.5 28.334 -72.5 53.001s-25.5 56.334 -25.5 95.001l1 95c0 26.667 -2.83301 47.834 -8.5 63.501s-16.5 29.5 -32.5 41.5s-40.333 23.333 -73 34c-18.667 7.33301 -28 19.333 -28 36c0.666992 9.33301 4.16699 17.166 10.5 23.499s13.833 9.5 22.5 9.5
c6 0 10.333 -0.333008 13 -1c48.667 -10 86.5 -23.833 113.5 -41.5s45.667 -38.667 56 -63s15.5 -53.833 15.5 -88.5l-1 -95c0 -38.667 8.5 -69 25.5 -91s41.5 -33.333 73.5 -34h4c10.667 0 19.667 -3.66699 27 -11z" />
    <glyph glyph-name="asciitilde" unicode="~" horiz-adv-x="508" 
d="M307.5 233.5c-18.333 5.66699 -41.5 13.8311 -69.5 24.498c-4.66699 1.33301 -14.167 4.66602 -28.5 9.99902s-26.333 9.33301 -36 12s-17.5 4 -23.5 4c-8 0 -14.5 -2.33301 -19.5 -7s-7.5 -11.667 -7.5 -21c0.666992 -2 1 -4.66699 1 -8
c0 -9.33301 -3 -16.666 -9 -21.999s-13.333 -8 -22 -8c-12.667 0 -23 4.83301 -31 14.5s-12 22.5 -12 38.5c0 26.667 9.33301 47.834 28 63.501s46.334 23.5 83.001 23.5c22.667 0 60.667 -11.333 114 -34c4.66699 -1.33301 14 -4.66602 28 -9.99902s25.667 -9.33301 35 -12
s16.666 -4 21.999 -4c8 0 14.333 2.5 19 7.5s6.66699 11.833 6 20.5c-0.666992 2 -1 5.33301 -1 10c0 8.66699 3 15.667 9 21s13.333 8 22 8c12 0 22.167 -4.83301 30.5 -14.5s12.5 -22.167 12.5 -37.5c0 -27.333 -8.5 -48.833 -25.5 -64.5s-43.167 -23.5 -78.5 -23.5
c-12.667 0 -28.167 2.83301 -46.5 8.5z" />
    <glyph glyph-name="uni00A0" unicode="&#xa0;" horiz-adv-x="277" 
 />
    <glyph glyph-name="exclamdown" unicode="&#xa1;" horiz-adv-x="233" 
d="M158.5 515.5c8.33301 -9 12.5 -21.5 12.5 -37.5v-19c0 -16.667 -4.16699 -29.334 -12.5 -38.001s-20.5 -13 -36.5 -13h-11c-16 0 -28.167 4.33301 -36.5 13s-12.5 21.334 -12.5 38.001v19c0 16 4.16699 28.5 12.5 37.5s20.5 13.5 36.5 13.5h11
c16 0 28.167 -4.5 36.5 -13.5zM146 287l22.001 -399c1.33301 -16.667 -2.83398 -30.834 -12.501 -42.501s-22.5 -17.5 -38.5 -17.5s-28.833 5.83301 -38.5 17.5s-13.834 25.834 -12.501 42.501l21 399c0.666992 20.667 10.334 31 29.001 31c19.333 0 29.333 -10.333 30 -31z
" />
    <glyph glyph-name="cent" unicode="&#xa2;" horiz-adv-x="514" 
d="M467 132c-13.333 -12 -31.6689 -22.499 -55.002 -31.499s-49 -15.167 -77 -18.5v-34c0 -13.333 -4.5 -24.666 -13.5 -33.999s-20.5 -14 -34.5 -14c-13.333 0 -24.5 4.66699 -33.5 14s-13.5 20.666 -13.5 33.999v37c-61.333 12 -110.166 42.5 -146.499 91.5
s-54.5 107.833 -54.5 176.5c0 67.333 18.333 125.333 55 174s85.334 79.667 146.001 93v41c0 13.333 4.66699 24.666 14 33.999s20.666 14 33.999 14c14 0 25.333 -4.5 34 -13.5s13 -20.5 13 -34.5v-37c44 -3.33301 79.667 -13 107 -29s41 -35.333 41 -58
c0 -12 -3.83301 -22.667 -11.5 -32s-18.167 -14 -31.5 -14c-9.33301 0 -17.166 1.83301 -23.499 5.5s-12.5 8.5 -18.5 14.5s-10.667 10.333 -14 13c-14 12 -32.667 19 -56 21v-386c24.667 2.66699 45 11 61 25l16 14c6.66699 6 13 10.333 19 13s12.667 4 20 4
c13.333 0 23.833 -4.5 31.5 -13.5s11.5 -20.167 11.5 -33.5c0 -12 -6.66699 -24 -20 -36zM164.997 234.501c20.667 -33 48 -55.5 82 -67.5v371c-33.333 -11.333 -60.5 -33.5 -81.5 -66.5s-31.5 -72.5 -31.5 -118.5s10.333 -85.5 31 -118.5z" />
    <glyph glyph-name="sterling" unicode="&#xa3;" horiz-adv-x="620" 
d="M597.5 87.5c7 -8.33301 10.498 -18.5039 10.498 -30.5039c0 -14 -4.66699 -25.667 -14 -35s-24 -17.666 -44 -24.999c-26.667 -12 -56 -18 -88 -18c-24.667 0 -69.667 8 -135 24c-60 15.333 -100.667 23 -122 23c-26.667 0 -58 -5 -94 -15
c-8 -1.33301 -16.333 -4.66602 -25 -9.99902c-12 -5.33301 -20.667 -8 -26 -8c-10 0 -18.667 3.83301 -26 11.5s-11 17.167 -11 28.5c0 12 3.66699 22.333 11 31s17.666 15.667 30.999 21c26.667 8.66699 52 15.334 76 20.001c16 26 24 57.667 24 95
c0 34.667 -7.66699 75.667 -23 123h-63c-12.667 0 -23.167 4.16699 -31.5 12.5s-12.5 18.833 -12.5 31.5c0 11.333 4.16699 20.833 12.5 28.5s18.833 11.5 31.5 11.5h38c-8 30.667 -12 57.334 -12 80.001c0 43.333 9 82 27 116s44 60.333 78 79s74 28 120 28
c30.667 0 60 -4.33301 88 -13s51.667 -21 71 -37c28 -18 42 -36.333 42 -55c0 -12.667 -4.83301 -24 -14.5 -34s-21.167 -15 -34.5 -15c-6.66699 0 -13.167 1.33301 -19.5 4s-11.166 6 -14.499 10c-30.667 32.667 -69.667 49 -117 49c-39.333 0 -70.5 -13 -93.5 -39
s-34.5 -57.667 -34.5 -95c0 -18.667 4.33301 -44.667 13 -78h183c12.667 0 23.167 -4 31.5 -12s12.5 -18.333 12.5 -31c0 -12 -4.16699 -21.833 -12.5 -29.5s-18.833 -11.5 -31.5 -11.5h-156c14 -42 21 -76 21 -102c0 -38 -10.333 -74.333 -31 -109
c16.667 -0.666992 32.834 -3 48.501 -7s37.167 -10 64.5 -18c26.667 -7.33301 48 -12.833 64 -16.5s31.667 -5.5 47 -5.5c12.667 0 26.167 2.33301 40.5 7s26.5 10 36.5 16c12.667 8 24.334 12 35.001 12c12 0 21.5 -4.16699 28.5 -12.5z" />
    <glyph glyph-name="currency" unicode="&#xa4;" horiz-adv-x="543" 
d="M464 180c10.667 -10.667 15.998 -21.665 15.998 -32.998c0 -12 -5.33301 -23.667 -16 -35s-22 -17 -34 -17c-11.333 0 -22.333 5.66699 -33 17l-37 35c-28 -16 -57.667 -24 -89 -24c-33.333 0 -63.666 8.33301 -90.999 25l-37 -36
c-11.333 -10.667 -22.666 -16 -33.999 -16s-22.666 5.33301 -33.999 16s-17 22 -17 34c0 11.333 6 22.666 18 33.999l39 39c-13.333 25.333 -20 53 -20 83s6.66699 57.667 20 83l-39 39c-11.333 11.333 -17 22.666 -17 33.999c0 10.667 5.5 22 16.5 34s22.167 18 33.5 18
s22.666 -5.66699 33.999 -17l38 -37c27.333 16.667 57.333 25 90 25c31.333 0 61 -8 89 -24l37 36c10 10 21 15 33 15s23.5 -5.33301 34.5 -16s16.5 -22 16.5 -34c0 -11.333 -5.33301 -22.333 -16 -33l-38 -37c14.667 -26 22 -54.667 22 -86c0 -30 -7.33301 -58.667 -22 -86
zM331.998 235.002c15.333 18 22.998 40 22.998 66c0 27.333 -7.66699 50 -23 68s-35.333 27 -60 27c-25.333 0 -45.666 -9 -60.999 -27s-23 -40.667 -23 -68c0 -26 7.83301 -48 23.5 -66s35.834 -27 60.501 -27s44.667 9 60 27z" />
    <glyph glyph-name="yen" unicode="&#xa5;" horiz-adv-x="581" 
d="M555 625l-187.998 -271.001h88c14 0 25.5 -4 34.5 -12s13.5 -18 13.5 -30c0 -12.667 -4.5 -23 -13.5 -31s-20.5 -12 -34.5 -12l-110 1v-56h111c14 0 25.667 -4 35 -12s14 -18 14 -30c0 -12.667 -4.66699 -22.834 -14 -30.501s-21 -11.5 -35 -11.5h-111v-82
c0 -13.333 -4.83301 -24.666 -14.5 -33.999s-21.834 -14 -36.501 -14s-26.834 4.66699 -36.501 14s-14.5 20.666 -14.5 33.999v83h-100c-14 0 -25.5 4 -34.5 12s-13.5 18 -13.5 30c0 12.667 4.5 22.834 13.5 30.501s20.5 11.5 34.5 11.5h100v55l-101 1
c-14 0 -25.667 3.83301 -35 11.5s-14 17.834 -14 30.501c0 12 4.66699 22 14 30s21 12 35 12h83l-193 264c-9.33301 12 -14 24 -14 36c0 13.333 6 24.666 18 33.999s24.333 14 37 14c15.333 0 28.333 -7.33301 39 -22l186 -275l179 274c4 7.33301 9.66699 13 17 17
s15 6 23 6c12.667 0 23.667 -4.66699 33 -14s14 -20.666 14 -33.999c0 -10 -3 -20 -9 -30z" />
    <glyph glyph-name="brokenbar" unicode="&#xa6;" horiz-adv-x="237" 
d="M152.5 408.5c-9 -9 -20.499 -13.5 -34.499 -13.5c-13.333 0 -24.5 4.5 -33.5 13.5s-13.5 20.5 -13.5 34.5v303c0 14 4.66699 25.5 14 34.5s20.666 13.5 33.999 13.5c14 0 25.333 -4.5 34 -13.5s13 -20.5 13 -34.5v-303c0 -14 -4.5 -25.5 -13.5 -34.5zM152.501 -134.5
c-9 -9 -20.5 -13.5 -34.5 -13.5c-13.333 0 -24.5 4.5 -33.5 13.5s-13.5 20.5 -13.5 34.5v303c0 14 4.5 25.5 13.5 34.5s20.5 13.5 34.5 13.5c13.333 0 24.5 -4.5 33.5 -13.5s13.5 -20.5 13.5 -34.5v-303c0 -14 -4.5 -25.5 -13.5 -34.5z" />
    <glyph glyph-name="section" unicode="&#xa7;" horiz-adv-x="548" 
d="M421 152c19.333 -14.667 33.498 -30.834 42.498 -48.501s13.5 -38.5 13.5 -62.5c0 -26 -6.83301 -52.833 -20.5 -80.5s-35.667 -51.334 -66 -71.001s-69.5 -29.5 -117.5 -29.5c-41.333 0 -82.833 7.5 -124.5 22.5s-72.5 33.167 -92.5 54.5c-13.333 15.333 -20 32 -20 50
c0 12 4.5 22.5 13.5 31.5s19.833 13.5 32.5 13.5c14.667 0 27.334 -6 38.001 -18c16.667 -19.333 36.834 -35 60.501 -47s54.5 -18 92.5 -18c28.667 0 53.667 5.5 75 16.5s32 30.167 32 57.5c0 22.667 -14.333 41.167 -43 55.5s-71 28.5 -127 42.5
c-54 13.333 -94.5 33.333 -121.5 60s-40.5 61.334 -40.5 104.001c0 24 7 49.667 21 77s37.667 48 71 62c-30.667 26 -46 60.333 -46 103c0 40.667 10.333 74.834 31 102.501s46.5 48.167 77.5 61.5s62.167 20 93.5 20c74.667 0 134 -27.333 178 -82
c2 -2 3.83301 -5.66699 5.5 -11s2.5 -10.666 2.5 -15.999c0 -12 -4.33301 -22.5 -13 -31.5s-20.667 -13.167 -36 -12.5c-5.33301 0 -10 2 -14 6c-37.333 36 -79 54 -125 54c-29.333 0 -53.833 -6.83301 -73.5 -20.5s-29.5 -32.5 -29.5 -56.5
c0 -27.333 13.833 -48.333 41.5 -63s60.5 -26 98.5 -34c120.667 -26.667 181 -79.334 181 -158.001c0 -64 -30.333 -108.667 -91 -134zM235.998 218l93 -22c25.333 -0.666992 46 5.83301 62 19.5s24 30.834 24 51.501c0 16 -5.5 29.333 -16.5 40s-27.833 20 -50.5 28
l-108 26c-3.33301 0.666992 -8.33301 1 -15 1c-19.333 0 -36.333 -6.16699 -51 -18.5s-22 -28.5 -22 -48.5c0 -32.667 28 -58.334 84 -77.001z" />
    <glyph glyph-name="dieresis" unicode="&#xa8;" horiz-adv-x="413" 
d="M72 611c-8.66699 7.33301 -13 19 -13 35v15c0 30 17.333 45 52 45c19.333 0 33.333 -3.5 42 -10.5s13 -18.5 13 -34.5v-15c0 -16.667 -4.5 -28.5 -13.5 -35.5s-22.833 -10.5 -41.5 -10.5c-17.333 0 -30.333 3.66699 -39 11zM260 611
c-8.66699 7.33301 -12.999 19 -12.999 35v15c0 30 17.667 45 53 45c18.667 0 32.167 -3.5 40.5 -10.5s12.5 -18.5 12.5 -34.5v-15c0 -16.667 -4.33301 -28.5 -13 -35.5s-22.334 -10.5 -41.001 -10.5c-17.333 0 -30.333 3.66699 -39 11z" />
    <glyph glyph-name="copyright" unicode="&#xa9;" horiz-adv-x="786" 
d="M214 40.5c-54.667 31.667 -98 74.834 -130 129.501s-48 114.667 -48 180c0 66 16 126.167 48 180.5s75.333 97.333 130 129s114.334 47.5 179.001 47.5s124.334 -15.833 179.001 -47.5s98 -74.667 130 -129s48 -114.5 48 -180.5c0 -65.333 -16 -125.333 -48 -180
s-75.333 -97.834 -130 -129.501s-114.334 -47.5 -179.001 -47.5s-124.334 15.833 -179.001 47.5zM540.5 95c45 26 80.667 61.5 107 106.5s39.5 94.5 39.5 148.5s-13.167 103.5 -39.5 148.5s-62 80.5 -107 106.5s-94.167 39 -147.5 39s-102.333 -13 -147 -39
s-80.167 -61.5 -106.5 -106.5s-39.5 -94.5 -39.5 -148.5s13.167 -103.5 39.5 -148.5s61.833 -80.5 106.5 -106.5s93.667 -39 147 -39s102.5 13 147.5 39zM305 169c-32.667 17.333 -58.8359 41.668 -78.5029 73.001s-29.5 67.333 -29.5 108c0 37.333 9.33301 71.833 28 103.5
s44.334 56.834 77.001 75.501s69 28 109 28c18.667 0 37.334 -2.5 56.001 -7.5s35.334 -11.833 50.001 -20.5c6 -2.66699 10.667 -7 14 -13s5 -12.333 5 -19c0 -8 -2.66699 -15.667 -8 -23c-7.33301 -9.33301 -17 -14 -29 -14c-5.33301 0 -11.333 1.66699 -18 5
c-20.667 12 -44 18 -70 18c-40 0 -73.167 -12.833 -99.5 -38.5s-39.5 -57.167 -39.5 -94.5c0 -40 13.167 -72.167 39.5 -96.5s59.5 -36.5 99.5 -36.5c24 0 47.333 5.66699 70 17c6.66699 3.33301 12.667 5 18 5c12 0 21.667 -4.66699 29 -14
c5.33301 -7.33301 8 -15.333 8 -24c0 -6.66699 -1.66699 -12.834 -5 -18.501s-8 -9.83398 -14 -12.501c-32 -18 -67.333 -27 -106 -27c-38 0 -73.333 8.66699 -106 26z" />
    <glyph glyph-name="ordfeminine" unicode="&#xaa;" horiz-adv-x="352" 
d="M311.5 705c7.66699 -6.66699 11.501 -14.666 11.501 -23.999v-246c0 -10 -4 -18.167 -12 -24.5s-17.667 -9.5 -29 -9.5c-12 0 -21.667 3.33301 -29 10s-11 14.667 -11 24v23c-10 -19.333 -23.667 -35.333 -41 -48s-37 -19 -59 -19c-40.667 0 -72 16.167 -94 48.5
s-33 73.166 -33 122.499c0 45.333 12.667 83 38 113s59 45 101 45c41.333 0 70.666 -17.667 87.999 -53v14c0 8.66699 3.83301 16.5 11.5 23.5s17.167 10.5 28.5 10.5c12 0 21.833 -3.33301 29.5 -10zM224.501 483.501c14.333 17.667 21.5 41.5 21.5 71.5
c0 30.667 -6.83301 55 -20.5 73s-32.167 27 -55.5 27c-20 0 -37.333 -9.16699 -52 -27.5s-22 -40.166 -22 -65.499c0 -30.667 6.33301 -55.834 19 -75.501s31 -29.5 55 -29.5c22 0 40.167 8.83301 54.5 26.5z" />
    <glyph glyph-name="guillemotleft" unicode="&#xab;" horiz-adv-x="473" 
d="M429 121c6 -8.66699 9.00098 -18 9.00098 -28c0 -12.667 -4.83301 -23 -14.5 -31s-19.5 -12 -29.5 -12c-13.333 0 -24 5.66699 -32 17l-123 170c-6 7.33301 -9 15.666 -9 24.999c0 8.66699 3 16.334 9 23.001l125 169c7.33301 11.333 17.666 17 30.999 17
c10.667 0 20.5 -3.83301 29.5 -11.5s13.5 -17.5 13.5 -29.5c0 -8 -3.66699 -17.667 -11 -29l-103 -139zM217.001 121c6 -8.66699 9.00098 -18 9.00098 -28c0 -12.667 -4.83301 -23 -14.5 -31s-19.5 -12 -29.5 -12c-13.333 0 -24 5.66699 -32 17l-123 170
c-6 7.33301 -9 15.666 -9 24.999c0 8.66699 3 16.334 9 23.001l125 169c7.33301 11.333 17.666 17 30.999 17c10.667 0 20.5 -3.83301 29.5 -11.5s13.5 -17.5 13.5 -29.5c0 -8 -3.66699 -17.667 -11 -29l-103 -139z" />
    <glyph glyph-name="logicalnot" unicode="&#xac;" horiz-adv-x="669" 
d="M607 392c8 -8 12.001 -18.333 12.001 -31v-194c0 -14.667 -4.83301 -26.5 -14.5 -35.5s-22.167 -13.5 -37.5 -13.5c-14.667 0 -26.834 4.5 -36.501 13.5s-14.5 20.833 -14.5 35.5v142h-424c-12 0 -22 4.5 -30 13.5s-12 20.5 -12 34.5c0 13.333 4 24.5 12 33.5
s18 13.5 30 13.5h484c12.667 0 23 -4 31 -12z" />
    <glyph glyph-name="uni00AD" unicode="&#xad;" horiz-adv-x="394" 
d="M67 253.5c-9.33301 9 -14 20.5 -14 34.5c0 13.333 4.66699 24.333 14 33s20.666 13 33.999 13h192c13.333 0 24.5 -4.5 33.5 -13.5s13.5 -20.5 13.5 -34.5c0 -13.333 -4.5 -24.333 -13.5 -33s-20.167 -13 -33.5 -13h-192c-13.333 0 -24.666 4.5 -33.999 13.5z" />
    <glyph glyph-name="registered" unicode="&#xae;" horiz-adv-x="508" 
d="M366.5 679c34.333 -20 61.666 -47.333 81.999 -82s30.5 -72.334 30.5 -113.001c0 -41.333 -10.167 -79.166 -30.5 -113.499s-47.666 -61.5 -81.999 -81.5s-71.833 -30 -112.5 -30s-78.167 10 -112.5 30s-61.666 47.167 -81.999 81.5s-30.5 72.166 -30.5 113.499
c0 40.667 10.167 78.334 30.5 113.001s47.666 62 81.999 82s71.833 30 112.5 30s78.167 -10 112.5 -30zM340.5 334c26.333 15.333 47.166 36.166 62.499 62.499s23 55.5 23 87.5s-7.66699 61.167 -23 87.5s-36.166 47.166 -62.499 62.499s-55.166 23 -86.499 23
s-60.166 -7.66699 -86.499 -23s-47.166 -36.166 -62.499 -62.499s-23 -55.5 -23 -87.5s7.66699 -61.167 23 -87.5s36.166 -47.166 62.499 -62.499s55.166 -23 86.499 -23s60.166 7.66699 86.499 23zM347 381c0 -3.33301 -0.99707 -6.66797 -2.99707 -10.001
c-4.66699 -5.33301 -11 -8 -19 -8c-6.66699 0 -11.334 0.666992 -14.001 2c-8 2.66699 -14.667 8.83398 -20 18.501s-8 22.834 -8 39.501c0 22.667 -11.333 34 -34 34h-34v-70c0 -7.33301 -2.16699 -13.166 -6.5 -17.499s-9.83301 -6.5 -16.5 -6.5
s-12.334 2.16699 -17.001 6.5s-7 10.166 -7 17.499v196c0 5.33301 2 9.83301 6 13.5s8.33301 5.5 13 5.5h80c22 0 40 -6.5 54 -19.5s21 -30.167 21 -51.5c0 -12.667 -3.83301 -23.834 -11.5 -33.501s-17.834 -17.5 -30.501 -23.5c8 -5.33301 14.667 -12.166 20 -20.499
s8 -16.833 8 -25.5c0.666992 -9.33301 1.66699 -16.333 3 -21s4 -8.33398 8 -11.001c5.33301 -3.33301 8 -8.33301 8 -15zM286.003 505.498c7.33301 5.66699 11.001 13.5 11.001 23.5c0 9.33301 -3.33301 16.333 -10 21s-15.667 7 -27 7h-45v-60h43
c11.333 0 20.666 2.83301 27.999 8.5z" />
    <glyph glyph-name="macron" unicode="&#xaf;" horiz-adv-x="423" 
d="M61 599c-7.33301 6.66699 -11 16 -11 28c0 11.333 3.5 20.166 10.5 26.499s17.167 9.5 30.5 9.5h241c13.333 0 23.5 -3.16699 30.5 -9.5s10.5 -15.166 10.5 -26.499c0 -12 -3.5 -21.333 -10.5 -28s-17.167 -10 -30.5 -10h-241c-12.667 0 -22.667 3.33301 -30 10z" />
    <glyph glyph-name="degree" unicode="&#xb0;" horiz-adv-x="368" 
d="M104.5 421c-23.667 14 -42.334 32.833 -56.001 56.5s-20.5 49.167 -20.5 76.5c0 28 6.83301 53.833 20.5 77.5s32.334 42.5 56.001 56.5s50.167 21 79.5 21s55.833 -7 79.5 -21s42.167 -32.833 55.5 -56.5s20 -49.5 20 -77.5c0 -27.333 -6.66699 -52.833 -20 -76.5
s-31.833 -42.5 -55.5 -56.5s-50.167 -21 -79.5 -21s-55.833 7 -79.5 21zM241.5 493c15.667 17.333 23.5 37.666 23.5 60.999s-7.83301 43.833 -23.5 61.5s-34.834 26.5 -57.501 26.5c-23.333 0 -42.666 -8.5 -57.999 -25.5s-23 -37.833 -23 -62.5
c0 -23.333 7.66699 -43.666 23 -60.999s34.666 -26 57.999 -26c22.667 0 41.834 8.66699 57.501 26z" />
    <glyph glyph-name="plusminus" unicode="&#xb1;" horiz-adv-x="555" 
d="M58 298c-8.66699 8.66699 -13 19.332 -13 31.999s4.33301 23 13 31s19.334 12 32.001 12h143v107c0 14.667 4.83301 26.834 14.5 36.501s22.167 14.5 37.5 14.5c14.667 0 26.667 -4.66699 36 -14s14 -21.333 14 -36v-108h142c13.333 0 24.166 -4.16699 32.499 -12.5
s12.5 -19.166 12.5 -32.499c0 -12.667 -4.16699 -23 -12.5 -31s-19.166 -12 -32.499 -12h-142v-92c0 -14.667 -4.66699 -26.834 -14 -36.501s-21.666 -14.5 -36.999 -14.5c-14.667 0 -26.834 4.66699 -36.501 14s-14.5 21.333 -14.5 36v93h-143
c-12.667 0 -23.334 4.33301 -32.001 13zM499 75.998c8.66699 -8.66699 12.999 -19.332 12.999 -31.999s-4.33301 -23.334 -13 -32.001s-19.334 -13 -32.001 -13h-378c-13.333 0 -24.333 4.33301 -33 13s-13 19.334 -13 32.001c0 13.333 4.33301 24.166 13 32.499
s19.334 12.5 32.001 12.5h379c12.667 0 23.334 -4.33301 32.001 -13z" />
    <glyph glyph-name="uni00B2" unicode="&#xb2;" horiz-adv-x="344" 
d="M284.5 479.5c6.33301 -6.33301 9.49902 -14.168 9.49902 -23.501s-3.16699 -17.166 -9.5 -23.499s-14.5 -9.5 -24.5 -9.5h-172c-11.333 0 -20.5 3.5 -27.5 10.5s-10.5 15.833 -10.5 26.5c0 10 5.33301 21 16 33l78 77c20.667 21.333 36.5 39.833 47.5 55.5
s16.5 31.167 16.5 46.5c0 12 -3.66699 21.5 -11 28.5s-17.666 10.5 -30.999 10.5c-9.33301 0 -18.5 -2.83301 -27.5 -8.5s-16.167 -13.167 -21.5 -22.5c-6.66699 -9.33301 -15.667 -14 -27 -14s-20.333 3.16699 -27 9.5s-10 13.833 -10 22.5
c0 12.667 5.83301 25.667 17.5 39s27 24.166 46 32.499s38.5 12.5 58.5 12.5c38 0 66.833 -10.667 86.5 -32s29.5 -46.666 29.5 -75.999c0 -22 -6.5 -42.5 -19.5 -61.5s-32.167 -41.5 -57.5 -67.5l-58 -56h104c10 0 18.167 -3.16699 24.5 -9.5z" />
    <glyph glyph-name="uni00B3" unicode="&#xb3;" horiz-adv-x="338" 
d="M268 611.5c18.667 -19 28 -43.835 28 -74.502c0 -37.333 -13.167 -66.833 -39.5 -88.5s-57.166 -32.5 -92.499 -32.5c-40 0 -70.333 7.33301 -91 22c-12 8 -18 18.333 -18 31c0 10 3.16699 18.333 9.5 25s14.5 10 24.5 10c7.33301 0 14.333 -2.66699 21 -8
c16 -10 32 -15 48 -15c17.333 0 32.333 4.83301 45 14.5s19 22.834 19 39.501c0 14 -5.33301 25 -16 33s-24.334 12 -41.001 12c-4.66699 0 -9.66699 -0.666992 -15 -2l-12 -3c-12 -4 -22.333 -6 -31 -6c-7.33301 0 -14 3 -20 9s-9 13 -9 21
c0 12.667 3.33301 21.334 10 26.001l94 82h-88c-10 0 -18.333 3.33301 -25 10s-10 14.667 -10 24c0 10 3.33301 18 10 24s15 9 25 9h149c11.333 0 20.5 -3.33301 27.5 -10s10.5 -15.334 10.5 -26.001v-3c0 -11.333 -3.33301 -19.666 -10 -24.999l-82 -69
c34 -0.666992 60.333 -10.5 79 -29.5z" />
    <glyph glyph-name="acute" unicode="&#xb4;" horiz-adv-x="269" 
d="M71 601c-6 4.66699 -8.66797 11.001 -8.00098 19.001c0 5.33301 2 11.333 6 18l59 99c5.33301 9.33301 11.833 17 19.5 23s16.5 9 26.5 9c14.667 0 25.834 -3.83301 33.501 -11.5s11.167 -17.834 10.5 -30.501c0 -12 -5 -23.667 -15 -35l-75 -82
c-10.667 -10.667 -24 -16 -40 -16c-5.33301 0 -11 2.33301 -17 7z" />
    <glyph glyph-name="uni00B5" unicode="&#xb5;" horiz-adv-x="584" 
d="M500.5 501c9 -9.33301 13.499 -20.666 13.499 -33.999v-419c0 -13.333 -4.5 -24.666 -13.5 -33.999s-20.167 -14 -33.5 -14c-14 0 -25.5 4.66699 -34.5 14s-13.5 20.666 -13.5 33.999v37c-10.667 -22 -29.5 -43.333 -56.5 -64s-58.5 -31 -94.5 -31c-16 0 -33 4 -51 12
s-32 19 -42 33v-144c0 -15.333 -4 -27.166 -12 -35.499s-19.667 -12.5 -35 -12.5s-27 4.16699 -35 12.5s-12 20.166 -12 35.499l-1 576c0 13.333 4.5 24.666 13.5 33.999s20.5 14 34.5 14c13.333 0 24.5 -4.66699 33.5 -14s13.5 -20.666 13.5 -33.999v-246
c0 -43.333 8.33301 -78 25 -104s44.334 -39 83.001 -39c25.333 0 48.5 6.5 69.5 19.5s37.333 30.5 49 52.5s17.5 45.667 17.5 71v246c0 13.333 4.5 24.666 13.5 33.999s20.5 14 34.5 14c13.333 0 24.5 -4.66699 33.5 -14z" />
    <glyph glyph-name="paragraph" unicode="&#xb6;" horiz-adv-x="628" 
d="M532.5 690.5c6.33301 -6.33301 9.49902 -14.501 9.49902 -24.501v-627c0 -12.667 -3.66699 -22.334 -11 -29.001s-15.666 -10 -24.999 -10c-10 0 -18.833 3.33301 -26.5 10s-11.5 16.334 -11.5 29.001v597h-76v-570c0 -41.333 -12 -73 -36 -95s-54.667 -33 -92 -33
c-15.333 0 -30.5 2.33301 -45.5 7s-25.833 10.334 -32.5 17.001c-9.33301 6 -14 15.333 -14 28c0 7.33301 2.33301 14.333 7 21c6 8.66699 14.667 13 26 13c6 0 10.333 -0.666992 13 -2c18.667 -6.66699 33 -10 43 -10c18 0 32 5.83301 42 17.5s15 28.5 15 50.5v198h-49
c-80.667 0.666992 -139 17.5 -175 50.5s-54 85.5 -54 157.5c0 76.667 20.833 131.5 62.5 164.5s109.167 49.5 202.5 49.5h203c10 0 18.167 -3.16699 24.5 -9.5z" />
    <glyph glyph-name="periodcentered" unicode="&#xb7;" horiz-adv-x="211" 
d="M62.5 256.5c-9 9 -13.5 21.5 -13.5 37.5v19c0 16.667 4.5 29.334 13.5 38.001s21.5 13 37.5 13h10c16.667 0 29.334 -4.33301 38.001 -13s13 -21.334 13 -38.001v-19c0 -16 -4.33301 -28.5 -13 -37.5s-21.334 -13.5 -38.001 -13.5h-10c-16 0 -28.5 4.5 -37.5 13.5z" />
    <glyph glyph-name="cedilla" unicode="&#xb8;" horiz-adv-x="268" 
d="M64 -136c-13.333 8 -20 17.334 -20 28.001c0 9.33301 3.33301 17.666 10 24.999l82 107h57l-59 -145c-6.66699 -18 -18 -27 -34 -27c-10.667 0 -22.667 4 -36 12z" />
    <glyph glyph-name="uni00B9" unicode="&#xb9;" horiz-adv-x="279" 
d="M197 767.5c7.33301 -7.66699 11.002 -17.498 11.002 -29.498v-267c0 -11.333 -3.33301 -20.5 -10 -27.5s-15.334 -10.5 -26.001 -10.5s-19.5 3.5 -26.5 10.5s-10.5 16.167 -10.5 27.5l-1 213l-37 -24c-9.33301 -6 -18 -9 -26 -9c-10.667 0 -19.167 4.16699 -25.5 12.5
s-9.5 17.166 -9.5 26.499c0 13.333 6.66699 24 20 32l88 51c8.66699 4.66699 17 7 25 7c11.333 -0.666992 20.666 -4.83398 27.999 -12.501z" />
    <glyph glyph-name="ordmasculine" unicode="&#xba;" horiz-adv-x="349" 
d="M310.5 469c-13.667 -24 -32.5 -42.833 -56.5 -56.5s-50.667 -20.5 -80 -20.5s-55.833 6.83301 -79.5 20.5s-42.334 32.5 -56.001 56.5s-20.5 50.667 -20.5 80c0 30 6.83301 57.333 20.5 82s32.334 44 56.001 58s50.167 21 79.5 21s56 -7 80 -21s42.833 -33.333 56.5 -58
s20.5 -52 20.5 -82c0 -29.333 -6.83301 -56 -20.5 -80zM232 614.5c-14.667 17 -34 25.5 -58 25.5s-43.167 -8.5 -57.5 -25.5s-21.5 -38.833 -21.5 -65.5c0 -25.333 7.16699 -46.166 21.5 -62.499s33.5 -24.5 57.5 -24.5s43.333 8.16699 58 24.5s22 37.166 22 62.499
c0 26.667 -7.33301 48.5 -22 65.5z" />
    <glyph glyph-name="guillemotright" unicode="&#xbb;" horiz-adv-x="476" 
d="M458 259c0 -9.33301 -2.66699 -17.001 -8 -23.001l-125 -169c-8 -11.333 -18.667 -17 -32 -17c-10 0 -19.5 3.83301 -28.5 11.5s-13.5 17.167 -13.5 28.5c0 9.33301 3.66699 19 11 29l103 140l-105 141c-6.66699 7.33301 -10 16.333 -10 27c0 13.333 4.83301 24 14.5 32
s19.5 12 29.5 12c13.333 0 24.333 -6 33 -18l123 -169c5.33301 -7.33301 8 -15.666 8 -24.999zM242 258.999c0 -9.33301 -2.66699 -17.001 -8 -23.001l-125 -169c-8 -11.333 -18.667 -17 -32 -17c-10 0 -19.5 3.83301 -28.5 11.5s-13.5 17.167 -13.5 28.5
c0 9.33301 3.66699 19 11 29l103 140l-105 141c-6.66699 7.33301 -10 16.333 -10 27c0 13.333 4.83301 24 14.5 32s19.5 12 29.5 12c13.333 0 24.333 -6 33 -18l123 -169c5.33301 -7.33301 8 -15.666 8 -24.999z" />
    <glyph glyph-name="onequarter" unicode="&#xbc;" horiz-adv-x="769" 
d="M205 694.5c7.33301 -7.66699 11.002 -17.498 11.002 -29.498v-267c0 -11.333 -3.33301 -20.5 -10 -27.5s-15.334 -10.5 -26.001 -10.5s-19.5 3.5 -26.5 10.5s-10.5 16.167 -10.5 27.5l-1 213l-37 -24c-9.33301 -6 -18 -9 -26 -9c-10.667 0 -19.167 4.16699 -25.5 12.5
s-9.5 17.166 -9.5 26.499c0 13.333 6.66699 24 20 32l88 51c8.66699 4.66699 17 7 25 7c11.333 -0.666992 20.666 -4.83398 27.999 -12.501zM143.502 9.00195c-9 7.33301 -13.5 16.667 -13.5 28c0 7.33301 2.33301 15.666 7 24.999l411 621c9.33301 12.667 20.333 19 33 19
c10 0 19.5 -3.66699 28.5 -11s13.5 -16.666 13.5 -27.999c0 -8 -2.66699 -16.333 -8 -25l-410 -621c-9.33301 -12.667 -20.333 -19 -33 -19c-10 0 -19.5 3.66699 -28.5 11zM717.002 138.503c6 -5.66699 9 -13.832 9 -24.499s-3 -18.834 -9 -24.501s-14.333 -8.5 -25 -8.5
h-26v-46c0 -10.667 -3.5 -19.5 -10.5 -26.5s-15.833 -10.5 -26.5 -10.5s-19.5 3.5 -26.5 10.5s-10.5 15.833 -10.5 26.5v46h-125c-12 0 -22.167 3.83301 -30.5 11.5s-12.5 17.5 -12.5 29.5c0 10 3 19 9 27l156 188c8.66699 11.333 20.667 17 36 17c12 0 21.833 -4 29.5 -12
s11.5 -18 11.5 -30v-165h26c10.667 0 19 -2.83301 25 -8.5zM592.002 147.005v93l-79 -93h79z" />
    <glyph glyph-name="onehalf" unicode="&#xbd;" horiz-adv-x="769" 
d="M205 694.5c7.33301 -7.66699 11.002 -17.498 11.002 -29.498v-267c0 -11.333 -3.33301 -20.5 -10 -27.5s-15.334 -10.5 -26.001 -10.5s-19.5 3.5 -26.5 10.5s-10.5 16.167 -10.5 27.5l-1 213l-37 -24c-9.33301 -6 -18 -9 -26 -9c-10.667 0 -19.167 4.16699 -25.5 12.5
s-9.5 17.166 -9.5 26.499c0 13.333 6.66699 24 20 32l88 51c8.66699 4.66699 17 7 25 7c11.333 -0.666992 20.666 -4.83398 27.999 -12.501zM125.502 9.00195c-9 7.33301 -13.5 16.667 -13.5 28c0 7.33301 2.33301 15.666 7 24.999l411 621c9.33301 12.667 20.333 19 33 19
c10 0 19.5 -3.66699 28.5 -11s13.5 -16.666 13.5 -27.999c0 -8 -2.66699 -16.333 -8 -25l-410 -621c-9.33301 -12.667 -20.333 -19 -33 -19c-10 0 -19.5 3.66699 -28.5 11zM716.502 56.5029c6.33301 -6.33301 9.49902 -14.168 9.49902 -23.501
s-3.16699 -17.166 -9.5 -23.499s-14.5 -9.5 -24.5 -9.5h-172c-11.333 0 -20.5 3.5 -27.5 10.5s-10.5 15.833 -10.5 26.5c0 10 5.33301 21 16 33l78 77c20.667 21.333 36.5 39.833 47.5 55.5s16.5 31.167 16.5 46.5c0 12 -3.66699 21.5 -11 28.5s-17.666 10.5 -30.999 10.5
c-9.33301 0 -18.5 -2.83301 -27.5 -8.5s-16.167 -13.167 -21.5 -22.5c-6.66699 -9.33301 -15.667 -14 -27 -14s-20.333 3.16699 -27 9.5s-10 13.833 -10 22.5c0 12.667 5.83301 25.667 17.5 39s27 24.166 46 32.499s38.5 12.5 58.5 12.5c38 0 66.833 -10.667 86.5 -32
s29.5 -46.666 29.5 -75.999c0 -22 -6.5 -42.5 -19.5 -61.5s-32.167 -41.5 -57.5 -67.5l-58 -56h104c10 0 18.167 -3.16699 24.5 -9.5z" />
    <glyph glyph-name="threequarters" unicode="&#xbe;" horiz-adv-x="799" 
d="M263 538.5c18.667 -19 28 -43.835 28 -74.502c0 -37.333 -13.167 -66.833 -39.5 -88.5s-57.166 -32.5 -92.499 -32.5c-40 0 -70.333 7.33301 -91 22c-12 8 -18 18.333 -18 31c0 10 3.16699 18.333 9.5 25s14.5 10 24.5 10c7.33301 0 14.333 -2.66699 21 -8
c16 -10 32 -15 48 -15c17.333 0 32.333 4.83301 45 14.5s19 22.834 19 39.501c0 14 -5.33301 25 -16 33s-24.334 12 -41.001 12c-4.66699 0 -9.66699 -0.666992 -15 -2l-12 -3c-12 -4 -22.333 -6 -31 -6c-7.33301 0 -14 3 -20 9s-9 13 -9 21
c0 12.667 3.33301 21.334 10 26.001l94 82h-88c-10 0 -18.333 3.33301 -25 10s-10 14.667 -10 24c0 10 3.33301 18 10 24s15 9 25 9h149c11.333 0 20.5 -3.33301 27.5 -10s10.5 -15.334 10.5 -26.001v-3c0 -11.333 -3.33301 -19.666 -10 -24.999l-82 -69
c34 -0.666992 60.333 -10.5 79 -29.5zM165.5 8.99805c-9 7.33301 -13.5 16.667 -13.5 28c0 7.33301 2.33301 15.666 7 24.999l411 621c9.33301 12.667 20.333 19 33 19c10 0 19.5 -3.66699 28.5 -11s13.5 -16.666 13.5 -27.999c0 -8 -2.66699 -16.333 -8 -25l-410 -621
c-9.33301 -12.667 -20.333 -19 -33 -19c-10 0 -19.5 3.66699 -28.5 11zM747 138.499c6 -5.66699 9 -13.832 9 -24.499s-3 -18.834 -9 -24.501s-14.333 -8.5 -25 -8.5h-26v-46c0 -10.667 -3.5 -19.5 -10.5 -26.5s-15.833 -10.5 -26.5 -10.5s-19.5 3.5 -26.5 10.5
s-10.5 15.833 -10.5 26.5v46h-125c-12 0 -22.167 3.83301 -30.5 11.5s-12.5 17.5 -12.5 29.5c0 10 3 19 9 27l156 188c8.66699 11.333 20.667 17 36 17c12 0 21.833 -4 29.5 -12s11.5 -18 11.5 -30v-165h26c10.667 0 19 -2.83301 25 -8.5zM622 147.001v93l-79 -93h79z" />
    <glyph glyph-name="questiondown" unicode="&#xbf;" horiz-adv-x="506" 
d="M336 484v-19.001c0 -16 -4.33301 -28.5 -13 -37.5s-21 -13.5 -37 -13.5h-10c-16 0 -28.333 4.5 -37 13.5s-13 21.5 -13 37.5v19c0 16.667 4.33301 29.334 13 38.001s21 13 37 13h10c33.333 0 50 -17 50 -51zM317.5 175.999c-9 -9.33301 -20.5 -13.9961 -34.5 -13.9961
c-44.667 -1.33301 -81 -13.833 -109 -37.5s-42 -57.5 -42 -101.5c0 -38 12.833 -69.5 38.5 -94.5s57.5 -37.5 95.5 -37.5c22 0 42.667 4.5 62 13.5s36.666 21.167 51.999 36.5c12 12 25 18 39 18c9.33301 0 18.333 -3 27 -9c14 -10 21 -22.667 21 -38
c0 -10.667 -4.66699 -21.334 -14 -32.001c-23.333 -26 -51.166 -46.333 -83.499 -61s-66.833 -22 -103.5 -22c-42.667 0 -81.5 9.66699 -116.5 29s-62.667 46.166 -83 80.499s-30.5 73.166 -30.5 116.499c0 40 8.66699 75.5 26 106.5s41.333 56 72 75
s65.334 30.5 104.001 34.5c1.33301 0 1.66602 0.166992 0.999023 0.5s-1.66699 0.166016 -3 -0.500977v66c0 13.333 4.5 24.666 13.5 33.999s20.167 14 33.5 14c14 0 25.5 -4.66699 34.5 -14s13.5 -20.666 13.5 -33.999v-94c0 -14 -4.5 -25.667 -13.5 -35z" />
    <glyph glyph-name="Agrave" unicode="&#xc0;" horiz-adv-x="642" 
d="M624 43c0 -13.333 -4.49902 -24.335 -13.499 -33.002s-19.5 -13 -31.5 -13c-9.33301 0 -17.833 2.83301 -25.5 8.5s-13.834 13.5 -18.501 23.5l-62 147h-309l-61 -148c-3.33301 -10 -8.83301 -17.667 -16.5 -23s-16.167 -8 -25.5 -8c-14 0 -24.667 3.66699 -32 11
s-11 17.333 -11 30c0 2.66699 0.666992 8 2 16l255 618c4.66699 10.667 11.167 18.834 19.5 24.501s17.833 7.83398 28.5 6.50098c10 0 19 -2.66699 27 -8s13.667 -13 17 -23l254 -610c2 -6 3 -12.333 3 -19zM435.001 266.998l-117 280l-116 -280h233zM299.001 750.998
l-99.002 51c-9.33301 5.33301 -16.666 11.833 -21.999 19.5s-8 15.834 -8 24.501c0 11.333 4.5 21 13.5 29s19.167 12 30.5 12c12.667 0 26.334 -6 41.001 -18l87 -73c8 -6.66699 12 -14.334 12 -23.001s-2.83301 -15.667 -8.5 -21s-13.5 -8 -23.5 -8
c-6 0 -13.667 2.33301 -23 7z" />
    <glyph glyph-name="Aacute" unicode="&#xc1;" horiz-adv-x="642" 
d="M624 43c0 -13.333 -4.49902 -24.335 -13.499 -33.002s-19.5 -13 -31.5 -13c-9.33301 0 -17.833 2.83301 -25.5 8.5s-13.834 13.5 -18.501 23.5l-62 147h-309l-61 -148c-3.33301 -10 -8.83301 -17.667 -16.5 -23s-16.167 -8 -25.5 -8c-14 0 -24.667 3.66699 -32 11
s-11 17.333 -11 30c0 2.66699 0.666992 8 2 16l255 618c4.66699 10.667 11.167 18.834 19.5 24.501s17.833 7.83398 28.5 6.50098c10 0 19 -2.66699 27 -8s13.667 -13 17 -23l254 -610c2 -6 3 -12.333 3 -19zM435.001 266.998l-117 280l-116 -280h233zM300.501 749.498
c-5.66699 5 -8.50098 11.832 -8.50098 20.499s4 16.334 12 23.001l88 74c14 11.333 27.333 17 40 17c11.333 0 21.5 -4 30.5 -12s13.5 -17.667 13.5 -29c0 -8.66699 -2.66699 -17 -8 -25s-12.666 -14.333 -21.999 -19l-99 -51c-8 -4 -15.667 -6 -23 -6
c-10 0 -17.833 2.5 -23.5 7.5z" />
    <glyph glyph-name="Acircumflex" unicode="&#xc2;" horiz-adv-x="642" 
d="M624 43c0 -13.333 -4.49902 -24.335 -13.499 -33.002s-19.5 -13 -31.5 -13c-9.33301 0 -17.833 2.83301 -25.5 8.5s-13.834 13.5 -18.501 23.5l-62 147h-309l-61 -148c-3.33301 -10 -8.83301 -17.667 -16.5 -23s-16.167 -8 -25.5 -8c-14 0 -24.667 3.66699 -32 11
s-11 17.333 -11 30c0 2.66699 0.666992 8 2 16l255 618c4.66699 10.667 11.167 18.834 19.5 24.501s17.833 7.83398 28.5 6.50098c10 0 19 -2.66699 27 -8s13.667 -13 17 -23l254 -610c2 -6 3 -12.333 3 -19zM435.001 266.998l-117 280l-116 -280h233zM460.001 769.998
c0 -5.33301 -2.5 -10.1699 -7.5 -14.5029s-10.833 -6.5 -17.5 -6.5c-4.66699 0 -10.667 1.83301 -18 5.5s-15 7.83398 -23 12.501l-73 47l-70 -47c-8 -5.33301 -15.5 -9.66602 -22.5 -12.999s-13.167 -5 -18.5 -5c-6.66699 0 -12.5 2.16699 -17.5 6.5
s-7.5 9.16602 -7.5 14.499c0 4 1 7.83301 3 11.5s5 7.83398 9 12.501l69 76c7.33301 8.66699 14.666 14.834 21.999 18.501s16.333 5.5 27 5.5h14c10.667 0 19.834 -2 27.501 -6s15.167 -10 22.5 -18l69 -76c8 -8.66699 12 -16.667 12 -24z" />
    <glyph glyph-name="Atilde" unicode="&#xc3;" horiz-adv-x="642" 
d="M624 43c0 -13.333 -4.49902 -24.335 -13.499 -33.002s-19.5 -13 -31.5 -13c-9.33301 0 -17.833 2.83301 -25.5 8.5s-13.834 13.5 -18.501 23.5l-62 147h-309l-61 -148c-3.33301 -10 -8.83301 -17.667 -16.5 -23s-16.167 -8 -25.5 -8c-14 0 -24.667 3.66699 -32 11
s-11 17.333 -11 30c0 2.66699 0.666992 8 2 16l255 618c4.66699 10.667 11.167 18.834 19.5 24.501s17.833 7.83398 28.5 6.50098c10 0 19 -2.66699 27 -8s13.667 -13 17 -23l254 -610c2 -6 3 -12.333 3 -19zM435.001 266.998l-117 280l-116 -280h233zM160.501 764.498
c-7.66699 9.66699 -11.5049 22.8311 -11.5049 39.498c0 24 9.16699 44.333 27.5 61s42.833 25 73.5 25c14.667 0 29.334 -3.16699 44.001 -9.5s31.334 -15.166 50.001 -26.499c15.333 -9.33301 26.833 -15.833 34.5 -19.5s14.834 -5.5 21.501 -5.5c8 0 14.5 2.66699 19.5 8
s7.16699 12.333 6.5 21c-0.666992 2.66699 -1 6 -1 10c0 8.66699 2.83301 15.667 8.5 21s12.834 8 21.501 8c12.667 0 22.834 -5 30.501 -15s11.5 -22.667 11.5 -38c0 -22 -8 -42 -24 -60s-37.667 -27 -65 -27c-16 0 -31.833 3.33301 -47.5 10s-33.834 15.667 -54.501 27
c-11.333 6 -22.166 11.333 -32.499 16s-18.833 7 -25.5 7c-8 0 -14.667 -2.5 -20 -7.5s-8 -12.167 -8 -21.5c0.666992 -2 1 -4.66699 1 -8c0 -9.33301 -3 -16.666 -9 -21.999s-13.333 -8 -22 -8c-12 0 -21.833 4.83301 -29.5 14.5z" />
    <glyph glyph-name="Adieresis" unicode="&#xc4;" horiz-adv-x="642" 
d="M624 43c0 -13.333 -4.49902 -24.335 -13.499 -33.002s-19.5 -13 -31.5 -13c-9.33301 0 -17.833 2.83301 -25.5 8.5s-13.834 13.5 -18.501 23.5l-62 147h-309l-61 -148c-3.33301 -10 -8.83301 -17.667 -16.5 -23s-16.167 -8 -25.5 -8c-14 0 -24.667 3.66699 -32 11
s-11 17.333 -11 30c0 2.66699 0.666992 8 2 16l255 618c4.66699 10.667 11.167 18.834 19.5 24.501s17.833 7.83398 28.5 6.50098c10 0 19 -2.66699 27 -8s13.667 -13 17 -23l254 -610c2 -6 3 -12.333 3 -19zM435.001 266.998l-117 280l-116 -280h233zM189.001 776.998
c-8.66699 7.33301 -12.999 19 -12.999 35v15c0 30 17.667 45 53 45c18 0 31.333 -3.5 40 -10.5s13 -18.5 13 -34.5v-15c0 -16 -4.33301 -27.667 -13 -35s-22.334 -11 -41.001 -11c-17.333 0 -30.333 3.66699 -39 11zM377.002 776.998c-8.66699 7.33301 -13 19 -13 35v15
c0 16 4.33301 27.5 13 34.5s21.667 10.5 39 10.5c18.667 0 32.334 -3.5 41.001 -10.5s13 -18.5 13 -34.5v-15c0 -16 -4.33301 -27.667 -13 -35s-22.334 -11 -41.001 -11c-17.333 0 -30.333 3.66699 -39 11z" />
    <glyph glyph-name="Aring" unicode="&#xc5;" horiz-adv-x="645" 
d="M624 43c0 -13.333 -4.49902 -24.332 -13.499 -32.999s-19.5 -13 -31.5 -13c-9.33301 0 -17.833 2.83301 -25.5 8.5s-13.834 13.5 -18.501 23.5l-62 147h-309l-61 -148c-3.33301 -10 -8.83301 -17.667 -16.5 -23s-16.167 -8 -25.5 -8c-14 0 -24.667 3.66699 -32 11
s-11 17.333 -11 30c0 2.66699 0.666992 8 2 16l250 606c-16.667 9.33301 -30.167 22.166 -40.5 38.499s-15.5 33.833 -15.5 52.5c0 28.667 10.833 53.334 32.5 74.001s47.167 31 76.5 31c28.667 0 54 -10.333 76 -31s33 -45.334 33 -74.001
c0 -19.333 -5.5 -37.333 -16.5 -54s-25.167 -29.667 -42.5 -39l248 -596c2 -6 3 -12.333 3 -19zM287.501 785.001c-9.66699 -8.66699 -14.5 -20 -14.5 -34c0 -13.333 4.83301 -24.5 14.5 -33.5s21.5 -13.5 35.5 -13.5s25.833 4.5 35.5 13.5s14.5 20.167 14.5 33.5
c0 14 -5 25.333 -15 34s-21.667 13 -35 13c-14 0 -25.833 -4.33301 -35.5 -13zM435.001 267.001l-117 280l-116 -280h233z" />
    <glyph glyph-name="AE" unicode="&#xc6;" horiz-adv-x="899" 
d="M842 78c9.33301 -9.33301 13.999 -20.335 13.999 -33.002c0 -13.333 -4.66699 -24.166 -14 -32.499s-21 -12.5 -35 -12.5h-331c-13.333 0 -24.666 4.66699 -33.999 14s-14 20.666 -14 33.999v106h-249l-94 -138c-10 -13.333 -21.667 -20 -35 -20
c-11.333 0 -21.333 4 -30 12s-13.334 18.333 -14.001 31c-0.666992 10 2.33301 20.667 9 32l425 608c10.667 14 25.334 21 44.001 21h323c14 0 25.667 -4.33301 35 -13s14 -20 14 -34c0 -13.333 -4.66699 -24.166 -14 -32.499s-21 -12.5 -35 -12.5h-281v-207h236
c14 0 25.667 -4.33301 35 -13s14 -20 14 -34c0 -13.333 -4.66699 -24.166 -14 -32.499s-21 -12.5 -35 -12.5h-236v-217h281c14 0 25.667 -4.66699 35 -14zM240.999 243.998h187v274z" />
    <glyph glyph-name="Ccedilla" unicode="&#xc7;" horiz-adv-x="638" 
d="M607 77c0 -8 -2.16992 -15.498 -6.50293 -22.498s-10.166 -12.5 -17.499 -16.5c-24 -13.333 -51 -24.333 -81 -33s-60 -13.667 -90 -15l-44 -111c-8 -18 -19.667 -27 -35 -27c-10.667 0 -22.667 4 -36 12s-20 17.333 -20 28c0 9.33301 3.33301 17.666 10 24.999l59 77
c-56.667 7.33301 -108 26.333 -154 57s-82.333 71.5 -109 122.5s-40 109.833 -40 176.5c0 67.333 15.5 128.166 46.5 182.499s73.667 97 128 128s115.166 46.5 182.499 46.5c64.667 0 125.334 -16 182.001 -48c16 -8.66699 24 -22 24 -40c0 -12 -4 -23 -12 -33
c-8 -10.667 -19 -16 -33 -16c-9.33301 0 -18.333 2.33301 -27 7c-41.333 23.333 -86 35 -134 35c-50 0 -94.167 -11 -132.5 -33s-68.166 -52.833 -89.499 -92.5s-32 -85.167 -32 -136.5c0 -55.333 11 -103 33 -143s52.333 -70.5 91 -91.5s82 -31.5 130 -31.5
c49.333 0 94 12 134 36c8 4 16.667 6 26 6c14.667 0 26.334 -5.66699 35.001 -17c8 -10 12 -20.667 12 -32z" />
    <glyph glyph-name="Egrave" unicode="&#xc8;" horiz-adv-x="570" 
d="M513.5 78c9 -9.33301 13.5 -20.333 13.5 -33c0 -13.333 -4.5 -24.166 -13.5 -32.499s-20.5 -12.5 -34.5 -12.5h-348c-13.333 0 -24.666 4.66699 -33.999 14s-14 20.666 -14 33.999v604c0 13.333 4.66699 24.666 14 33.999s20.666 14 33.999 14h348
c14 0 25.5 -4.33301 34.5 -13s13.5 -20 13.5 -34c0 -13.333 -4.5 -24.166 -13.5 -32.499s-20.5 -12.5 -34.5 -12.5h-297v-204h252c14 0 25.5 -4.33301 34.5 -13s13.5 -19.667 13.5 -33c0 -14 -4.5 -25 -13.5 -33s-20.5 -12 -34.5 -12h-252v-221h297
c14 0 25.5 -4.66699 34.5 -14zM287 751l-99.002 51c-9.33301 5.33301 -16.666 11.833 -21.999 19.5s-8 15.834 -8 24.501c0 11.333 4.5 21 13.5 29s19.167 12 30.5 12c12.667 0 26.334 -6 41.001 -18l87 -73c8 -6.66699 12 -14.334 12 -23.001s-2.83301 -15.667 -8.5 -21
s-13.5 -8 -23.5 -8c-6 0 -13.667 2.33301 -23 7z" />
    <glyph glyph-name="Eacute" unicode="&#xc9;" horiz-adv-x="570" 
d="M513.5 78c9 -9.33301 13.5 -20.333 13.5 -33c0 -13.333 -4.5 -24.166 -13.5 -32.499s-20.5 -12.5 -34.5 -12.5h-348c-13.333 0 -24.666 4.66699 -33.999 14s-14 20.666 -14 33.999v604c0 13.333 4.66699 24.666 14 33.999s20.666 14 33.999 14h348
c14 0 25.5 -4.33301 34.5 -13s13.5 -20 13.5 -34c0 -13.333 -4.5 -24.166 -13.5 -32.499s-20.5 -12.5 -34.5 -12.5h-297v-204h252c14 0 25.5 -4.33301 34.5 -13s13.5 -19.667 13.5 -33c0 -14 -4.5 -25 -13.5 -33s-20.5 -12 -34.5 -12h-252v-221h297
c14 0 25.5 -4.66699 34.5 -14zM288.5 749.5c-5.66699 5 -8.50098 11.832 -8.50098 20.499s4 16.334 12 23.001l88 74c14 11.333 27.333 17 40 17c11.333 0 21.5 -4 30.5 -12s13.5 -17.667 13.5 -29c0 -8.66699 -2.66699 -17 -8 -25s-12.666 -14.333 -21.999 -19l-99 -51
c-8 -4 -15.667 -6 -23 -6c-10 0 -17.833 2.5 -23.5 7.5z" />
    <glyph glyph-name="Ecircumflex" unicode="&#xca;" horiz-adv-x="570" 
d="M513.5 78c9 -9.33301 13.5 -20.333 13.5 -33c0 -13.333 -4.5 -24.166 -13.5 -32.499s-20.5 -12.5 -34.5 -12.5h-348c-13.333 0 -24.666 4.66699 -33.999 14s-14 20.666 -14 33.999v604c0 13.333 4.66699 24.666 14 33.999s20.666 14 33.999 14h348
c14 0 25.5 -4.33301 34.5 -13s13.5 -20 13.5 -34c0 -13.333 -4.5 -24.166 -13.5 -32.499s-20.5 -12.5 -34.5 -12.5h-297v-204h252c14 0 25.5 -4.33301 34.5 -13s13.5 -19.667 13.5 -33c0 -14 -4.5 -25 -13.5 -33s-20.5 -12 -34.5 -12h-252v-221h297
c14 0 25.5 -4.66699 34.5 -14zM448 770c0 -5.33301 -2.5 -10.1699 -7.5 -14.5029s-10.833 -6.5 -17.5 -6.5c-4.66699 0 -10.667 1.83301 -18 5.5s-15 7.83398 -23 12.501l-73 47l-70 -47c-8 -5.33301 -15.5 -9.66602 -22.5 -12.999s-13.167 -5 -18.5 -5
c-6.66699 0 -12.5 2.16699 -17.5 6.5s-7.5 9.16602 -7.5 14.499c0 4 1 7.83301 3 11.5s5 7.83398 9 12.501l69 76c7.33301 8.66699 14.666 14.834 21.999 18.501s16.333 5.5 27 5.5h14c10.667 0 19.834 -2 27.501 -6s15.167 -10 22.5 -18l69 -76
c8 -8.66699 12 -16.667 12 -24z" />
    <glyph glyph-name="Edieresis" unicode="&#xcb;" horiz-adv-x="570" 
d="M513.5 78c9 -9.33301 13.5 -20.333 13.5 -33c0 -13.333 -4.5 -24.166 -13.5 -32.499s-20.5 -12.5 -34.5 -12.5h-348c-13.333 0 -24.666 4.66699 -33.999 14s-14 20.666 -14 33.999v604c0 13.333 4.66699 24.666 14 33.999s20.666 14 33.999 14h348
c14 0 25.5 -4.33301 34.5 -13s13.5 -20 13.5 -34c0 -13.333 -4.5 -24.166 -13.5 -32.499s-20.5 -12.5 -34.5 -12.5h-297v-204h252c14 0 25.5 -4.33301 34.5 -13s13.5 -19.667 13.5 -33c0 -14 -4.5 -25 -13.5 -33s-20.5 -12 -34.5 -12h-252v-221h297
c14 0 25.5 -4.66699 34.5 -14zM177 777c-8.66699 7.33301 -12.999 19 -12.999 35v15c0 30 17.667 45 53 45c18 0 31.333 -3.5 40 -10.5s13 -18.5 13 -34.5v-15c0 -16 -4.33301 -27.667 -13 -35s-22.334 -11 -41.001 -11c-17.333 0 -30.333 3.66699 -39 11zM365.001 777
c-8.66699 7.33301 -13 19 -13 35v15c0 16 4.33301 27.5 13 34.5s21.667 10.5 39 10.5c18.667 0 32.334 -3.5 41.001 -10.5s13 -18.5 13 -34.5v-15c0 -16 -4.33301 -27.667 -13 -35s-22.334 -11 -41.001 -11c-17.333 0 -30.333 3.66699 -39 11z" />
    <glyph glyph-name="Igrave" unicode="&#xcc;" horiz-adv-x="265" 
d="M167 14c-10 -9.33301 -21.667 -14 -35 -14c-14.667 0 -26.5 4.66699 -35.5 14s-13.5 21 -13.5 35v603c0 13.333 4.66699 24.666 14 33.999s21.333 14 36 14c13.333 0 24.833 -4.66699 34.5 -14s14.5 -20.666 14.5 -33.999v-603c0 -14 -5 -25.667 -15 -35zM110 751
l-99.002 51c-9.33301 5.33301 -16.666 11.833 -21.999 19.5s-8 15.834 -8 24.501c0 11.333 4.5 21 13.5 29s19.167 12 30.5 12c12.667 0 26.334 -6 41.001 -18l87 -73c8 -6.66699 12 -14.334 12 -23.001s-2.83301 -15.667 -8.5 -21s-13.5 -8 -23.5 -8
c-6 0 -13.667 2.33301 -23 7z" />
    <glyph glyph-name="Iacute" unicode="&#xcd;" horiz-adv-x="265" 
d="M167 14c-10 -9.33301 -21.667 -14 -35 -14c-14.667 0 -26.5 4.66699 -35.5 14s-13.5 21 -13.5 35v603c0 13.333 4.66699 24.666 14 33.999s21.333 14 36 14c13.333 0 24.833 -4.66699 34.5 -14s14.5 -20.666 14.5 -33.999v-603c0 -14 -5 -25.667 -15 -35zM111.5 749.5
c-5.66699 5 -8.50098 11.832 -8.50098 20.499s4 16.334 12 23.001l88 74c14 11.333 27.333 17 40 17c11.333 0 21.5 -4 30.5 -12s13.5 -17.667 13.5 -29c0 -8.66699 -2.66699 -17 -8 -25s-12.666 -14.333 -21.999 -19l-99 -51c-8 -4 -15.667 -6 -23 -6
c-10 0 -17.833 2.5 -23.5 7.5z" />
    <glyph glyph-name="Icircumflex" unicode="&#xce;" horiz-adv-x="265" 
d="M167 14c-10 -9.33301 -21.667 -14 -35 -14c-14.667 0 -26.5 4.66699 -35.5 14s-13.5 21 -13.5 35v603c0 13.333 4.66699 24.666 14 33.999s21.333 14 36 14c13.333 0 24.833 -4.66699 34.5 -14s14.5 -20.666 14.5 -33.999v-603c0 -14 -5 -25.667 -15 -35zM271 770
c0 -5.33301 -2.5 -10.1699 -7.5 -14.5029s-10.833 -6.5 -17.5 -6.5c-4.66699 0 -10.667 1.83301 -18 5.5s-15 7.83398 -23 12.501l-73 47l-70 -47c-8 -5.33301 -15.5 -9.66602 -22.5 -12.999s-13.167 -5 -18.5 -5c-6.66699 0 -12.5 2.16699 -17.5 6.5
s-7.5 9.16602 -7.5 14.499c0 4 1 7.83301 3 11.5s5 7.83398 9 12.501l69 76c7.33301 8.66699 14.666 14.834 21.999 18.501s16.333 5.5 27 5.5h14c10.667 0 19.834 -2 27.501 -6s15.167 -10 22.5 -18l69 -76c8 -8.66699 12 -16.667 12 -24z" />
    <glyph glyph-name="Idieresis" unicode="&#xcf;" horiz-adv-x="265" 
d="M167 14c-10 -9.33301 -21.667 -14 -35 -14c-14.667 0 -26.5 4.66699 -35.5 14s-13.5 21 -13.5 35v603c0 13.333 4.66699 24.666 14 33.999s21.333 14 36 14c13.333 0 24.833 -4.66699 34.5 -14s14.5 -20.666 14.5 -33.999v-603c0 -14 -5 -25.667 -15 -35zM0 777
c-8.66699 7.33301 -12.999 19 -12.999 35v15c0 30 17.667 45 53 45c18 0 31.333 -3.5 40 -10.5s13 -18.5 13 -34.5v-15c0 -16 -4.33301 -27.667 -13 -35s-22.334 -11 -41.001 -11c-17.333 0 -30.333 3.66699 -39 11zM188.001 777c-8.66699 7.33301 -13 19 -13 35v15
c0 16 4.33301 27.5 13 34.5s21.667 10.5 39 10.5c18.667 0 32.334 -3.5 41.001 -10.5s13 -18.5 13 -34.5v-15c0 -16 -4.33301 -27.667 -13 -35s-22.334 -11 -41.001 -11c-17.333 0 -30.333 3.66699 -39 11z" />
    <glyph glyph-name="Eth" unicode="&#xd0;" horiz-adv-x="717" 
d="M538 653c44.667 -31.333 78.334 -73.498 101.001 -126.498s34 -111.833 34 -176.5c0 -65.333 -11.333 -124.5 -34 -177.5s-56.334 -95 -101.001 -126s-98.334 -46.5 -161.001 -46.5h-246c-13.333 0 -24.666 4.66699 -33.999 14s-14 20.666 -14 33.999v260h-30
c-14 0 -25.5 4.16699 -34.5 12.5s-13.5 18.833 -13.5 31.5s4.5 23 13.5 31s20.5 12 34.5 12h30v257c0 13.333 4.66699 24.666 14 33.999s20.666 14 33.999 14h246c62.667 0 116.334 -15.667 161.001 -47zM520 164.502c34 48.333 50.999 110.166 50.999 185.499
c0 74.667 -17.167 136.334 -51.5 185.001s-85.166 73 -152.499 73h-185v-213h41c14 0 25.5 -4 34.5 -12s13.5 -18.333 13.5 -31s-4.5 -23.167 -13.5 -31.5s-20.5 -12.5 -34.5 -12.5h-41v-216h185c68 0 119 24.167 153 72.5z" />
    <glyph glyph-name="Ntilde" unicode="&#xd1;" horiz-adv-x="732" 
d="M637 687.5c8 -8.33301 12 -18.833 12 -31.5v-607c0 -14 -4.5 -25.667 -13.5 -35s-20.5 -14 -34.5 -14c-7.33301 0 -14.5 1.16699 -21.5 3.5s-12.5 5.83301 -16.5 10.5l-393 512v-482c0 -12.667 -4.16699 -23.167 -12.5 -31.5s-18.833 -12.5 -31.5 -12.5
s-23 4.16699 -31 12.5s-12 18.833 -12 31.5v608c0 14 4.5 25.5 13.5 34.5s20.167 13.5 33.5 13.5c8 0 15.667 -1.5 23 -4.5s13 -7.16699 17 -12.5l392 -513v486c0 12.667 4.16699 23.167 12.5 31.5s18.833 12.5 31.5 12.5s23 -4.16699 31 -12.5zM203.5 764.5
c-7.66699 9.66699 -11.5049 22.8311 -11.5049 39.498c0 24 9.16699 44.333 27.5 61s42.833 25 73.5 25c14.667 0 29.334 -3.16699 44.001 -9.5s31.334 -15.166 50.001 -26.499c15.333 -9.33301 26.833 -15.833 34.5 -19.5s14.834 -5.5 21.501 -5.5c8 0 14.5 2.66699 19.5 8
s7.16699 12.333 6.5 21c-0.666992 2.66699 -1 6 -1 10c0 8.66699 2.83301 15.667 8.5 21s12.834 8 21.501 8c12.667 0 22.834 -5 30.501 -15s11.5 -22.667 11.5 -38c0 -22 -8 -42 -24 -60s-37.667 -27 -65 -27c-16 0 -31.833 3.33301 -47.5 10s-33.834 15.667 -54.501 27
c-11.333 6 -22.166 11.333 -32.499 16s-18.833 7 -25.5 7c-8 0 -14.667 -2.5 -20 -7.5s-8 -12.167 -8 -21.5c0.666992 -2 1 -4.66699 1 -8c0 -9.33301 -3 -16.666 -9 -21.999s-13.333 -8 -22 -8c-12 0 -21.833 4.83301 -29.5 14.5z" />
    <glyph glyph-name="Ograve" unicode="&#xd2;" horiz-adv-x="762" 
d="M675.5 167c-29 -54.667 -69.167 -97.834 -120.5 -129.501s-109.333 -47.5 -174 -47.5s-122.667 15.833 -174 47.5s-91.5 74.834 -120.5 129.501s-43.5 115.667 -43.5 183s14.5 128.333 43.5 183s69.167 97.834 120.5 129.501s109.333 47.5 174 47.5
s122.667 -15.833 174 -47.5s91.5 -74.834 120.5 -129.501s43.5 -115.667 43.5 -183s-14.5 -128.333 -43.5 -183zM586 485.5c-20 40.333 -47.833 72 -83.5 95s-76.167 34.5 -121.5 34.5s-85.833 -11.333 -121.5 -34s-63.5 -54.167 -83.5 -94.5s-30 -85.833 -30 -136.5
c0 -50 10 -95.167 30 -135.5s47.833 -72 83.5 -95s76.167 -34.5 121.5 -34.5s85.833 11.5 121.5 34.5s63.5 54.667 83.5 95s30 85.5 30 135.5s-10 95.167 -30 135.5zM357 751l-99.002 51c-9.33301 5.33301 -16.666 11.833 -21.999 19.5s-8 15.834 -8 24.501
c0 11.333 4.5 21 13.5 29s19.167 12 30.5 12c12.667 0 26.334 -6 41.001 -18l87 -73c8 -6.66699 12 -14.334 12 -23.001s-2.83301 -15.667 -8.5 -21s-13.5 -8 -23.5 -8c-6 0 -13.667 2.33301 -23 7z" />
    <glyph glyph-name="Oacute" unicode="&#xd3;" horiz-adv-x="762" 
d="M675.5 167c-29 -54.667 -69.167 -97.834 -120.5 -129.501s-109.333 -47.5 -174 -47.5s-122.667 15.833 -174 47.5s-91.5 74.834 -120.5 129.501s-43.5 115.667 -43.5 183s14.5 128.333 43.5 183s69.167 97.834 120.5 129.501s109.333 47.5 174 47.5
s122.667 -15.833 174 -47.5s91.5 -74.834 120.5 -129.501s43.5 -115.667 43.5 -183s-14.5 -128.333 -43.5 -183zM586 485.5c-20 40.333 -47.833 72 -83.5 95s-76.167 34.5 -121.5 34.5s-85.833 -11.333 -121.5 -34s-63.5 -54.167 -83.5 -94.5s-30 -85.833 -30 -136.5
c0 -50 10 -95.167 30 -135.5s47.833 -72 83.5 -95s76.167 -34.5 121.5 -34.5s85.833 11.5 121.5 34.5s63.5 54.667 83.5 95s30 85.5 30 135.5s-10 95.167 -30 135.5zM358.5 749.5c-5.66699 5 -8.50098 11.832 -8.50098 20.499s4 16.334 12 23.001l88 74
c14 11.333 27.333 17 40 17c11.333 0 21.5 -4 30.5 -12s13.5 -17.667 13.5 -29c0 -8.66699 -2.66699 -17 -8 -25s-12.666 -14.333 -21.999 -19l-99 -51c-8 -4 -15.667 -6 -23 -6c-10 0 -17.833 2.5 -23.5 7.5z" />
    <glyph glyph-name="Ocircumflex" unicode="&#xd4;" horiz-adv-x="762" 
d="M675.5 167c-29 -54.667 -69.167 -97.834 -120.5 -129.501s-109.333 -47.5 -174 -47.5s-122.667 15.833 -174 47.5s-91.5 74.834 -120.5 129.501s-43.5 115.667 -43.5 183s14.5 128.333 43.5 183s69.167 97.834 120.5 129.501s109.333 47.5 174 47.5
s122.667 -15.833 174 -47.5s91.5 -74.834 120.5 -129.501s43.5 -115.667 43.5 -183s-14.5 -128.333 -43.5 -183zM586 485.5c-20 40.333 -47.833 72 -83.5 95s-76.167 34.5 -121.5 34.5s-85.833 -11.333 -121.5 -34s-63.5 -54.167 -83.5 -94.5s-30 -85.833 -30 -136.5
c0 -50 10 -95.167 30 -135.5s47.833 -72 83.5 -95s76.167 -34.5 121.5 -34.5s85.833 11.5 121.5 34.5s63.5 54.667 83.5 95s30 85.5 30 135.5s-10 95.167 -30 135.5zM518 770c0 -5.33301 -2.5 -10.1699 -7.5 -14.5029s-10.833 -6.5 -17.5 -6.5
c-4.66699 0 -10.667 1.83301 -18 5.5s-15 7.83398 -23 12.501l-73 47l-70 -47c-8 -5.33301 -15.5 -9.66602 -22.5 -12.999s-13.167 -5 -18.5 -5c-6.66699 0 -12.5 2.16699 -17.5 6.5s-7.5 9.16602 -7.5 14.499c0 4 1 7.83301 3 11.5s5 7.83398 9 12.501l69 76
c7.33301 8.66699 14.666 14.834 21.999 18.501s16.333 5.5 27 5.5h14c10.667 0 19.834 -2 27.501 -6s15.167 -10 22.5 -18l69 -76c8 -8.66699 12 -16.667 12 -24z" />
    <glyph glyph-name="Otilde" unicode="&#xd5;" horiz-adv-x="762" 
d="M675.5 167c-29 -54.667 -69.167 -97.834 -120.5 -129.501s-109.333 -47.5 -174 -47.5s-122.667 15.833 -174 47.5s-91.5 74.834 -120.5 129.501s-43.5 115.667 -43.5 183s14.5 128.333 43.5 183s69.167 97.834 120.5 129.501s109.333 47.5 174 47.5
s122.667 -15.833 174 -47.5s91.5 -74.834 120.5 -129.501s43.5 -115.667 43.5 -183s-14.5 -128.333 -43.5 -183zM586 485.5c-20 40.333 -47.833 72 -83.5 95s-76.167 34.5 -121.5 34.5s-85.833 -11.333 -121.5 -34s-63.5 -54.167 -83.5 -94.5s-30 -85.833 -30 -136.5
c0 -50 10 -95.167 30 -135.5s47.833 -72 83.5 -95s76.167 -34.5 121.5 -34.5s85.833 11.5 121.5 34.5s63.5 54.667 83.5 95s30 85.5 30 135.5s-10 95.167 -30 135.5zM218.5 764.5c-7.66699 9.66699 -11.5049 22.8311 -11.5049 39.498c0 24 9.16699 44.333 27.5 61
s42.833 25 73.5 25c14.667 0 29.334 -3.16699 44.001 -9.5s31.334 -15.166 50.001 -26.499c15.333 -9.33301 26.833 -15.833 34.5 -19.5s14.834 -5.5 21.501 -5.5c8 0 14.5 2.66699 19.5 8s7.16699 12.333 6.5 21c-0.666992 2.66699 -1 6 -1 10
c0 8.66699 2.83301 15.667 8.5 21s12.834 8 21.501 8c12.667 0 22.834 -5 30.501 -15s11.5 -22.667 11.5 -38c0 -22 -8 -42 -24 -60s-37.667 -27 -65 -27c-16 0 -31.833 3.33301 -47.5 10s-33.834 15.667 -54.501 27c-11.333 6 -22.166 11.333 -32.499 16s-18.833 7 -25.5 7
c-8 0 -14.667 -2.5 -20 -7.5s-8 -12.167 -8 -21.5c0.666992 -2 1 -4.66699 1 -8c0 -9.33301 -3 -16.666 -9 -21.999s-13.333 -8 -22 -8c-12 0 -21.833 4.83301 -29.5 14.5z" />
    <glyph glyph-name="Odieresis" unicode="&#xd6;" horiz-adv-x="762" 
d="M675.5 167c-29 -54.667 -69.167 -97.834 -120.5 -129.501s-109.333 -47.5 -174 -47.5s-122.667 15.833 -174 47.5s-91.5 74.834 -120.5 129.501s-43.5 115.667 -43.5 183s14.5 128.333 43.5 183s69.167 97.834 120.5 129.501s109.333 47.5 174 47.5
s122.667 -15.833 174 -47.5s91.5 -74.834 120.5 -129.501s43.5 -115.667 43.5 -183s-14.5 -128.333 -43.5 -183zM586 485.5c-20 40.333 -47.833 72 -83.5 95s-76.167 34.5 -121.5 34.5s-85.833 -11.333 -121.5 -34s-63.5 -54.167 -83.5 -94.5s-30 -85.833 -30 -136.5
c0 -50 10 -95.167 30 -135.5s47.833 -72 83.5 -95s76.167 -34.5 121.5 -34.5s85.833 11.5 121.5 34.5s63.5 54.667 83.5 95s30 85.5 30 135.5s-10 95.167 -30 135.5zM247 777c-8.66699 7.33301 -12.999 19 -12.999 35v15c0 30 17.667 45 53 45c18 0 31.333 -3.5 40 -10.5
s13 -18.5 13 -34.5v-15c0 -16 -4.33301 -27.667 -13 -35s-22.334 -11 -41.001 -11c-17.333 0 -30.333 3.66699 -39 11zM435.001 777c-8.66699 7.33301 -13 19 -13 35v15c0 16 4.33301 27.5 13 34.5s21.667 10.5 39 10.5c18.667 0 32.334 -3.5 41.001 -10.5
s13 -18.5 13 -34.5v-15c0 -16 -4.33301 -27.667 -13 -35s-22.334 -11 -41.001 -11c-17.333 0 -30.333 3.66699 -39 11z" />
    <glyph glyph-name="multiply" unicode="&#xd7;" horiz-adv-x="476" 
d="M414 163c9.33301 -9.33301 14.001 -20.334 14.001 -33.001s-4.66699 -23.167 -14 -31.5s-19.333 -12.5 -30 -12.5s-21.334 4.66699 -32.001 14l-115 116l-115 -115c-10 -10 -21 -15 -33 -15c-11.333 0 -21.5 4.66699 -30.5 14s-13.5 19.666 -13.5 30.999
c0 12 4.66699 22.667 14 32l116 116l-113 114c-8.66699 10.667 -13 21.334 -13 32.001c0 12.667 4.5 23.334 13.5 32.001s19.167 13 30.5 13s22 -5 32 -15l113 -114l115 115c9.33301 9.33301 20.333 14 33 14s23.167 -4.5 31.5 -13.5s12.5 -19.167 12.5 -30.5
c0 -12.667 -4.66699 -23.667 -14 -33l-116 -115z" />
    <glyph glyph-name="Oslash" unicode="&#xd8;" horiz-adv-x="733" 
d="M694 491c16.667 -44 25.002 -91.001 25.002 -141.001c0 -67.333 -14.5 -128.333 -43.5 -183s-69.167 -97.834 -120.5 -129.501s-109.333 -47.5 -174 -47.5c-78 0 -146.333 23 -205 69l-55 -68c-10.667 -12.667 -22.334 -19 -35.001 -19c-10 0 -19.167 4 -27.5 12
s-12.5 17.333 -12.5 28c0 10 3 19 9 27l64 78c-24.667 31.333 -43.5 66.833 -56.5 106.5s-19.5 81.834 -19.5 126.501c0 67.333 14.5 128.333 43.5 183s69.167 97.834 120.5 129.501s109.333 47.5 174 47.5c67.333 0 127.666 -17.333 180.999 -52l53 65
c8.66699 10.667 19.667 16 33 16c10.667 0 20.167 -3.66699 28.5 -11s12.5 -16.333 12.5 -27c0 -10 -3.33301 -19.333 -10 -28l-55 -67c30 -32.667 53.333 -71 70 -115zM185.002 197.999l315 384c-35.333 22 -75 33 -119 33c-45.333 0 -85.833 -11.333 -121.5 -34
s-63.5 -54.167 -83.5 -94.5s-30 -85.833 -30 -136.5c0 -57.333 13 -108 39 -152zM502.502 119.499c35.667 23 63.5 54.667 83.5 95s30 85.5 30 135.5c0 70 -18.667 129.333 -56 178l-322 -394c41.333 -32.667 89 -49 143 -49c45.333 0 85.833 11.5 121.5 34.5z" />
    <glyph glyph-name="Ugrave" unicode="&#xd9;" horiz-adv-x="708" 
d="M612.5 687.5c8.33301 -9 12.498 -20.501 12.498 -34.501v-384c0 -52.667 -11.667 -100 -35 -142s-55.5 -74.833 -96.5 -98.5s-87.167 -35.5 -138.5 -35.5c-52 0 -98.667 11.833 -140 35.5s-73.666 56.5 -96.999 98.5s-35 89.333 -35 142v384c0 14 4.66699 25.5 14 34.5
s21.333 13.5 36 13.5c12.667 0 23.834 -4.66699 33.501 -14s14.5 -20.666 14.5 -33.999v-384c0 -34.667 8 -65.834 24 -93.501s37.333 -49.167 64 -64.5s55.334 -23 86.001 -23c32 0 61.667 7.66699 89 23s49.166 36.833 65.499 64.5s24.5 58.834 24.5 93.501v384
c0 14 4 25.5 12 34.5s19 13.5 33 13.5s25.167 -4.5 33.5 -13.5zM329.998 750.999l-99.002 51c-9.33301 5.33301 -16.666 11.833 -21.999 19.5s-8 15.834 -8 24.501c0 11.333 4.5 21 13.5 29s19.167 12 30.5 12c12.667 0 26.334 -6 41.001 -18l87 -73
c8 -6.66699 12 -14.334 12 -23.001s-2.83301 -15.667 -8.5 -21s-13.5 -8 -23.5 -8c-6 0 -13.667 2.33301 -23 7z" />
    <glyph glyph-name="Uacute" unicode="&#xda;" horiz-adv-x="708" 
d="M612.5 687.5c8.33301 -9 12.498 -20.501 12.498 -34.501v-384c0 -52.667 -11.667 -100 -35 -142s-55.5 -74.833 -96.5 -98.5s-87.167 -35.5 -138.5 -35.5c-52 0 -98.667 11.833 -140 35.5s-73.666 56.5 -96.999 98.5s-35 89.333 -35 142v384c0 14 4.66699 25.5 14 34.5
s21.333 13.5 36 13.5c12.667 0 23.834 -4.66699 33.501 -14s14.5 -20.666 14.5 -33.999v-384c0 -34.667 8 -65.834 24 -93.501s37.333 -49.167 64 -64.5s55.334 -23 86.001 -23c32 0 61.667 7.66699 89 23s49.166 36.833 65.499 64.5s24.5 58.834 24.5 93.501v384
c0 14 4 25.5 12 34.5s19 13.5 33 13.5s25.167 -4.5 33.5 -13.5zM332.498 749.499c-5.66699 5 -8.50098 11.832 -8.50098 20.499s4 16.334 12 23.001l88 74c14 11.333 27.333 17 40 17c11.333 0 21.5 -4 30.5 -12s13.5 -17.667 13.5 -29c0 -8.66699 -2.66699 -17 -8 -25
s-12.666 -14.333 -21.999 -19l-99 -51c-8 -4 -15.667 -6 -23 -6c-10 0 -17.833 2.5 -23.5 7.5z" />
    <glyph glyph-name="Ucircumflex" unicode="&#xdb;" horiz-adv-x="708" 
d="M612.5 687.5c8.33301 -9 12.498 -20.501 12.498 -34.501v-384c0 -52.667 -11.667 -100 -35 -142s-55.5 -74.833 -96.5 -98.5s-87.167 -35.5 -138.5 -35.5c-52 0 -98.667 11.833 -140 35.5s-73.666 56.5 -96.999 98.5s-35 89.333 -35 142v384c0 14 4.66699 25.5 14 34.5
s21.333 13.5 36 13.5c12.667 0 23.834 -4.66699 33.501 -14s14.5 -20.666 14.5 -33.999v-384c0 -34.667 8 -65.834 24 -93.501s37.333 -49.167 64 -64.5s55.334 -23 86.001 -23c32 0 61.667 7.66699 89 23s49.166 36.833 65.499 64.5s24.5 58.834 24.5 93.501v384
c0 14 4 25.5 12 34.5s19 13.5 33 13.5s25.167 -4.5 33.5 -13.5zM490.998 769.999c0 -5.33301 -2.5 -10.1699 -7.5 -14.5029s-10.833 -6.5 -17.5 -6.5c-4.66699 0 -10.667 1.83301 -18 5.5s-15 7.83398 -23 12.501l-73 47l-70 -47c-8 -5.33301 -15.5 -9.66602 -22.5 -12.999
s-13.167 -5 -18.5 -5c-6.66699 0 -12.5 2.16699 -17.5 6.5s-7.5 9.16602 -7.5 14.499c0 4 1 7.83301 3 11.5s5 7.83398 9 12.501l69 76c7.33301 8.66699 14.666 14.834 21.999 18.501s16.333 5.5 27 5.5h14c10.667 0 19.834 -2 27.501 -6s15.167 -10 22.5 -18l69 -76
c8 -8.66699 12 -16.667 12 -24z" />
    <glyph glyph-name="Udieresis" unicode="&#xdc;" horiz-adv-x="708" 
d="M612.5 687.5c8.33301 -9 12.498 -20.501 12.498 -34.501v-384c0 -52.667 -11.667 -100 -35 -142s-55.5 -74.833 -96.5 -98.5s-87.167 -35.5 -138.5 -35.5c-52 0 -98.667 11.833 -140 35.5s-73.666 56.5 -96.999 98.5s-35 89.333 -35 142v384c0 14 4.66699 25.5 14 34.5
s21.333 13.5 36 13.5c12.667 0 23.834 -4.66699 33.501 -14s14.5 -20.666 14.5 -33.999v-384c0 -34.667 8 -65.834 24 -93.501s37.333 -49.167 64 -64.5s55.334 -23 86.001 -23c32 0 61.667 7.66699 89 23s49.166 36.833 65.499 64.5s24.5 58.834 24.5 93.501v384
c0 14 4 25.5 12 34.5s19 13.5 33 13.5s25.167 -4.5 33.5 -13.5zM220.998 776.999c-8.66699 7.33301 -12.999 19 -12.999 35v15c0 30 17.667 45 53 45c18 0 31.333 -3.5 40 -10.5s13 -18.5 13 -34.5v-15c0 -16 -4.33301 -27.667 -13 -35s-22.334 -11 -41.001 -11
c-17.333 0 -30.333 3.66699 -39 11zM408.999 776.999c-8.66699 7.33301 -13 19 -13 35v15c0 16 4.33301 27.5 13 34.5s21.667 10.5 39 10.5c18.667 0 32.334 -3.5 41.001 -10.5s13 -18.5 13 -34.5v-15c0 -16 -4.33301 -27.667 -13 -35s-22.334 -11 -41.001 -11
c-17.333 0 -30.333 3.66699 -39 11z" />
    <glyph glyph-name="Yacute" unicode="&#xdd;" horiz-adv-x="581" 
d="M555 625l-215.002 -303v-274c0 -13.333 -4.5 -24.666 -13.5 -33.999s-19.833 -14 -32.5 -14c-13.333 0 -24.666 4.66699 -33.999 14s-14 20.666 -14 33.999v282l-214 289c-9.33301 12 -14 24 -14 36c0 13.333 5.33301 24.666 16 33.999s22.334 14 35.001 14
c15.333 0 28.333 -7.33301 39 -22l188 -260l181 259c10.667 15.333 24 23 40 23c12.667 0 23.667 -4.66699 33 -14s14 -20.666 14 -33.999c0 -10 -3 -20 -9 -30zM268.498 749.5c-5.66699 5 -8.50098 11.832 -8.50098 20.499s4 16.334 12 23.001l88 74
c14 11.333 27.333 17 40 17c11.333 0 21.5 -4 30.5 -12s13.5 -17.667 13.5 -29c0 -8.66699 -2.66699 -17 -8 -25s-12.666 -14.333 -21.999 -19l-99 -51c-8 -4 -15.667 -6 -23 -6c-10 0 -17.833 2.5 -23.5 7.5z" />
    <glyph glyph-name="Thorn" unicode="&#xde;" horiz-adv-x="597" 
d="M457 574.5c30 -19 53.833 -44.833 71.5 -77.5s26.5 -69 26.5 -109c0 -39.333 -9 -75.5 -27 -108.5s-42 -59.167 -72 -78.5s-62.333 -29 -97 -29h-181v-124c0 -13.333 -4.66699 -24.666 -14 -33.999s-20.666 -14 -33.999 -14c-14 0 -25.333 4.5 -34 13.5
s-13 20.5 -13 34.5v644c0 13.333 4.66699 24.666 14 33.999s20.666 14 33.999 14c14 0 25.333 -4.5 34 -13.5s13 -20.5 13 -34.5v-89h181c35.333 0 68 -9.5 98 -28.5zM430 302.5c20 23.667 30 52.167 30 85.5c0 34 -9.83301 62.5 -29.5 85.5s-43.5 34.5 -71.5 34.5h-181
v-241h181c27.333 0 51 11.833 71 35.5z" />
    <glyph glyph-name="germandbls" unicode="&#xdf;" horiz-adv-x="642" 
d="M554.5 361c32.333 -38 48.5 -85.335 48.5 -142.002c0 -44 -9.33301 -83.333 -28 -118s-44.167 -61.834 -76.5 -81.501s-68.166 -29.5 -107.499 -29.5c-28.667 0 -53.5 4 -74.5 12s-37.167 18.333 -48.5 31c-6.66699 8 -10 16.667 -10 26c0 12.667 6.33301 23.667 19 33
c8 6.66699 16.333 10 25 10c10.667 0 21 -5 31 -15c16.667 -13.333 37 -20 61 -20c34.667 0 62.334 13.167 83.001 39.5s31 59.833 31 100.5c0 91.333 -47.667 148.333 -143 171c-26 6.66699 -39 21 -39 43c0 20 8.33301 34.333 25 43c28 10.667 49.667 25 65 43
s23 37.667 23 59c0 24.667 -9.5 44 -28.5 58s-45.167 21 -78.5 21c-39.333 0 -70 -13.333 -92 -40s-33 -61 -33 -103l-1 -454c0 -14 -4.33301 -25.5 -13 -34.5s-20 -13.5 -34 -13.5c-14.667 0 -26.334 4.5 -35.001 13.5s-13 20.5 -13 34.5l1 359h-35
c-13.333 0 -24.666 4.33301 -33.999 13s-14 19.334 -14 32.001c0 13.333 4.66699 24.333 14 33s20.666 13 33.999 13h35v1c0 44 8.66699 83.833 26 119.5s42.833 63.834 76.5 84.501s74.167 31 121.5 31c41.333 0 76.833 -7 106.5 -21s52.167 -33.167 67.5 -57.5
s23 -51.166 23 -80.499c0 -28 -9.33301 -53.667 -28 -77s-42.334 -42 -71.001 -56c48 -16 88.167 -43 120.5 -81z" />
    <glyph glyph-name="agrave" unicode="&#xe0;" horiz-adv-x="614" 
d="M530.5 517.5c9 -9 13.501 -20.834 13.501 -35.501v-434c0 -13.333 -4.5 -24.666 -13.5 -33.999s-20.5 -14 -34.5 -14s-25.333 4.5 -34 13.5s-13 20.5 -13 34.5v26c-17.333 -23.333 -41 -43.166 -71 -59.499s-62.333 -24.5 -97 -24.5c-45.333 0 -86.5 11.667 -123.5 35
s-66 55.833 -87 97.5s-31.5 88.5 -31.5 140.5s10.5 98.833 31.5 140.5s49.833 74.167 86.5 97.5s77 35 121 35c35.333 0 68.166 -7.33301 98.499 -22s54.5 -33.334 72.5 -56.001v24c0 14 4.33301 25.667 13 35s20 14 34 14s25.5 -4.5 34.5 -13.5zM375.501 101.999
c24.333 16 43.333 38 57 66s20.5 59.667 20.5 95c0 34.667 -6.83301 66 -20.5 94s-32.667 50.167 -57 66.5s-52.166 24.5 -83.499 24.5s-59.166 -8 -83.499 -24s-43.333 -38 -57 -66s-20.5 -59.667 -20.5 -95s6.83301 -67 20.5 -95s32.667 -50 57 -66s52.166 -24 83.499 -24
s59.166 8 83.499 24zM276.001 572.999l-91 62c-18 10 -27 23.667 -27 41c0 12 4.5 21.833 13.5 29.5s18.833 11.5 29.5 11.5c14.667 0 28.667 -6.66699 42 -20l78 -81c7.33301 -7.33301 11 -15 11 -23c0 -8.66699 -3 -15.5 -9 -20.5s-13.667 -7.5 -23 -7.5
c-5.33301 0 -13.333 2.66699 -24 8z" />
    <glyph glyph-name="aacute" unicode="&#xe1;" horiz-adv-x="614" 
d="M530.5 517.5c9 -9 13.501 -20.834 13.501 -35.501v-434c0 -13.333 -4.5 -24.666 -13.5 -33.999s-20.5 -14 -34.5 -14s-25.333 4.5 -34 13.5s-13 20.5 -13 34.5v26c-17.333 -23.333 -41 -43.166 -71 -59.499s-62.333 -24.5 -97 -24.5c-45.333 0 -86.5 11.667 -123.5 35
s-66 55.833 -87 97.5s-31.5 88.5 -31.5 140.5s10.5 98.833 31.5 140.5s49.833 74.167 86.5 97.5s77 35 121 35c35.333 0 68.166 -7.33301 98.499 -22s54.5 -33.334 72.5 -56.001v24c0 14 4.33301 25.667 13 35s20 14 34 14s25.5 -4.5 34.5 -13.5zM375.501 101.999
c24.333 16 43.333 38 57 66s20.5 59.667 20.5 95c0 34.667 -6.83301 66 -20.5 94s-32.667 50.167 -57 66.5s-52.166 24.5 -83.499 24.5s-59.166 -8 -83.499 -24s-43.333 -38 -57 -66s-20.5 -59.667 -20.5 -95s6.83301 -67 20.5 -95s32.667 -50 57 -66s52.166 -24 83.499 -24
s59.166 8 83.499 24zM278.001 567.999c-6 4.66699 -8.66797 11.001 -8.00098 19.001c0 5.33301 2 11.333 6 18l59 99c5.33301 9.33301 11.833 17 19.5 23s16.5 9 26.5 9c14.667 0 25.834 -3.83301 33.501 -11.5s11.167 -17.834 10.5 -30.501c0 -12 -5 -23.667 -15 -35
l-75 -82c-10.667 -10.667 -24 -16 -40 -16c-5.33301 0 -11 2.33301 -17 7z" />
    <glyph glyph-name="acircumflex" unicode="&#xe2;" horiz-adv-x="614" 
d="M530.5 517.5c9 -9 13.501 -20.834 13.501 -35.501v-434c0 -13.333 -4.5 -24.666 -13.5 -33.999s-20.5 -14 -34.5 -14s-25.333 4.5 -34 13.5s-13 20.5 -13 34.5v26c-17.333 -23.333 -41 -43.166 -71 -59.499s-62.333 -24.5 -97 -24.5c-45.333 0 -86.5 11.667 -123.5 35
s-66 55.833 -87 97.5s-31.5 88.5 -31.5 140.5s10.5 98.833 31.5 140.5s49.833 74.167 86.5 97.5s77 35 121 35c35.333 0 68.166 -7.33301 98.499 -22s54.5 -33.334 72.5 -56.001v24c0 14 4.33301 25.667 13 35s20 14 34 14s25.5 -4.5 34.5 -13.5zM375.501 101.999
c24.333 16 43.333 38 57 66s20.5 59.667 20.5 95c0 34.667 -6.83301 66 -20.5 94s-32.667 50.167 -57 66.5s-52.166 24.5 -83.499 24.5s-59.166 -8 -83.499 -24s-43.333 -38 -57 -66s-20.5 -59.667 -20.5 -95s6.83301 -67 20.5 -95s32.667 -50 57 -66s52.166 -24 83.499 -24
s59.166 8 83.499 24zM425.001 622.999c1.33301 -3.33301 2 -7.33301 2 -12c0 -6 -2.33301 -11 -7 -15s-10.667 -6 -18 -6c-8.66699 0 -15 1.16699 -19 3.5s-10.667 7.5 -20 15.5l-64 54l-65 -54c-2 -2 -5.5 -5 -10.5 -9s-9.66699 -6.83301 -14 -8.5s-9.5 -2.5 -15.5 -2.5
c-6.66699 0 -12.334 2.16699 -17.001 6.5s-7 9.16602 -7 14.499s0.666992 9.66602 2 12.999s4 7.33301 8 12l59 70c12 16 28.667 24 50 24h27c10.667 0 19.334 -1.66699 26.001 -5s13 -9.66602 19 -18.999l56 -69c4 -5.33301 6.66699 -9.66602 8 -12.999z" />
    <glyph glyph-name="atilde" unicode="&#xe3;" horiz-adv-x="614" 
d="M530.5 517.5c9 -9 13.501 -20.834 13.501 -35.501v-434c0 -13.333 -4.5 -24.666 -13.5 -33.999s-20.5 -14 -34.5 -14s-25.333 4.5 -34 13.5s-13 20.5 -13 34.5v26c-17.333 -23.333 -41 -43.166 -71 -59.499s-62.333 -24.5 -97 -24.5c-45.333 0 -86.5 11.667 -123.5 35
s-66 55.833 -87 97.5s-31.5 88.5 -31.5 140.5s10.5 98.833 31.5 140.5s49.833 74.167 86.5 97.5s77 35 121 35c35.333 0 68.166 -7.33301 98.499 -22s54.5 -33.334 72.5 -56.001v24c0 14 4.33301 25.667 13 35s20 14 34 14s25.5 -4.5 34.5 -13.5zM375.501 101.999
c24.333 16 43.333 38 57 66s20.5 59.667 20.5 95c0 34.667 -6.83301 66 -20.5 94s-32.667 50.167 -57 66.5s-52.166 24.5 -83.499 24.5s-59.166 -8 -83.499 -24s-43.333 -38 -57 -66s-20.5 -59.667 -20.5 -95s6.83301 -67 20.5 -95s32.667 -50 57 -66s52.166 -24 83.499 -24
s59.166 8 83.499 24zM134.501 600.999c-7.66699 10 -11.166 24.3311 -10.499 42.998c2 22.667 12.667 41.667 32 57s45.333 23 78 23c14.667 0 28.667 -3.16699 42 -9.5s29.333 -15.5 48 -27.5c12 -8 22 -14.167 30 -18.5s15.333 -6.5 22 -6.5c8 0 14.333 2.5 19 7.5
s6.66699 11.833 6 20.5c-0.666992 2 -1 5.33301 -1 10c0 8.66699 3 15.667 9 21s13.333 8 22 8c13.333 0 23.833 -5 31.5 -15s11.167 -23.667 10.5 -41c-2 -22 -11.5 -41.167 -28.5 -57.5s-41.5 -24.5 -73.5 -24.5c-12 0 -24.5 2.83301 -37.5 8.5s-29.167 14.167 -48.5 25.5
c-14.667 8.66699 -26.834 15.334 -36.501 20.001s-18.167 7 -25.5 7c-8 0 -14.5 -2.33301 -19.5 -7s-7.5 -11.667 -7.5 -21c0.666992 -2 1 -4.66699 1 -8c0 -9.33301 -3 -16.666 -9 -21.999s-13.333 -8 -22 -8c-13.333 0 -23.833 5 -31.5 15z" />
    <glyph glyph-name="adieresis" unicode="&#xe4;" horiz-adv-x="614" 
d="M530.5 517.5c9 -9 13.501 -20.834 13.501 -35.501v-434c0 -13.333 -4.5 -24.666 -13.5 -33.999s-20.5 -14 -34.5 -14s-25.333 4.5 -34 13.5s-13 20.5 -13 34.5v26c-17.333 -23.333 -41 -43.166 -71 -59.499s-62.333 -24.5 -97 -24.5c-45.333 0 -86.5 11.667 -123.5 35
s-66 55.833 -87 97.5s-31.5 88.5 -31.5 140.5s10.5 98.833 31.5 140.5s49.833 74.167 86.5 97.5s77 35 121 35c35.333 0 68.166 -7.33301 98.499 -22s54.5 -33.334 72.5 -56.001v24c0 14 4.33301 25.667 13 35s20 14 34 14s25.5 -4.5 34.5 -13.5zM375.501 101.999
c24.333 16 43.333 38 57 66s20.5 59.667 20.5 95c0 34.667 -6.83301 66 -20.5 94s-32.667 50.167 -57 66.5s-52.166 24.5 -83.499 24.5s-59.166 -8 -83.499 -24s-43.333 -38 -57 -66s-20.5 -59.667 -20.5 -95s6.83301 -67 20.5 -95s32.667 -50 57 -66s52.166 -24 83.499 -24
s59.166 8 83.499 24zM159.001 607.999c-8.66699 7.33301 -13 19 -13 35v15c0 30 17.333 45 52 45c19.333 0 33.333 -3.5 42 -10.5s13 -18.5 13 -34.5v-15c0 -16.667 -4.5 -28.5 -13.5 -35.5s-22.833 -10.5 -41.5 -10.5c-17.333 0 -30.333 3.66699 -39 11zM347.001 607.999
c-8.66699 7.33301 -12.999 19 -12.999 35v15c0 30 17.667 45 53 45c18.667 0 32.167 -3.5 40.5 -10.5s12.5 -18.5 12.5 -34.5v-15c0 -16.667 -4.33301 -28.5 -13 -35.5s-22.334 -10.5 -41.001 -10.5c-17.333 0 -30.333 3.66699 -39 11z" />
    <glyph glyph-name="aring" unicode="&#xe5;" horiz-adv-x="614" 
d="M530.5 517.5c9 -9 13.501 -20.834 13.501 -35.501v-434c0 -13.333 -4.5 -24.666 -13.5 -33.999s-20.5 -14 -34.5 -14s-25.333 4.5 -34 13.5s-13 20.5 -13 34.5v26c-17.333 -23.333 -41 -43.166 -71 -59.499s-62.333 -24.5 -97 -24.5c-45.333 0 -86.5 11.667 -123.5 35
s-66 55.833 -87 97.5s-31.5 88.5 -31.5 140.5s10.5 98.833 31.5 140.5s49.833 74.167 86.5 97.5s77 35 121 35c35.333 0 68.166 -7.33301 98.499 -22s54.5 -33.334 72.5 -56.001v24c0 14 4.33301 25.667 13 35s20 14 34 14s25.5 -4.5 34.5 -13.5zM375.501 101.999
c24.333 16 43.333 38 57 66s20.5 59.667 20.5 95c0 34.667 -6.83301 66 -20.5 94s-32.667 50.167 -57 66.5s-52.166 24.5 -83.499 24.5s-59.166 -8 -83.499 -24s-43.333 -38 -57 -66s-20.5 -59.667 -20.5 -95s6.83301 -67 20.5 -95s32.667 -50 57 -66s52.166 -24 83.499 -24
s59.166 8 83.499 24zM223.001 594.999c-22 20.667 -33 45 -33 73c0 29.333 11 54.333 33 75s47.333 31 76 31c29.333 0 54.833 -10.333 76.5 -31s32.5 -45.667 32.5 -75c0 -28 -10.833 -52.333 -32.5 -73s-47.167 -31 -76.5 -31c-28.667 0 -54 10.333 -76 31z
M334.501 635.499c9.66699 9 14.5 19.832 14.5 32.499c0 14.667 -5 26.334 -15 35.001s-21.667 13 -35 13c-14 0 -25.833 -4.5 -35.5 -13.5s-14.5 -20.5 -14.5 -34.5c0 -12.667 4.83301 -23.5 14.5 -32.5s21.5 -13.5 35.5 -13.5s25.833 4.5 35.5 13.5z" />
    <glyph glyph-name="ae" unicode="&#xe6;" horiz-adv-x="907" 
d="M853 251.5c-9.33301 -8.33301 -20.3359 -12.5029 -33.0029 -12.5029h-352c4.66699 -48.667 23.167 -87.667 55.5 -117s71.833 -44 118.5 -44c32 0 58 4.66699 78 14s37.667 21.333 53 36c10 6 19.667 9 29 9c11.333 0 20.833 -4 28.5 -12s11.5 -17.333 11.5 -28
c0 -14 -6.66699 -26.667 -20 -38c-19.333 -19.333 -45 -35.666 -77 -48.999s-65 -20 -99 -20c-48 0 -91.167 9.33301 -129.5 28s-69.166 44.667 -92.499 78c-22.667 -28.667 -51.334 -53.5 -86.001 -74.5s-74.334 -31.5 -119.001 -31.5
c-29.333 0 -57.666 5.83301 -84.999 17.5s-49.666 29.334 -66.999 53.001s-26 52.834 -26 87.501c0 54 19.167 96 57.5 126s96.833 45 175.5 45h103v38c0 35.333 -11 59.333 -33 72s-48.333 19 -79 19c-58 0 -106.333 -25 -145 -75c-10 -11.333 -22 -17 -36 -17
c-10.667 0 -20.167 3.66699 -28.5 11s-12.5 16.333 -12.5 27c0 11.333 3.66699 22 11 32c24.667 30.667 54.834 56.667 90.501 78s76.5 32 122.5 32c40 0 76.333 -6.16699 109 -18.5s57 -31.833 73 -58.5c22.667 24.667 49.167 43.667 79.5 57s61.833 20 94.5 20
c42.667 0 82.667 -11 120 -33s67.333 -52.333 90 -91s34.334 -82 35.001 -130c-0.666992 -12 -5.66699 -22.167 -15 -30.5zM525.997 416.497c-27.333 -21 -45.335 -53.5 -54.002 -97.5h295v8c-3.33301 35.333 -19.166 64.333 -47.499 87s-60.5 34 -96.5 34
c-37.333 0 -69.666 -10.5 -96.999 -31.5zM375.995 238.997l-109.999 -0.000976562c-44.667 0 -77.5 -8.33301 -98.5 -25s-31.5 -37.667 -31.5 -63c0 -24 8.66699 -42.5 26 -55.5s37.666 -19.5 60.999 -19.5c38.667 0 72.5 9.83301 101.5 29.5s50.167 41.5 63.5 65.5
c-6 20.667 -10 43.334 -12 68.001z" />
    <glyph glyph-name="ccedilla" unicode="&#xe7;" horiz-adv-x="514" 
d="M464.5 39.5c-15 -13 -35.499 -23.834 -61.499 -32.501s-54.333 -14 -85 -16l-45 -112c-6.66699 -18 -18 -27 -34 -27c-11.333 0 -23.5 3.83301 -36.5 11.5s-19.5 17.167 -19.5 28.5c0 9.33301 3.33301 17.666 10 24.999l58 76c-42.667 6.66699 -80 22.5 -112 47.5
s-56.667 56.667 -74 95s-26 80.833 -26 127.5c0 51.333 11 97.833 33 139.5s52.667 74.334 92 98.001s84.333 35.5 135 35.5c52.667 0 96.5 -8.33301 131.5 -25s52.5 -38 52.5 -64c0 -11.333 -3.66699 -21.5 -11 -30.5s-16.666 -13.5 -27.999 -13.5
c-8.66699 0 -15.5 1.33301 -20.5 4s-11.833 7 -20.5 13c-4 4 -10.333 8.66699 -19 14c-8 4 -19.333 7.33301 -34 10s-28 4 -40 4c-34.667 0 -65.334 -8 -92.001 -24s-47.334 -38.167 -62.001 -66.5s-22 -59.833 -22 -94.5c0 -35.333 7.16699 -67 21.5 -95s34.5 -50 60.5 -66
s55.667 -24 89 -24c34.667 0 62.667 5.33301 84 16c4.66699 2.66699 11 7 19 13c6.66699 5.33301 12.5 9.33301 17.5 12s11.167 4 18.5 4c13.333 0 23.833 -4.16699 31.5 -12.5s11.5 -19.166 11.5 -32.499c0 -12.667 -7.5 -25.5 -22.5 -38.5z" />
    <glyph glyph-name="egrave" unicode="&#xe8;" horiz-adv-x="570" 
d="M516 251.5c-9.33301 -8.33301 -20.334 -12.502 -33.001 -12.502h-352c4.66699 -48.667 23.167 -87.667 55.5 -117s71.833 -44 118.5 -44c32 0 58 4.66699 78 14s37.667 21.333 53 36c10 6 19.667 9 29 9c11.333 0 20.833 -4 28.5 -12s11.5 -17.333 11.5 -28
c0 -14 -6.66699 -26.667 -20 -38c-19.333 -19.333 -45 -35.666 -77 -48.999s-64.667 -20 -98 -20c-54 0 -101.5 11.333 -142.5 34s-72.667 54.334 -95 95.001s-33.5 86.667 -33.5 138c0 56 11.5 105.167 34.5 147.5s53.333 74.833 91 97.5s78.167 34 121.5 34
c42.667 0 82.667 -11 120 -33s67.333 -52.333 90 -91s34.334 -82 35.001 -130c-0.666992 -12 -5.66699 -22.167 -15 -30.5zM188.999 416.498c-27.333 -21 -45.335 -53.5 -54.002 -97.5h295v8c-3.33301 35.333 -19.166 64.333 -47.499 87s-60.5 34 -96.5 34
c-37.333 0 -69.666 -10.5 -96.999 -31.5zM264.997 572.998l-91 62c-18 10 -27 23.667 -27 41c0 12 4.5 21.833 13.5 29.5s18.833 11.5 29.5 11.5c14.667 0 28.667 -6.66699 42 -20l78 -81c7.33301 -7.33301 11 -15 11 -23c0 -8.66699 -3 -15.5 -9 -20.5
s-13.667 -7.5 -23 -7.5c-5.33301 0 -13.333 2.66699 -24 8z" />
    <glyph glyph-name="eacute" unicode="&#xe9;" horiz-adv-x="570" 
d="M516 251.5c-9.33301 -8.33301 -20.334 -12.502 -33.001 -12.502h-352c4.66699 -48.667 23.167 -87.667 55.5 -117s71.833 -44 118.5 -44c32 0 58 4.66699 78 14s37.667 21.333 53 36c10 6 19.667 9 29 9c11.333 0 20.833 -4 28.5 -12s11.5 -17.333 11.5 -28
c0 -14 -6.66699 -26.667 -20 -38c-19.333 -19.333 -45 -35.666 -77 -48.999s-64.667 -20 -98 -20c-54 0 -101.5 11.333 -142.5 34s-72.667 54.334 -95 95.001s-33.5 86.667 -33.5 138c0 56 11.5 105.167 34.5 147.5s53.333 74.833 91 97.5s78.167 34 121.5 34
c42.667 0 82.667 -11 120 -33s67.333 -52.333 90 -91s34.334 -82 35.001 -130c-0.666992 -12 -5.66699 -22.167 -15 -30.5zM188.999 416.498c-27.333 -21 -45.335 -53.5 -54.002 -97.5h295v8c-3.33301 35.333 -19.166 64.333 -47.499 87s-60.5 34 -96.5 34
c-37.333 0 -69.666 -10.5 -96.999 -31.5zM266.997 567.998c-6 4.66699 -8.66797 11.001 -8.00098 19.001c0 5.33301 2 11.333 6 18l59 99c5.33301 9.33301 11.833 17 19.5 23s16.5 9 26.5 9c14.667 0 25.834 -3.83301 33.501 -11.5s11.167 -17.834 10.5 -30.501
c0 -12 -5 -23.667 -15 -35l-75 -82c-10.667 -10.667 -24 -16 -40 -16c-5.33301 0 -11 2.33301 -17 7z" />
    <glyph glyph-name="ecircumflex" unicode="&#xea;" horiz-adv-x="570" 
d="M516 251.5c-9.33301 -8.33301 -20.334 -12.502 -33.001 -12.502h-352c4.66699 -48.667 23.167 -87.667 55.5 -117s71.833 -44 118.5 -44c32 0 58 4.66699 78 14s37.667 21.333 53 36c10 6 19.667 9 29 9c11.333 0 20.833 -4 28.5 -12s11.5 -17.333 11.5 -28
c0 -14 -6.66699 -26.667 -20 -38c-19.333 -19.333 -45 -35.666 -77 -48.999s-64.667 -20 -98 -20c-54 0 -101.5 11.333 -142.5 34s-72.667 54.334 -95 95.001s-33.5 86.667 -33.5 138c0 56 11.5 105.167 34.5 147.5s53.333 74.833 91 97.5s78.167 34 121.5 34
c42.667 0 82.667 -11 120 -33s67.333 -52.333 90 -91s34.334 -82 35.001 -130c-0.666992 -12 -5.66699 -22.167 -15 -30.5zM188.999 416.498c-27.333 -21 -45.335 -53.5 -54.002 -97.5h295v8c-3.33301 35.333 -19.166 64.333 -47.499 87s-60.5 34 -96.5 34
c-37.333 0 -69.666 -10.5 -96.999 -31.5zM412.997 622.998c1.33301 -3.33301 2 -7.33301 2 -12c0 -6 -2.33301 -11 -7 -15s-10.667 -6 -18 -6c-8.66699 0 -15 1.16699 -19 3.5s-10.667 7.5 -20 15.5l-64 54l-65 -54c-2 -2 -5.5 -5 -10.5 -9s-9.66699 -6.83301 -14 -8.5
s-9.5 -2.5 -15.5 -2.5c-6.66699 0 -12.334 2.16699 -17.001 6.5s-7 9.16602 -7 14.499s0.666992 9.66602 2 12.999s4 7.33301 8 12l59 70c12 16 28.667 24 50 24h27c10.667 0 19.334 -1.66699 26.001 -5s13 -9.66602 19 -18.999l56 -69
c4 -5.33301 6.66699 -9.66602 8 -12.999z" />
    <glyph glyph-name="edieresis" unicode="&#xeb;" horiz-adv-x="570" 
d="M516 251.5c-9.33301 -8.33301 -20.334 -12.502 -33.001 -12.502h-352c4.66699 -48.667 23.167 -87.667 55.5 -117s71.833 -44 118.5 -44c32 0 58 4.66699 78 14s37.667 21.333 53 36c10 6 19.667 9 29 9c11.333 0 20.833 -4 28.5 -12s11.5 -17.333 11.5 -28
c0 -14 -6.66699 -26.667 -20 -38c-19.333 -19.333 -45 -35.666 -77 -48.999s-64.667 -20 -98 -20c-54 0 -101.5 11.333 -142.5 34s-72.667 54.334 -95 95.001s-33.5 86.667 -33.5 138c0 56 11.5 105.167 34.5 147.5s53.333 74.833 91 97.5s78.167 34 121.5 34
c42.667 0 82.667 -11 120 -33s67.333 -52.333 90 -91s34.334 -82 35.001 -130c-0.666992 -12 -5.66699 -22.167 -15 -30.5zM188.999 416.498c-27.333 -21 -45.335 -53.5 -54.002 -97.5h295v8c-3.33301 35.333 -19.166 64.333 -47.499 87s-60.5 34 -96.5 34
c-37.333 0 -69.666 -10.5 -96.999 -31.5zM146.997 607.998c-8.66699 7.33301 -13 19 -13 35v15c0 30 17.333 45 52 45c19.333 0 33.333 -3.5 42 -10.5s13 -18.5 13 -34.5v-15c0 -16.667 -4.5 -28.5 -13.5 -35.5s-22.833 -10.5 -41.5 -10.5c-17.333 0 -30.333 3.66699 -39 11
zM334.997 607.998c-8.66699 7.33301 -12.999 19 -12.999 35v15c0 30 17.667 45 53 45c18.667 0 32.167 -3.5 40.5 -10.5s12.5 -18.5 12.5 -34.5v-15c0 -16.667 -4.33301 -28.5 -13 -35.5s-22.334 -10.5 -41.001 -10.5c-17.333 0 -30.333 3.66699 -39 11z" />
    <glyph glyph-name="igrave" unicode="&#xec;" horiz-adv-x="227" 
d="M147.5 14c-9 -9.33301 -20.5 -14 -34.5 -14c-13.333 0 -24.5 4.66699 -33.5 14s-13.5 20.666 -13.5 33.999v433c0 13.333 4.5 24.666 13.5 33.999s20.167 14 33.5 14c14 0 25.5 -4.66699 34.5 -14s13.5 -20.666 13.5 -33.999v-433c0 -13.333 -4.5 -24.666 -13.5 -33.999z
M92 573l-91 62c-18 10 -27 23.667 -27 41c0 12 4.5 21.833 13.5 29.5s18.833 11.5 29.5 11.5c14.667 0 28.667 -6.66699 42 -20l78 -81c7.33301 -7.33301 11 -15 11 -23c0 -8.66699 -3 -15.5 -9 -20.5s-13.667 -7.5 -23 -7.5c-5.33301 0 -13.333 2.66699 -24 8z" />
    <glyph glyph-name="iacute" unicode="&#xed;" horiz-adv-x="227" 
d="M147.5 14c-9 -9.33301 -20.5 -14 -34.5 -14c-13.333 0 -24.5 4.66699 -33.5 14s-13.5 20.666 -13.5 33.999v433c0 13.333 4.5 24.666 13.5 33.999s20.167 14 33.5 14c14 0 25.5 -4.66699 34.5 -14s13.5 -20.666 13.5 -33.999v-433c0 -13.333 -4.5 -24.666 -13.5 -33.999z
M94 568c-6 4.66699 -8.66797 11.001 -8.00098 19.001c0 5.33301 2 11.333 6 18l59 99c5.33301 9.33301 11.833 17 19.5 23s16.5 9 26.5 9c14.667 0 25.834 -3.83301 33.501 -11.5s11.167 -17.834 10.5 -30.501c0 -12 -5 -23.667 -15 -35l-75 -82
c-10.667 -10.667 -24 -16 -40 -16c-5.33301 0 -11 2.33301 -17 7z" />
    <glyph glyph-name="icircumflex" unicode="&#xee;" horiz-adv-x="227" 
d="M147.5 14c-9 -9.33301 -20.5 -14 -34.5 -14c-13.333 0 -24.5 4.66699 -33.5 14s-13.5 20.666 -13.5 33.999v433c0 13.333 4.5 24.666 13.5 33.999s20.167 14 33.5 14c14 0 25.5 -4.66699 34.5 -14s13.5 -20.666 13.5 -33.999v-433c0 -13.333 -4.5 -24.666 -13.5 -33.999z
M241 623c1.33301 -3.33301 2 -7.33301 2 -12c0 -6 -2.33301 -11 -7 -15s-10.667 -6 -18 -6c-8.66699 0 -15 1.16699 -19 3.5s-10.667 7.5 -20 15.5l-64 54l-65 -54c-2 -2 -5.5 -5 -10.5 -9s-9.66699 -6.83301 -14 -8.5s-9.5 -2.5 -15.5 -2.5
c-6.66699 0 -12.334 2.16699 -17.001 6.5s-7 9.16602 -7 14.499s0.666992 9.66602 2 12.999s4 7.33301 8 12l59 70c12 16 28.667 24 50 24h27c10.667 0 19.334 -1.66699 26.001 -5s13 -9.66602 19 -18.999l56 -69c4 -5.33301 6.66699 -9.66602 8 -12.999z" />
    <glyph glyph-name="idieresis" unicode="&#xef;" horiz-adv-x="227" 
d="M147.5 14c-9 -9.33301 -20.5 -14 -34.5 -14c-13.333 0 -24.5 4.66699 -33.5 14s-13.5 20.666 -13.5 33.999v433c0 13.333 4.5 24.666 13.5 33.999s20.167 14 33.5 14c14 0 25.5 -4.66699 34.5 -14s13.5 -20.666 13.5 -33.999v-433c0 -13.333 -4.5 -24.666 -13.5 -33.999z
M-25 608c-8.66699 7.33301 -13 19 -13 35v15c0 30 17.333 45 52 45c19.333 0 33.333 -3.5 42 -10.5s13 -18.5 13 -34.5v-15c0 -16.667 -4.5 -28.5 -13.5 -35.5s-22.833 -10.5 -41.5 -10.5c-17.333 0 -30.333 3.66699 -39 11zM163 608
c-8.66699 7.33301 -12.999 19 -12.999 35v15c0 30 17.667 45 53 45c18.667 0 32.167 -3.5 40.5 -10.5s12.5 -18.5 12.5 -34.5v-15c0 -16.667 -4.33301 -28.5 -13 -35.5s-22.334 -10.5 -41.001 -10.5c-17.333 0 -30.333 3.66699 -39 11z" />
    <glyph glyph-name="eth" unicode="&#xf0;" horiz-adv-x="571" 
d="M507 451c16.667 -56 24.999 -112.334 24.999 -169.001c0 -58 -10.833 -108.833 -32.5 -152.5s-51.167 -77.334 -88.5 -101.001s-79 -35.5 -125 -35.5c-45.333 0 -86.833 12 -124.5 36s-67.5 56.5 -89.5 97.5s-33 86.167 -33 135.5c0 48 11.167 92.333 33.5 133
s51.666 72.834 87.999 96.501s74.5 35.5 114.5 35.5c50 0 92.333 -16.667 127 -50c-12 38 -30.667 70.333 -56 97l-153 -38c-6.66699 -1.33301 -12 -2 -16 -2c-10 0 -18.167 2.83301 -24.5 8.5s-9.5 14.167 -9.5 25.5c0 18 10.667 29 32 33l95 24
c-19.333 8 -39.666 15 -60.999 21c-12 3.33301 -21.833 9.33301 -29.5 18s-11.5 18.334 -11.5 29.001c0 12.667 3.5 23.667 10.5 33s17.167 14 30.5 14c7.33301 0 15.333 -1 24 -3c55.333 -14 104.333 -40.333 147 -79l70 16c6.66699 1.33301 11.667 2 15 2
c10 0 18.333 -3 25 -9s10 -14.333 10 -25c0 -8.66699 -2.83301 -16 -8.5 -22s-13.5 -9.66699 -23.5 -11l-35 -8c32.667 -44 57.334 -94 74.001 -150zM362.499 110.499c23 15.667 41.167 36.835 54.5 63.502s20 56 20 88c0 30.667 -6.66699 59.167 -20 85.5
s-31.5 47.166 -54.5 62.499s-48.5 23 -76.5 23s-53.667 -7.5 -77 -22.5s-41.666 -35.5 -54.999 -61.5s-20 -55 -20 -87s6.66699 -61.333 20 -88s31.666 -47.834 54.999 -63.501s49 -23.5 77 -23.5s53.5 7.83301 76.5 23.5z" />
    <glyph glyph-name="ntilde" unicode="&#xf1;" horiz-adv-x="589" 
d="M518 320l0.000976562 -271.999c0 -13.333 -4.5 -24.666 -13.5 -33.999s-20.5 -14 -34.5 -14c-13.333 0 -24.5 4.66699 -33.5 14s-13.5 20.666 -13.5 33.999v271c0 39.333 -9 70.666 -27 93.999s-47.333 35 -88 35c-26.667 0 -50.834 -5.83301 -72.501 -17.5
s-38.667 -27.334 -51 -47.001s-18.5 -41.167 -18.5 -64.5v-271c0 -13.333 -4.5 -24.666 -13.5 -33.999s-20.5 -14 -34.5 -14s-25.333 4.5 -34 13.5s-13 20.5 -13 34.5v428c0 13.333 4.5 24.666 13.5 33.999s20.167 14 33.5 14c14 0 25.5 -4.66699 34.5 -14
s13.5 -20.666 13.5 -33.999v-35c17.333 26.667 41.5 49.167 72.5 67.5s64.167 27.5 99.5 27.5c120 0 180 -72 180 -216zM130.501 601.001c-7.66699 10 -11.166 24.3311 -10.499 42.998c2 22.667 12.667 41.667 32 57s45.333 23 78 23c14.667 0 28.667 -3.16699 42 -9.5
s29.333 -15.5 48 -27.5c12 -8 22 -14.167 30 -18.5s15.333 -6.5 22 -6.5c8 0 14.333 2.5 19 7.5s6.66699 11.833 6 20.5c-0.666992 2 -1 5.33301 -1 10c0 8.66699 3 15.667 9 21s13.333 8 22 8c13.333 0 23.833 -5 31.5 -15s11.167 -23.667 10.5 -41
c-2 -22 -11.5 -41.167 -28.5 -57.5s-41.5 -24.5 -73.5 -24.5c-12 0 -24.5 2.83301 -37.5 8.5s-29.167 14.167 -48.5 25.5c-14.667 8.66699 -26.834 15.334 -36.501 20.001s-18.167 7 -25.5 7c-8 0 -14.5 -2.33301 -19.5 -7s-7.5 -11.667 -7.5 -21
c0.666992 -2 1 -4.66699 1 -8c0 -9.33301 -3 -16.666 -9 -21.999s-13.333 -8 -22 -8c-13.333 0 -23.833 5 -31.5 15z" />
    <glyph glyph-name="ograve" unicode="&#xf2;" horiz-adv-x="606" 
d="M532 122c-23.333 -41.333 -55.166 -73.666 -95.499 -96.999s-84.833 -35 -133.5 -35s-93.167 11.667 -133.5 35s-72.166 55.666 -95.499 96.999s-35 88 -35 140s11.667 99 35 141s55.166 74.667 95.499 98s84.833 35 133.5 35s93.167 -11.667 133.5 -35
s72.166 -56 95.499 -98s35 -89 35 -141s-11.667 -98.667 -35 -140zM449.5 358.5c-15 28.333 -35.333 50.333 -61 66s-54.167 23.5 -85.5 23.5s-59.833 -7.83301 -85.5 -23.5s-46 -37.667 -61 -66s-22.5 -60.5 -22.5 -96.5c0 -35.333 7.5 -67 22.5 -95
s35.333 -49.833 61 -65.5s54.167 -23.5 85.5 -23.5s59.833 7.83301 85.5 23.5s46 37.5 61 65.5s22.5 59.667 22.5 95c0 36 -7.5 68.167 -22.5 96.5zM282 576l-91 62c-18 10 -27 23.667 -27 41c0 12 4.5 21.833 13.5 29.5s18.833 11.5 29.5 11.5
c14.667 0 28.667 -6.66699 42 -20l78 -81c7.33301 -7.33301 11 -15 11 -23c0 -8.66699 -3 -15.5 -9 -20.5s-13.667 -7.5 -23 -7.5c-5.33301 0 -13.333 2.66699 -24 8z" />
    <glyph glyph-name="oacute" unicode="&#xf3;" horiz-adv-x="606" 
d="M532 122c-23.333 -41.333 -55.166 -73.666 -95.499 -96.999s-84.833 -35 -133.5 -35s-93.167 11.667 -133.5 35s-72.166 55.666 -95.499 96.999s-35 88 -35 140s11.667 99 35 141s55.166 74.667 95.499 98s84.833 35 133.5 35s93.167 -11.667 133.5 -35
s72.166 -56 95.499 -98s35 -89 35 -141s-11.667 -98.667 -35 -140zM449.5 358.5c-15 28.333 -35.333 50.333 -61 66s-54.167 23.5 -85.5 23.5s-59.833 -7.83301 -85.5 -23.5s-46 -37.667 -61 -66s-22.5 -60.5 -22.5 -96.5c0 -35.333 7.5 -67 22.5 -95
s35.333 -49.833 61 -65.5s54.167 -23.5 85.5 -23.5s59.833 7.83301 85.5 23.5s46 37.5 61 65.5s22.5 59.667 22.5 95c0 36 -7.5 68.167 -22.5 96.5zM284 571c-6 4.66699 -8.66797 11.001 -8.00098 19.001c0 5.33301 2 11.333 6 18l59 99c5.33301 9.33301 11.833 17 19.5 23
s16.5 9 26.5 9c14.667 0 25.834 -3.83301 33.501 -11.5s11.167 -17.834 10.5 -30.501c0 -12 -5 -23.667 -15 -35l-75 -82c-10.667 -10.667 -24 -16 -40 -16c-5.33301 0 -11 2.33301 -17 7z" />
    <glyph glyph-name="ocircumflex" unicode="&#xf4;" horiz-adv-x="606" 
d="M532 122c-23.333 -41.333 -55.166 -73.666 -95.499 -96.999s-84.833 -35 -133.5 -35s-93.167 11.667 -133.5 35s-72.166 55.666 -95.499 96.999s-35 88 -35 140s11.667 99 35 141s55.166 74.667 95.499 98s84.833 35 133.5 35s93.167 -11.667 133.5 -35
s72.166 -56 95.499 -98s35 -89 35 -141s-11.667 -98.667 -35 -140zM449.5 358.5c-15 28.333 -35.333 50.333 -61 66s-54.167 23.5 -85.5 23.5s-59.833 -7.83301 -85.5 -23.5s-46 -37.667 -61 -66s-22.5 -60.5 -22.5 -96.5c0 -35.333 7.5 -67 22.5 -95
s35.333 -49.833 61 -65.5s54.167 -23.5 85.5 -23.5s59.833 7.83301 85.5 23.5s46 37.5 61 65.5s22.5 59.667 22.5 95c0 36 -7.5 68.167 -22.5 96.5zM431 626c1.33301 -3.33301 2 -7.33301 2 -12c0 -6 -2.33301 -11 -7 -15s-10.667 -6 -18 -6c-8.66699 0 -15 1.16699 -19 3.5
s-10.667 7.5 -20 15.5l-64 54l-65 -54c-2 -2 -5.5 -5 -10.5 -9s-9.66699 -6.83301 -14 -8.5s-9.5 -2.5 -15.5 -2.5c-6.66699 0 -12.334 2.16699 -17.001 6.5s-7 9.16602 -7 14.499s0.666992 9.66602 2 12.999s4 7.33301 8 12l59 70c12 16 28.667 24 50 24h27
c10.667 0 19.334 -1.66699 26.001 -5s13 -9.66602 19 -18.999l56 -69c4 -5.33301 6.66699 -9.66602 8 -12.999z" />
    <glyph glyph-name="otilde" unicode="&#xf5;" horiz-adv-x="606" 
d="M532 122c-23.333 -41.333 -55.166 -73.666 -95.499 -96.999s-84.833 -35 -133.5 -35s-93.167 11.667 -133.5 35s-72.166 55.666 -95.499 96.999s-35 88 -35 140s11.667 99 35 141s55.166 74.667 95.499 98s84.833 35 133.5 35s93.167 -11.667 133.5 -35
s72.166 -56 95.499 -98s35 -89 35 -141s-11.667 -98.667 -35 -140zM449.5 358.5c-15 28.333 -35.333 50.333 -61 66s-54.167 23.5 -85.5 23.5s-59.833 -7.83301 -85.5 -23.5s-46 -37.667 -61 -66s-22.5 -60.5 -22.5 -96.5c0 -35.333 7.5 -67 22.5 -95
s35.333 -49.833 61 -65.5s54.167 -23.5 85.5 -23.5s59.833 7.83301 85.5 23.5s46 37.5 61 65.5s22.5 59.667 22.5 95c0 36 -7.5 68.167 -22.5 96.5zM139.5 604c-7.66699 10 -11.166 24.3311 -10.499 42.998c2 22.667 12.667 41.667 32 57s45.333 23 78 23
c14.667 0 28.667 -3.16699 42 -9.5s29.333 -15.5 48 -27.5c12 -8 22 -14.167 30 -18.5s15.333 -6.5 22 -6.5c8 0 14.333 2.5 19 7.5s6.66699 11.833 6 20.5c-0.666992 2 -1 5.33301 -1 10c0 8.66699 3 15.667 9 21s13.333 8 22 8c13.333 0 23.833 -5 31.5 -15
s11.167 -23.667 10.5 -41c-2 -22 -11.5 -41.167 -28.5 -57.5s-41.5 -24.5 -73.5 -24.5c-12 0 -24.5 2.83301 -37.5 8.5s-29.167 14.167 -48.5 25.5c-14.667 8.66699 -26.834 15.334 -36.501 20.001s-18.167 7 -25.5 7c-8 0 -14.5 -2.33301 -19.5 -7s-7.5 -11.667 -7.5 -21
c0.666992 -2 1 -4.66699 1 -8c0 -9.33301 -3 -16.666 -9 -21.999s-13.333 -8 -22 -8c-13.333 0 -23.833 5 -31.5 15z" />
    <glyph glyph-name="odieresis" unicode="&#xf6;" horiz-adv-x="606" 
d="M532 122c-23.333 -41.333 -55.166 -73.666 -95.499 -96.999s-84.833 -35 -133.5 -35s-93.167 11.667 -133.5 35s-72.166 55.666 -95.499 96.999s-35 88 -35 140s11.667 99 35 141s55.166 74.667 95.499 98s84.833 35 133.5 35s93.167 -11.667 133.5 -35
s72.166 -56 95.499 -98s35 -89 35 -141s-11.667 -98.667 -35 -140zM449.5 358.5c-15 28.333 -35.333 50.333 -61 66s-54.167 23.5 -85.5 23.5s-59.833 -7.83301 -85.5 -23.5s-46 -37.667 -61 -66s-22.5 -60.5 -22.5 -96.5c0 -35.333 7.5 -67 22.5 -95
s35.333 -49.833 61 -65.5s54.167 -23.5 85.5 -23.5s59.833 7.83301 85.5 23.5s46 37.5 61 65.5s22.5 59.667 22.5 95c0 36 -7.5 68.167 -22.5 96.5zM165 611c-8.66699 7.33301 -13 19 -13 35v15c0 30 17.333 45 52 45c19.333 0 33.333 -3.5 42 -10.5s13 -18.5 13 -34.5v-15
c0 -16.667 -4.5 -28.5 -13.5 -35.5s-22.833 -10.5 -41.5 -10.5c-17.333 0 -30.333 3.66699 -39 11zM353 611c-8.66699 7.33301 -12.999 19 -12.999 35v15c0 30 17.667 45 53 45c18.667 0 32.167 -3.5 40.5 -10.5s12.5 -18.5 12.5 -34.5v-15
c0 -16.667 -4.33301 -28.5 -13 -35.5s-22.334 -10.5 -41.001 -10.5c-17.333 0 -30.333 3.66699 -39 11z" />
    <glyph glyph-name="divide" unicode="&#xf7;" horiz-adv-x="596" 
d="M246.5 480c12.333 12.667 27.5 19 45.5 19c17.333 0 32.333 -6.33301 45 -19s19 -28 19 -46c0 -17.333 -6.33301 -32.333 -19 -45s-27.667 -19 -45 -19c-18 0 -33.167 6.33301 -45.5 19s-18.5 27.667 -18.5 45c0 18 6.16699 33.333 18.5 46zM63.5 226
c-9 8.66699 -13.5 19.668 -13.5 33.001c0 12 4.5 22.167 13.5 30.5s20.167 12.5 33.5 12.5h401c14 0 25.5 -4.33301 34.5 -13s13.5 -19 13.5 -31c0 -12.667 -4.5 -23.334 -13.5 -32.001s-20.5 -13 -34.5 -13h-401c-13.333 0 -24.5 4.33301 -33.5 13zM246.5 123.001
c12.333 12.667 27.5 19 45.5 19c17.333 0 32.333 -6.33301 45 -19s19 -27.667 19 -45s-6.33301 -32.333 -19 -45s-27.667 -19 -45 -19c-18 0 -33.167 6.33301 -45.5 19s-18.5 27.667 -18.5 45s6.16699 32.333 18.5 45z" />
    <glyph glyph-name="oslash" unicode="&#xf8;" horiz-adv-x="609" 
d="M567 262c0 -52 -11.667 -98.666 -35 -139.999s-55.166 -73.666 -95.499 -96.999s-84.833 -35 -133.5 -35c-54 0 -102.333 14 -145 42l-41 -48c-8.66699 -10 -19 -15 -31 -15c-11.333 0 -21 4.16699 -29 12.5s-12 17.5 -12 27.5c0 11.333 3.33301 20.666 10 27.999l42 50
c-38.667 49.333 -58 107.666 -58 174.999c0 52 11.667 99 35 141s55.166 74.667 95.499 98s84.833 35 133.5 35c52 0 99.667 -13.667 143 -41l29 35c8.66699 10 19 15 31 15c11.333 0 21 -4 29 -12s12 -17.667 12 -29s-3.33301 -20.333 -10 -27l-31 -36
c40.667 -50 61 -109.667 61 -179zM160 160.001l226 266c-25.333 14.667 -53 22 -83 22c-31.333 0 -59.833 -7.83301 -85.5 -23.5s-46 -37.667 -61 -66s-22.5 -60.5 -22.5 -96.5c0 -36.667 8.66699 -70.667 26 -102zM388.5 101.501c25.667 15.667 46 37.5 61 65.5
s22.5 59.667 22.5 95c0 40.667 -9.33301 76 -28 106l-227 -266c25.333 -16 54 -24 86 -24c31.333 0 59.833 7.83301 85.5 23.5z" />
    <glyph glyph-name="ugrave" unicode="&#xf9;" horiz-adv-x="580" 
d="M495.5 510c9 -9.33301 13.5 -20.666 13.5 -33.999v-266c0 -69.333 -19.167 -123.166 -57.5 -161.499s-92.5 -57.5 -162.5 -57.5c-69.333 0 -123 19.167 -161 57.5s-57 92.166 -57 161.499v266c0 13.333 4.5 24.666 13.5 33.999s20.167 14 33.5 14
c14 0 25.5 -4.66699 34.5 -14s13.5 -20.666 13.5 -33.999v-266c0 -87.333 41 -131 123 -131c40.667 0 71.667 11 93 33s32 54.667 32 98v266c0 13.333 4.5 24.666 13.5 33.999s20.167 14 33.5 14c14 0 25.5 -4.66699 34.5 -14zM269 573l-91 62c-18 10 -27 23.667 -27 41
c0 12 4.5 21.833 13.5 29.5s18.833 11.5 29.5 11.5c14.667 0 28.667 -6.66699 42 -20l78 -81c7.33301 -7.33301 11 -15 11 -23c0 -8.66699 -3 -15.5 -9 -20.5s-13.667 -7.5 -23 -7.5c-5.33301 0 -13.333 2.66699 -24 8z" />
    <glyph glyph-name="uacute" unicode="&#xfa;" horiz-adv-x="580" 
d="M495.5 510c9 -9.33301 13.5 -20.666 13.5 -33.999v-266c0 -69.333 -19.167 -123.166 -57.5 -161.499s-92.5 -57.5 -162.5 -57.5c-69.333 0 -123 19.167 -161 57.5s-57 92.166 -57 161.499v266c0 13.333 4.5 24.666 13.5 33.999s20.167 14 33.5 14
c14 0 25.5 -4.66699 34.5 -14s13.5 -20.666 13.5 -33.999v-266c0 -87.333 41 -131 123 -131c40.667 0 71.667 11 93 33s32 54.667 32 98v266c0 13.333 4.5 24.666 13.5 33.999s20.167 14 33.5 14c14 0 25.5 -4.66699 34.5 -14zM271 568
c-6 4.66699 -8.66797 11.001 -8.00098 19.001c0 5.33301 2 11.333 6 18l59 99c5.33301 9.33301 11.833 17 19.5 23s16.5 9 26.5 9c14.667 0 25.834 -3.83301 33.501 -11.5s11.167 -17.834 10.5 -30.501c0 -12 -5 -23.667 -15 -35l-75 -82c-10.667 -10.667 -24 -16 -40 -16
c-5.33301 0 -11 2.33301 -17 7z" />
    <glyph glyph-name="ucircumflex" unicode="&#xfb;" horiz-adv-x="580" 
d="M495.5 510c9 -9.33301 13.5 -20.666 13.5 -33.999v-266c0 -69.333 -19.167 -123.166 -57.5 -161.499s-92.5 -57.5 -162.5 -57.5c-69.333 0 -123 19.167 -161 57.5s-57 92.166 -57 161.499v266c0 13.333 4.5 24.666 13.5 33.999s20.167 14 33.5 14
c14 0 25.5 -4.66699 34.5 -14s13.5 -20.666 13.5 -33.999v-266c0 -87.333 41 -131 123 -131c40.667 0 71.667 11 93 33s32 54.667 32 98v266c0 13.333 4.5 24.666 13.5 33.999s20.167 14 33.5 14c14 0 25.5 -4.66699 34.5 -14zM418 623c1.33301 -3.33301 2 -7.33301 2 -12
c0 -6 -2.33301 -11 -7 -15s-10.667 -6 -18 -6c-8.66699 0 -15 1.16699 -19 3.5s-10.667 7.5 -20 15.5l-64 54l-65 -54c-2 -2 -5.5 -5 -10.5 -9s-9.66699 -6.83301 -14 -8.5s-9.5 -2.5 -15.5 -2.5c-6.66699 0 -12.334 2.16699 -17.001 6.5s-7 9.16602 -7 14.499
s0.666992 9.66602 2 12.999s4 7.33301 8 12l59 70c12 16 28.667 24 50 24h27c10.667 0 19.334 -1.66699 26.001 -5s13 -9.66602 19 -18.999l56 -69c4 -5.33301 6.66699 -9.66602 8 -12.999z" />
    <glyph glyph-name="udieresis" unicode="&#xfc;" horiz-adv-x="580" 
d="M495.5 510c9 -9.33301 13.5 -20.666 13.5 -33.999v-266c0 -69.333 -19.167 -123.166 -57.5 -161.499s-92.5 -57.5 -162.5 -57.5c-69.333 0 -123 19.167 -161 57.5s-57 92.166 -57 161.499v266c0 13.333 4.5 24.666 13.5 33.999s20.167 14 33.5 14
c14 0 25.5 -4.66699 34.5 -14s13.5 -20.666 13.5 -33.999v-266c0 -87.333 41 -131 123 -131c40.667 0 71.667 11 93 33s32 54.667 32 98v266c0 13.333 4.5 24.666 13.5 33.999s20.167 14 33.5 14c14 0 25.5 -4.66699 34.5 -14zM152 608c-8.66699 7.33301 -13 19 -13 35v15
c0 30 17.333 45 52 45c19.333 0 33.333 -3.5 42 -10.5s13 -18.5 13 -34.5v-15c0 -16.667 -4.5 -28.5 -13.5 -35.5s-22.833 -10.5 -41.5 -10.5c-17.333 0 -30.333 3.66699 -39 11zM340 608c-8.66699 7.33301 -12.999 19 -12.999 35v15c0 30 17.667 45 53 45
c18.667 0 32.167 -3.5 40.5 -10.5s12.5 -18.5 12.5 -34.5v-15c0 -16.667 -4.33301 -28.5 -13 -35.5s-22.334 -10.5 -41.001 -10.5c-17.333 0 -30.333 3.66699 -39 11z" />
    <glyph glyph-name="yacute" unicode="&#xfd;" horiz-adv-x="579" 
d="M495.5 515c9 -9.33301 13.502 -20.667 13.502 -34v-432c0 -83.333 -23 -145.666 -69 -186.999s-106.667 -62 -182 -62c-24.667 0 -49 2.33301 -73 7s-43.667 11 -59 19c-24.667 11.333 -37 26.666 -37 45.999c0 3.33301 0.666992 7.66602 2 12.999
c4 11.333 9.66699 20 17 26s15.666 9 24.999 9c5.33301 0 10.333 -1 15 -3c20.667 -9.33301 39 -16.666 55 -21.999s34.667 -8 56 -8c103.333 0 155 53 155 159v20c-18 -24 -41.167 -42.667 -69.5 -56s-60.833 -20 -97.5 -20c-55.333 0 -98.5 17.667 -129.5 53
s-46.5 81.666 -46.5 138.999v299c0 14 4.33301 25.5 13 34.5s20 13.5 34 13.5s25.5 -4.66699 34.5 -14s13.5 -20.666 13.5 -33.999v-274c0 -44 9.66699 -76.5 29 -97.5s48.666 -31.5 87.999 -31.5c38 0 69.333 12 94 36s37 55 37 93v274c0 14 4.33301 25.5 13 34.5
s20 13.5 34 13.5s25.5 -4.66699 34.5 -14zM271.002 567.999c-6 4.66699 -8.66797 11.001 -8.00098 19.001c0 5.33301 2 11.333 6 18l59 99c5.33301 9.33301 11.833 17 19.5 23s16.5 9 26.5 9c14.667 0 25.834 -3.83301 33.501 -11.5s11.167 -17.834 10.5 -30.501
c0 -12 -5 -23.667 -15 -35l-75 -82c-10.667 -10.667 -24 -16 -40 -16c-5.33301 0 -11 2.33301 -17 7z" />
    <glyph glyph-name="thorn" unicode="&#xfe;" horiz-adv-x="614" 
d="M457 498.5c36.667 -23 65.499 -55.1689 86.499 -96.502s31.5 -88 31.5 -140s-10.5 -98.5 -31.5 -139.5s-49.833 -73.167 -86.5 -96.5s-77 -35 -121 -35c-34.667 0 -67 7.66699 -97 23s-54.333 34 -73 56v-222c0 -13.333 -4.5 -24.666 -13.5 -33.999s-20.5 -14 -34.5 -14
c-13.333 0 -24.5 4.5 -33.5 13.5s-13.5 20.5 -13.5 34.5v844c0 14 4.33301 25.5 13 34.5s20 13.5 34 13.5s25.5 -4.66699 34.5 -14s13.5 -20.666 13.5 -33.999v-244c16 23.333 39.333 43.333 70 60s63.334 25 98.001 25c45.333 0 86.333 -11.5 123 -34.5zM405.999 102.998
c24.667 16 43.834 37.8311 57.501 65.498s20.5 58.834 20.5 93.501s-6.83301 65.834 -20.5 93.501s-32.834 49.5 -57.501 65.5s-52.334 24 -83.001 24c-31.333 0 -59.333 -7.83301 -84 -23.5s-43.834 -37.5 -57.501 -65.5s-20.5 -59.333 -20.5 -94s6.83301 -66 20.5 -94
s32.834 -49.833 57.501 -65.5s52.667 -23.5 84 -23.5c30.667 0 58.334 8 83.001 24z" />
    <glyph glyph-name="ydieresis" unicode="&#xff;" horiz-adv-x="579" 
d="M495.5 515c9 -9.33301 13.502 -20.667 13.502 -34v-432c0 -83.333 -23 -145.666 -69 -186.999s-106.667 -62 -182 -62c-24.667 0 -49 2.33301 -73 7s-43.667 11 -59 19c-24.667 11.333 -37 26.666 -37 45.999c0 3.33301 0.666992 7.66602 2 12.999
c4 11.333 9.66699 20 17 26s15.666 9 24.999 9c5.33301 0 10.333 -1 15 -3c20.667 -9.33301 39 -16.666 55 -21.999s34.667 -8 56 -8c103.333 0 155 53 155 159v20c-18 -24 -41.167 -42.667 -69.5 -56s-60.833 -20 -97.5 -20c-55.333 0 -98.5 17.667 -129.5 53
s-46.5 81.666 -46.5 138.999v299c0 14 4.33301 25.5 13 34.5s20 13.5 34 13.5s25.5 -4.66699 34.5 -14s13.5 -20.666 13.5 -33.999v-274c0 -44 9.66699 -76.5 29 -97.5s48.666 -31.5 87.999 -31.5c38 0 69.333 12 94 36s37 55 37 93v274c0 14 4.33301 25.5 13 34.5
s20 13.5 34 13.5s25.5 -4.66699 34.5 -14zM151.002 607.999c-8.66699 7.33301 -13 19 -13 35v15c0 30 17.333 45 52 45c19.333 0 33.333 -3.5 42 -10.5s13 -18.5 13 -34.5v-15c0 -16.667 -4.5 -28.5 -13.5 -35.5s-22.833 -10.5 -41.5 -10.5
c-17.333 0 -30.333 3.66699 -39 11zM339.002 607.999c-8.66699 7.33301 -12.999 19 -12.999 35v15c0 30 17.667 45 53 45c18.667 0 32.167 -3.5 40.5 -10.5s12.5 -18.5 12.5 -34.5v-15c0 -16.667 -4.33301 -28.5 -13 -35.5s-22.334 -10.5 -41.001 -10.5
c-17.333 0 -30.333 3.66699 -39 11z" />
    <glyph glyph-name="Amacron" unicode="&#x100;" horiz-adv-x="642" 
d="M624 43c0 -13.333 -4.49902 -24.335 -13.499 -33.002s-19.5 -13 -31.5 -13c-9.33301 0 -17.833 2.83301 -25.5 8.5s-13.834 13.5 -18.501 23.5l-62 147h-309l-61 -148c-3.33301 -10 -8.83301 -17.667 -16.5 -23s-16.167 -8 -25.5 -8c-14 0 -24.667 3.66699 -32 11
s-11 17.333 -11 30c0 2.66699 0.666992 8 2 16l255 618c4.66699 10.667 11.167 18.834 19.5 24.501s17.833 7.83398 28.5 6.50098c10 0 19 -2.66699 27 -8s13.667 -13 17 -23l254 -610c2 -6 3 -12.333 3 -19zM435.001 266.998l-117 280l-116 -280h233zM169.501 774.498
c-7 6.33301 -10.5 15.5 -10.5 27.5c0 24 13.667 36 41 36h248c27.333 0 41 -12 41 -36c0 -12 -3.5 -21.167 -10.5 -27.5s-17.167 -9.5 -30.5 -9.5h-248c-13.333 0 -23.5 3.16699 -30.5 9.5z" />
    <glyph glyph-name="amacron" unicode="&#x101;" horiz-adv-x="614" 
d="M530.5 517.5c9 -9 13.501 -20.834 13.501 -35.501v-434c0 -13.333 -4.5 -24.666 -13.5 -33.999s-20.5 -14 -34.5 -14s-25.333 4.5 -34 13.5s-13 20.5 -13 34.5v26c-17.333 -23.333 -41 -43.166 -71 -59.499s-62.333 -24.5 -97 -24.5c-45.333 0 -86.5 11.667 -123.5 35
s-66 55.833 -87 97.5s-31.5 88.5 -31.5 140.5s10.5 98.833 31.5 140.5s49.833 74.167 86.5 97.5s77 35 121 35c35.333 0 68.166 -7.33301 98.499 -22s54.5 -33.334 72.5 -56.001v24c0 14 4.33301 25.667 13 35s20 14 34 14s25.5 -4.5 34.5 -13.5zM375.501 101.999
c24.333 16 43.333 38 57 66s20.5 59.667 20.5 95c0 34.667 -6.83301 66 -20.5 94s-32.667 50.167 -57 66.5s-52.166 24.5 -83.499 24.5s-59.166 -8 -83.499 -24s-43.333 -38 -57 -66s-20.5 -59.667 -20.5 -95s6.83301 -67 20.5 -95s32.667 -50 57 -66s52.166 -24 83.499 -24
s59.166 8 83.499 24zM146.001 610.999c-7.33301 6.66699 -11 16 -11 28c0 11.333 3.5 20.166 10.5 26.499s17.167 9.5 30.5 9.5h241c13.333 0 23.5 -3.16699 30.5 -9.5s10.5 -15.166 10.5 -26.499c0 -12 -3.5 -21.333 -10.5 -28s-17.167 -10 -30.5 -10h-241
c-12.667 0 -22.667 3.33301 -30 10z" />
    <glyph glyph-name="Abreve" unicode="&#x102;" horiz-adv-x="642" 
d="M624 43c0 -13.333 -4.49902 -24.335 -13.499 -33.002s-19.5 -13 -31.5 -13c-9.33301 0 -17.833 2.83301 -25.5 8.5s-13.834 13.5 -18.501 23.5l-62 147h-309l-61 -148c-3.33301 -10 -8.83301 -17.667 -16.5 -23s-16.167 -8 -25.5 -8c-14 0 -24.667 3.66699 -32 11
s-11 17.333 -11 30c0 2.66699 0.666992 8 2 16l255 618c4.66699 10.667 11.167 18.834 19.5 24.501s17.833 7.83398 28.5 6.50098c10 0 19 -2.66699 27 -8s13.667 -13 17 -23l254 -610c2 -6 3 -12.333 3 -19zM435.001 266.998l-117 280l-116 -280h233zM229.501 789.998
c-26.333 16.667 -44.834 40.3311 -55.501 70.998c-2.66699 6 -4 12 -4 18c0 8.66699 2.5 15.334 7.5 20.001s11.833 7 20.5 7c10.667 0 19 -2.33301 25 -7s13.667 -12.667 23 -24c16.667 -26.667 42.334 -40 77.001 -40c36 0 61.667 13.333 77 40
c6.66699 10.667 13.5 18.334 20.5 23.001s15.833 7 26.5 7c9.33301 0 16.5 -2.16699 21.5 -6.5s7.5 -10.833 7.5 -19.5c0 -5.33301 -1 -11 -3 -17c-10.667 -30.667 -29.167 -54.5 -55.5 -71.5s-57.833 -25.5 -94.5 -25.5c-36 0 -67.167 8.33301 -93.5 25z" />
    <glyph glyph-name="abreve" unicode="&#x103;" horiz-adv-x="614" 
d="M530.5 517.5c9 -9 13.501 -20.834 13.501 -35.501v-434c0 -13.333 -4.5 -24.666 -13.5 -33.999s-20.5 -14 -34.5 -14s-25.333 4.5 -34 13.5s-13 20.5 -13 34.5v26c-17.333 -23.333 -41 -43.166 -71 -59.499s-62.333 -24.5 -97 -24.5c-45.333 0 -86.5 11.667 -123.5 35
s-66 55.833 -87 97.5s-31.5 88.5 -31.5 140.5s10.5 98.833 31.5 140.5s49.833 74.167 86.5 97.5s77 35 121 35c35.333 0 68.166 -7.33301 98.499 -22s54.5 -33.334 72.5 -56.001v24c0 14 4.33301 25.667 13 35s20 14 34 14s25.5 -4.5 34.5 -13.5zM375.501 101.999
c24.333 16 43.333 38 57 66s20.5 59.667 20.5 95c0 34.667 -6.83301 66 -20.5 94s-32.667 50.167 -57 66.5s-52.166 24.5 -83.499 24.5s-59.166 -8 -83.499 -24s-43.333 -38 -57 -66s-20.5 -59.667 -20.5 -95s6.83301 -67 20.5 -95s32.667 -50 57 -66s52.166 -24 83.499 -24
s59.166 8 83.499 24zM200.001 599.999c-26.667 19.333 -44.333 44.667 -53 76c-2 5.33301 -3 10.333 -3 15c0 8.66699 2.66699 15.5 8 20.5s12.333 7.5 21 7.5c11.333 0 20.333 -2.5 27 -7.5s13.667 -12.833 21 -23.5c6 -15.333 15.333 -27 28 -35s27.667 -12 45 -12
s32.166 4.16699 44.499 12.5s21.833 19.833 28.5 34.5c7.33301 10.667 14.333 18.5 21 23.5s15.334 7.5 26.001 7.5c8.66699 0 15.834 -2.5 21.501 -7.5s8.5 -11.5 8.5 -19.5c0 -4.66699 -1 -9.66699 -3 -15c-8.66699 -32 -26.334 -57.667 -53.001 -77s-58 -29 -94 -29
s-67.333 9.66699 -94 29z" />
    <glyph glyph-name="Aogonek" unicode="&#x104;" horiz-adv-x="645" 
d="M633 -106c6.66699 -6.66699 9.99902 -15.667 9.99902 -27c0 -10 -4.83301 -20.333 -14.5 -31s-22.334 -19.334 -38.001 -26.001s-32.167 -10 -49.5 -10c-31.333 0 -57.5 8.83301 -78.5 26.5s-31.5 42.834 -31.5 75.501s9.33301 59.334 28 80.001s43.334 37.667 74.001 51
l-60 143h-309l-61 -148c-3.33301 -10 -8.83301 -17.667 -16.5 -23s-16.167 -8 -25.5 -8c-15.333 0 -26.166 3.16699 -32.499 9.5s-9.5 16.166 -9.5 29.499v5c0 5.33301 1 10.333 3 15l253 616c4.66699 10.667 11.167 18.834 19.5 24.501s17.833 7.83398 28.5 6.50098
c10 0 19 -2.66699 27 -8s13.667 -13 17 -23l261 -628c2.66699 -4.66699 4 -9.33398 4 -14.001c0 -7.33301 -2.16699 -13.833 -6.5 -19.5s-10.833 -9.5 -19.5 -11.5c-26.667 -7.33301 -49 -18.333 -67 -33s-27 -30.334 -27 -47.001c0 -14 3.66699 -24.833 11 -32.5
s16 -11.5 26 -11.5c10.667 0 19 4 25 12c8 11.333 19.333 17 34 17c10 0 18.333 -3.33301 25 -10zM434.999 267l-117 280l-116 -280h233z" />
    <glyph glyph-name="aogonek" unicode="&#x105;" horiz-adv-x="614" 
d="M548 -113c6.66699 -6.66699 10 -15.667 10 -27c0 -10 -4.83301 -20.333 -14.5 -31s-22.5 -19.334 -38.5 -26.001s-32.667 -10 -50 -10c-31.333 0 -57.5 8.83301 -78.5 26.5s-31.5 42.834 -31.5 75.501c0 59.333 34.667 103 104 131v48
c-17.333 -23.333 -41 -43.166 -71 -59.499s-62.333 -24.5 -97 -24.5c-45.333 0 -86.5 11.667 -123.5 35s-66 55.833 -87 97.5s-31.5 88.5 -31.5 140.5s10.5 98.833 31.5 140.5s49.833 74.167 86.5 97.5s77 35 121 35c35.333 0 68.166 -7.33301 98.499 -22
s54.5 -33.334 72.5 -56.001v24c0 14 4.33301 25.667 13 35s20 14 34 14s25.5 -4.5 34.5 -13.5s13.5 -20.833 13.5 -35.5v-459c0 -16.667 -9.33301 -28 -28 -34c-26.667 -8 -48.5 -18.667 -65.5 -32s-25.5 -28 -25.5 -44c0 -14 3.83301 -25 11.5 -33s16.834 -12 27.501 -12
c10 0 18 4 24 12c8 11.333 19.667 17 35 17c10 0 18.333 -3.33301 25 -10zM375.5 102c24.333 16 43.333 38 57 66s20.5 59.667 20.5 95c0 34.667 -6.83301 66 -20.5 94s-32.667 50.167 -57 66.5s-52.166 24.5 -83.499 24.5s-59.166 -8 -83.499 -24s-43.333 -38 -57 -66
s-20.5 -59.667 -20.5 -95s6.83301 -67 20.5 -95s32.667 -50 57 -66s52.166 -24 83.499 -24s59.166 8 83.499 24z" />
    <glyph glyph-name="Cacute" unicode="&#x106;" horiz-adv-x="638" 
d="M606 619c0 -12 -4.00488 -22.999 -12.0049 -32.999c-8 -10.667 -19 -16 -33 -16c-9.33301 0 -18.333 2.33301 -27 7c-41.333 23.333 -86 35 -134 35c-50 0 -94.167 -11 -132.5 -33s-68.166 -52.833 -89.499 -92.5s-32 -85.167 -32 -136.5c0 -55.333 11 -103 33 -143
s52.333 -70.5 91 -91.5s82 -31.5 130 -31.5c49.333 0 94 12 134 36c8 4 16.667 6 26 6c14.667 0 26.334 -5.66699 35.001 -17c8 -10 12 -20.667 12 -32c0 -8 -2.16699 -15.5 -6.5 -22.5s-10.166 -12.5 -17.499 -16.5c-26 -14.667 -55.167 -26.334 -87.5 -35.001
s-64.166 -13 -95.499 -13c-64.667 0 -124.167 14.333 -178.5 43s-97.666 70.334 -129.999 125.001s-48.5 118.667 -48.5 192c0 67.333 15.5 128.166 46.5 182.499s73.667 97 128 128s115.166 46.5 182.499 46.5c64.667 0 125.334 -16 182.001 -48c16 -8.66699 24 -22 24 -40
zM352.495 749.501c-5.66699 5 -8.50098 11.832 -8.50098 20.499s4 16.334 12 23.001l88 74c14 11.333 27.333 17 40 17c11.333 0 21.5 -4 30.5 -12s13.5 -17.667 13.5 -29c0 -8.66699 -2.66699 -17 -8 -25s-12.666 -14.333 -21.999 -19l-99 -51c-8 -4 -15.667 -6 -23 -6
c-10 0 -17.833 2.5 -23.5 7.5z" />
    <glyph glyph-name="cacute" unicode="&#x107;" horiz-adv-x="514" 
d="M430.5 511c35 -16.667 52.5029 -38.002 52.5029 -64.002c0 -11.333 -3.66699 -21.5 -11 -30.5s-16.666 -13.5 -27.999 -13.5c-8.66699 0 -15.5 1.33301 -20.5 4s-11.833 7 -20.5 13c-4 4 -10.333 8.66699 -19 14c-8 4 -19.333 7.33301 -34 10s-28 4 -40 4
c-34.667 0 -65.334 -8 -92.001 -24s-47.334 -38.167 -62.001 -66.5s-22 -59.833 -22 -94.5c0 -35.333 7.16699 -67 21.5 -95s34.5 -50 60.5 -66s55.667 -24 89 -24c34.667 0 62.667 5.33301 84 16c4.66699 2.66699 11 7 19 13c6.66699 5.33301 12.5 9.33301 17.5 12
s11.167 4 18.5 4c13.333 0 23.833 -4.16699 31.5 -12.5s11.5 -19.166 11.5 -32.499c0 -14 -8.83301 -27.833 -26.5 -41.5s-41.334 -24.834 -71.001 -33.501s-61.5 -13 -95.5 -13c-50.667 0 -95.334 11.833 -134.001 35.5s-68.5 56.334 -89.5 98.001
s-31.5 88.167 -31.5 139.5s11 97.833 33 139.5s52.667 74.334 92 98.001s84.333 35.5 135 35.5c52.667 0 96.5 -8.33301 131.5 -25zM279.003 567.998c-6 4.66699 -8.66797 11.001 -8.00098 19.001c0 5.33301 2 11.333 6 18l59 99c5.33301 9.33301 11.833 17 19.5 23
s16.5 9 26.5 9c14.667 0 25.834 -3.83301 33.501 -11.5s11.167 -17.834 10.5 -30.501c0 -12 -5 -23.667 -15 -35l-75 -82c-10.667 -10.667 -24 -16 -40 -16c-5.33301 0 -11 2.33301 -17 7z" />
    <glyph glyph-name="Ccircumflex" unicode="&#x108;" horiz-adv-x="638" 
d="M606 619c0 -12 -4.00488 -22.999 -12.0049 -32.999c-8 -10.667 -19 -16 -33 -16c-9.33301 0 -18.333 2.33301 -27 7c-41.333 23.333 -86 35 -134 35c-50 0 -94.167 -11 -132.5 -33s-68.166 -52.833 -89.499 -92.5s-32 -85.167 -32 -136.5c0 -55.333 11 -103 33 -143
s52.333 -70.5 91 -91.5s82 -31.5 130 -31.5c49.333 0 94 12 134 36c8 4 16.667 6 26 6c14.667 0 26.334 -5.66699 35.001 -17c8 -10 12 -20.667 12 -32c0 -8 -2.16699 -15.5 -6.5 -22.5s-10.166 -12.5 -17.499 -16.5c-26 -14.667 -55.167 -26.334 -87.5 -35.001
s-64.166 -13 -95.499 -13c-64.667 0 -124.167 14.333 -178.5 43s-97.666 70.334 -129.999 125.001s-48.5 118.667 -48.5 192c0 67.333 15.5 128.166 46.5 182.499s73.667 97 128 128s115.166 46.5 182.499 46.5c64.667 0 125.334 -16 182.001 -48c16 -8.66699 24 -22 24 -40
zM511.995 770.001c0 -5.33301 -2.5 -10.1699 -7.5 -14.5029s-10.833 -6.5 -17.5 -6.5c-4.66699 0 -10.667 1.83301 -18 5.5s-15 7.83398 -23 12.501l-73 47l-70 -47c-8 -5.33301 -15.5 -9.66602 -22.5 -12.999s-13.167 -5 -18.5 -5c-6.66699 0 -12.5 2.16699 -17.5 6.5
s-7.5 9.16602 -7.5 14.499c0 4 1 7.83301 3 11.5s5 7.83398 9 12.501l69 76c7.33301 8.66699 14.666 14.834 21.999 18.501s16.333 5.5 27 5.5h14c10.667 0 19.834 -2 27.501 -6s15.167 -10 22.5 -18l69 -76c8 -8.66699 12 -16.667 12 -24z" />
    <glyph glyph-name="ccircumflex" unicode="&#x109;" horiz-adv-x="514" 
d="M430.5 511c35 -16.667 52.5029 -38.002 52.5029 -64.002c0 -11.333 -3.66699 -21.5 -11 -30.5s-16.666 -13.5 -27.999 -13.5c-8.66699 0 -15.5 1.33301 -20.5 4s-11.833 7 -20.5 13c-4 4 -10.333 8.66699 -19 14c-8 4 -19.333 7.33301 -34 10s-28 4 -40 4
c-34.667 0 -65.334 -8 -92.001 -24s-47.334 -38.167 -62.001 -66.5s-22 -59.833 -22 -94.5c0 -35.333 7.16699 -67 21.5 -95s34.5 -50 60.5 -66s55.667 -24 89 -24c34.667 0 62.667 5.33301 84 16c4.66699 2.66699 11 7 19 13c6.66699 5.33301 12.5 9.33301 17.5 12
s11.167 4 18.5 4c13.333 0 23.833 -4.16699 31.5 -12.5s11.5 -19.166 11.5 -32.499c0 -14 -8.83301 -27.833 -26.5 -41.5s-41.334 -24.834 -71.001 -33.501s-61.5 -13 -95.5 -13c-50.667 0 -95.334 11.833 -134.001 35.5s-68.5 56.334 -89.5 98.001
s-31.5 88.167 -31.5 139.5s11 97.833 33 139.5s52.667 74.334 92 98.001s84.333 35.5 135 35.5c52.667 0 96.5 -8.33301 131.5 -25zM425.003 622.998c1.33301 -3.33301 2 -7.33301 2 -12c0 -6 -2.33301 -11 -7 -15s-10.667 -6 -18 -6c-8.66699 0 -15 1.16699 -19 3.5
s-10.667 7.5 -20 15.5l-64 54l-65 -54c-2 -2 -5.5 -5 -10.5 -9s-9.66699 -6.83301 -14 -8.5s-9.5 -2.5 -15.5 -2.5c-6.66699 0 -12.334 2.16699 -17.001 6.5s-7 9.16602 -7 14.499s0.666992 9.66602 2 12.999s4 7.33301 8 12l59 70c12 16 28.667 24 50 24h27
c10.667 0 19.334 -1.66699 26.001 -5s13 -9.66602 19 -18.999l56 -69c4 -5.33301 6.66699 -9.66602 8 -12.999z" />
    <glyph glyph-name="Cdotaccent" unicode="&#x10a;" horiz-adv-x="638" 
d="M606 619c0 -12 -4.00488 -22.999 -12.0049 -32.999c-8 -10.667 -19 -16 -33 -16c-9.33301 0 -18.333 2.33301 -27 7c-41.333 23.333 -86 35 -134 35c-50 0 -94.167 -11 -132.5 -33s-68.166 -52.833 -89.499 -92.5s-32 -85.167 -32 -136.5c0 -55.333 11 -103 33 -143
s52.333 -70.5 91 -91.5s82 -31.5 130 -31.5c49.333 0 94 12 134 36c8 4 16.667 6 26 6c14.667 0 26.334 -5.66699 35.001 -17c8 -10 12 -20.667 12 -32c0 -8 -2.16699 -15.5 -6.5 -22.5s-10.166 -12.5 -17.499 -16.5c-26 -14.667 -55.167 -26.334 -87.5 -35.001
s-64.166 -13 -95.499 -13c-64.667 0 -124.167 14.333 -178.5 43s-97.666 70.334 -129.999 125.001s-48.5 118.667 -48.5 192c0 67.333 15.5 128.166 46.5 182.499s73.667 97 128 128s115.166 46.5 182.499 46.5c64.667 0 125.334 -16 182.001 -48c16 -8.66699 24 -22 24 -40
zM327.495 763.501c-8.33301 7 -12.499 18.5 -12.499 34.5v16c0 16 4.5 27.5 13.5 34.5s22.5 10.5 40.5 10.5c19.333 0 33.166 -3.5 41.499 -10.5s12.5 -18.5 12.5 -34.5v-16c0 -16 -4.33301 -27.5 -13 -34.5s-22.667 -10.5 -42 -10.5c-18.667 0 -32.167 3.5 -40.5 10.5z" />
    <glyph glyph-name="cdotaccent" unicode="&#x10b;" horiz-adv-x="514" 
d="M430.5 511c35 -16.667 52.5029 -38.002 52.5029 -64.002c0 -11.333 -3.66699 -21.5 -11 -30.5s-16.666 -13.5 -27.999 -13.5c-8.66699 0 -15.5 1.33301 -20.5 4s-11.833 7 -20.5 13c-4 4 -10.333 8.66699 -19 14c-8 4 -19.333 7.33301 -34 10s-28 4 -40 4
c-34.667 0 -65.334 -8 -92.001 -24s-47.334 -38.167 -62.001 -66.5s-22 -59.833 -22 -94.5c0 -35.333 7.16699 -67 21.5 -95s34.5 -50 60.5 -66s55.667 -24 89 -24c34.667 0 62.667 5.33301 84 16c4.66699 2.66699 11 7 19 13c6.66699 5.33301 12.5 9.33301 17.5 12
s11.167 4 18.5 4c13.333 0 23.833 -4.16699 31.5 -12.5s11.5 -19.166 11.5 -32.499c0 -14 -8.83301 -27.833 -26.5 -41.5s-41.334 -24.834 -71.001 -33.501s-61.5 -13 -95.5 -13c-50.667 0 -95.334 11.833 -134.001 35.5s-68.5 56.334 -89.5 98.001
s-31.5 88.167 -31.5 139.5s11 97.833 33 139.5s52.667 74.334 92 98.001s84.333 35.5 135 35.5c52.667 0 96.5 -8.33301 131.5 -25zM256.503 605.498c-8.33301 7 -12.5 18.167 -12.5 33.5v16c0 16 4.5 27.333 13.5 34s22.833 10 41.5 10s32.167 -3.5 40.5 -10.5
s12.5 -18.167 12.5 -33.5v-16c0 -16 -4.33301 -27.333 -13 -34s-22.334 -10 -41.001 -10c-19.333 0 -33.166 3.5 -41.499 10.5z" />
    <glyph glyph-name="Ccaron" unicode="&#x10c;" horiz-adv-x="638" 
d="M606 619c0 -12 -4.00488 -22.999 -12.0049 -32.999c-8 -10.667 -19 -16 -33 -16c-9.33301 0 -18.333 2.33301 -27 7c-41.333 23.333 -86 35 -134 35c-50 0 -94.167 -11 -132.5 -33s-68.166 -52.833 -89.499 -92.5s-32 -85.167 -32 -136.5c0 -55.333 11 -103 33 -143
s52.333 -70.5 91 -91.5s82 -31.5 130 -31.5c49.333 0 94 12 134 36c8 4 16.667 6 26 6c14.667 0 26.334 -5.66699 35.001 -17c8 -10 12 -20.667 12 -32c0 -8 -2.16699 -15.5 -6.5 -22.5s-10.166 -12.5 -17.499 -16.5c-26 -14.667 -55.167 -26.334 -87.5 -35.001
s-64.166 -13 -95.499 -13c-64.667 0 -124.167 14.333 -178.5 43s-97.666 70.334 -129.999 125.001s-48.5 118.667 -48.5 192c0 67.333 15.5 128.166 46.5 182.499s73.667 97 128 128s115.166 46.5 182.499 46.5c64.667 0 125.334 -16 182.001 -48c16 -8.66699 24 -22 24 -40
zM505.495 884.501c5 -4.33301 7.50293 -9.16797 7.50293 -14.501c0 -4 -0.833008 -7.66699 -2.5 -11s-5.16699 -7.66602 -10.5 -12.999l-68 -76c-7.33301 -8 -14.833 -14 -22.5 -18s-16.834 -6 -27.501 -6h-14c-10.667 0 -19.834 2 -27.501 6s-14.834 10 -21.501 18l-69 76
c-4 4.66699 -7 8.83398 -9 12.501s-3 7.5 -3 11.5c0 5.33301 2.33301 10.166 7 14.499s10.667 6.5 18 6.5c11.333 0 25 -5.66699 41 -17l72 -49l70 49c16 11.333 29.667 17 41 17c7.33301 0 13.5 -2.16699 18.5 -6.5z" />
    <glyph glyph-name="ccaron" unicode="&#x10d;" horiz-adv-x="514" 
d="M430.5 511c35 -16.667 52.5029 -38.002 52.5029 -64.002c0 -11.333 -3.66699 -21.5 -11 -30.5s-16.666 -13.5 -27.999 -13.5c-8.66699 0 -15.5 1.33301 -20.5 4s-11.833 7 -20.5 13c-4 4 -10.333 8.66699 -19 14c-8 4 -19.333 7.33301 -34 10s-28 4 -40 4
c-34.667 0 -65.334 -8 -92.001 -24s-47.334 -38.167 -62.001 -66.5s-22 -59.833 -22 -94.5c0 -35.333 7.16699 -67 21.5 -95s34.5 -50 60.5 -66s55.667 -24 89 -24c34.667 0 62.667 5.33301 84 16c4.66699 2.66699 11 7 19 13c6.66699 5.33301 12.5 9.33301 17.5 12
s11.167 4 18.5 4c13.333 0 23.833 -4.16699 31.5 -12.5s11.5 -19.166 11.5 -32.499c0 -14 -8.83301 -27.833 -26.5 -41.5s-41.334 -24.834 -71.001 -33.501s-61.5 -13 -95.5 -13c-50.667 0 -95.334 11.833 -134.001 35.5s-68.5 56.334 -89.5 98.001
s-31.5 88.167 -31.5 139.5s11 97.833 33 139.5s52.667 74.334 92 98.001s84.333 35.5 135 35.5c52.667 0 96.5 -8.33301 131.5 -25zM420.003 718.498c5.33301 -4.33301 8.00195 -9.16797 8.00195 -14.501c0 -9.33301 -4.33301 -18.666 -13 -27.999l-55 -65
c-12 -16 -28.667 -24 -50 -24h-28c-10.667 0 -19.834 1.83301 -27.501 5.5s-14.834 9.83398 -21.501 18.501l-56 65c-6.66699 8.66699 -10 17 -10 25c0 7.33301 2.83301 13.166 8.5 17.499s13.5 6.5 23.5 6.5s22.333 -6.33301 37 -19l62 -52l60 52
c8 6.66699 15 11.5 21 14.5s13.667 4.5 23 4.5c6.66699 0 12.667 -2.16699 18 -6.5z" />
    <glyph glyph-name="Dcaron" unicode="&#x10e;" horiz-adv-x="717" 
d="M538 653c44.667 -31.333 78.334 -73.498 101.001 -126.498s34 -111.833 34 -176.5c0 -65.333 -11.333 -124.5 -34 -177.5s-56.334 -95 -101.001 -126s-98.334 -46.5 -161.001 -46.5h-246c-13.333 0 -24.666 4.66699 -33.999 14s-14 20.666 -14 33.999v604
c0 13.333 4.66699 24.666 14 33.999s20.666 14 33.999 14h246c62.667 0 116.334 -15.667 161.001 -47zM520 164.502c34 48.333 50.999 110.166 50.999 185.499c0 74.667 -17.167 136.334 -51.5 185.001s-85.166 73 -152.499 73h-185v-516h185c68 0 119 24.167 153 72.5z
M439.499 884.502c5 -4.33301 7.50293 -9.16797 7.50293 -14.501c0 -4 -0.833008 -7.66699 -2.5 -11s-5.16699 -7.66602 -10.5 -12.999l-68 -76c-7.33301 -8 -14.833 -14 -22.5 -18s-16.834 -6 -27.501 -6h-14c-10.667 0 -19.834 2 -27.501 6s-14.834 10 -21.501 18l-69 76
c-4 4.66699 -7 8.83398 -9 12.501s-3 7.5 -3 11.5c0 5.33301 2.33301 10.166 7 14.499s10.667 6.5 18 6.5c11.333 0 25 -5.66699 41 -17l72 -49l70 49c16 11.333 29.667 17 41 17c7.33301 0 13.5 -2.16699 18.5 -6.5z" />
    <glyph glyph-name="dcaron" unicode="&#x10f;" horiz-adv-x="799" 
d="M530.5 726.5c9 -9 13.5 -20.501 13.5 -34.501v-644c0 -13.333 -4.5 -24.666 -13.5 -33.999s-20.5 -14 -34.5 -14s-25.333 4.5 -34 13.5s-13 20.5 -13 34.5v28c-16.667 -24 -40.167 -44.333 -70.5 -61s-62.833 -25 -97.5 -25c-45.333 0 -86.333 11.667 -123 35
s-65.667 55.833 -87 97.5s-32 88.5 -32 140.5s10.5 98.833 31.5 140.5s49.833 74.167 86.5 97.5s77 35 121 35c35.333 0 68 -7.33301 98 -22s54.333 -33.667 73 -57v235c0 14 4.33301 25.5 13 34.5s20 13.5 34 13.5s25.5 -4.5 34.5 -13.5zM375.5 101.999
c24.333 16 43.333 38 57 66s20.5 59.667 20.5 95c0 34.667 -6.83301 66.167 -20.5 94.5s-32.667 50.5 -57 66.5s-52.166 24 -83.499 24s-59.166 -8 -83.499 -24s-43.333 -38.167 -57 -66.5s-20.5 -59.833 -20.5 -94.5c0 -35.333 6.83301 -67 20.5 -95s32.667 -50 57 -66
s52.166 -24 83.499 -24s59.166 8 83.499 24zM766 532.499c-10.667 -21.667 -24.1699 -40.168 -40.5029 -55.501s-33.166 -23 -50.499 -23c-11.333 0 -20.666 2.83301 -27.999 8.5s-11 13.834 -11 24.501c0 9.33301 2.33301 15.833 7 19.5s10.167 6.5 16.5 8.5
s11.166 3.66699 14.499 5c9.33301 4.66699 16.5 10.834 21.5 18.501s7.5 16.167 7.5 25.5c0 7.33301 -3 13.666 -9 18.999s-13.667 8 -23 8c-10.667 0 -19.667 -2.66699 -27 -8c-6.66699 3.33301 -11.667 7.5 -15 12.5s-5 11.833 -5 20.5
c0.666992 16 9.33398 30.167 26.001 42.5s34.334 18.5 53.001 18.5c24.667 0 44 -7.66699 58 -23s21 -36.666 21 -63.999c0 -16.667 -5.33301 -35.834 -16 -57.501z" />
    <glyph glyph-name="Dcroat" unicode="&#x110;" horiz-adv-x="717" 
d="M538 653c44.667 -31.333 78.334 -73.498 101.001 -126.498s34 -111.833 34 -176.5c0 -65.333 -11.333 -124.5 -34 -177.5s-56.334 -95 -101.001 -126s-98.334 -46.5 -161.001 -46.5h-246c-13.333 0 -24.666 4.66699 -33.999 14s-14 20.666 -14 33.999v260h-30
c-14 0 -25.5 4.16699 -34.5 12.5s-13.5 18.833 -13.5 31.5s4.5 23 13.5 31s20.5 12 34.5 12h30v257c0 13.333 4.66699 24.666 14 33.999s20.666 14 33.999 14h246c62.667 0 116.334 -15.667 161.001 -47zM520 164.502c34 48.333 50.999 110.166 50.999 185.499
c0 74.667 -17.167 136.334 -51.5 185.001s-85.166 73 -152.499 73h-185v-213h41c14 0 25.5 -4 34.5 -12s13.5 -18.333 13.5 -31s-4.5 -23.167 -13.5 -31.5s-20.5 -12.5 -34.5 -12.5h-41v-216h185c68 0 119 24.167 153 72.5z" />
    <glyph glyph-name="dcroat" unicode="&#x111;" horiz-adv-x="614" 
d="M599.5 647c9 -8 13.5 -18.334 13.5 -31.001s-4.5 -23.167 -13.5 -31.5s-20.5 -12.5 -34.5 -12.5h-21v-524c0 -13.333 -4.5 -24.666 -13.5 -33.999s-20.5 -14 -34.5 -14s-25.333 4.5 -34 13.5s-13 20.5 -13 34.5v28c-16.667 -24 -40.167 -44.333 -70.5 -61
s-62.833 -25 -97.5 -25c-45.333 0 -86.333 11.667 -123 35s-65.667 55.833 -87 97.5s-32 88.5 -32 140.5s10.5 98.833 31.5 140.5s49.833 74.167 86.5 97.5s77 35 121 35c35.333 0 68 -7.33301 98 -22s54.333 -33.667 73 -57v115h-54c-14 0 -25.5 4.16699 -34.5 12.5
s-13.5 18.833 -13.5 31.5s4.5 23 13.5 31s20.5 12 34.5 12h54v33c0 14 4.33301 25.5 13 34.5s20 13.5 34 13.5s25.5 -4.5 34.5 -13.5s13.5 -20.5 13.5 -34.5v-33h21c14 0 25.5 -4 34.5 -12zM375.5 101.999c24.333 16 43.333 38 57 66s20.5 59.667 20.5 95
c0 34.667 -6.83301 66.167 -20.5 94.5s-32.667 50.5 -57 66.5s-52.166 24 -83.499 24s-59.166 -8 -83.499 -24s-43.333 -38.167 -57 -66.5s-20.5 -59.833 -20.5 -94.5c0 -35.333 6.83301 -67 20.5 -95s32.667 -50 57 -66s52.166 -24 83.499 -24s59.166 8 83.499 24z" />
    <glyph glyph-name="Emacron" unicode="&#x112;" horiz-adv-x="570" 
d="M513.5 78c9 -9.33301 13.5 -20.333 13.5 -33c0 -13.333 -4.5 -24.166 -13.5 -32.499s-20.5 -12.5 -34.5 -12.5h-348c-13.333 0 -24.666 4.66699 -33.999 14s-14 20.666 -14 33.999v604c0 13.333 4.66699 24.666 14 33.999s20.666 14 33.999 14h348
c14 0 25.5 -4.33301 34.5 -13s13.5 -20 13.5 -34c0 -13.333 -4.5 -24.166 -13.5 -32.499s-20.5 -12.5 -34.5 -12.5h-297v-204h252c14 0 25.5 -4.33301 34.5 -13s13.5 -19.667 13.5 -33c0 -14 -4.5 -25 -13.5 -33s-20.5 -12 -34.5 -12h-252v-221h297
c14 0 25.5 -4.66699 34.5 -14zM157.5 774.5c-7 6.33301 -10.5 15.5 -10.5 27.5c0 24 13.667 36 41 36h248c27.333 0 41 -12 41 -36c0 -12 -3.5 -21.167 -10.5 -27.5s-17.167 -9.5 -30.5 -9.5h-248c-13.333 0 -23.5 3.16699 -30.5 9.5z" />
    <glyph glyph-name="emacron" unicode="&#x113;" horiz-adv-x="570" 
d="M516 251.5c-9.33301 -8.33301 -20.334 -12.502 -33.001 -12.502h-352c4.66699 -48.667 23.167 -87.667 55.5 -117s71.833 -44 118.5 -44c32 0 58 4.66699 78 14s37.667 21.333 53 36c10 6 19.667 9 29 9c11.333 0 20.833 -4 28.5 -12s11.5 -17.333 11.5 -28
c0 -14 -6.66699 -26.667 -20 -38c-19.333 -19.333 -45 -35.666 -77 -48.999s-64.667 -20 -98 -20c-54 0 -101.5 11.333 -142.5 34s-72.667 54.334 -95 95.001s-33.5 86.667 -33.5 138c0 56 11.5 105.167 34.5 147.5s53.333 74.833 91 97.5s78.167 34 121.5 34
c42.667 0 82.667 -11 120 -33s67.333 -52.333 90 -91s34.334 -82 35.001 -130c-0.666992 -12 -5.66699 -22.167 -15 -30.5zM188.999 416.498c-27.333 -21 -45.335 -53.5 -54.002 -97.5h295v8c-3.33301 35.333 -19.166 64.333 -47.499 87s-60.5 34 -96.5 34
c-37.333 0 -69.666 -10.5 -96.999 -31.5zM133.997 610.998c-7.33301 6.66699 -11 16 -11 28c0 11.333 3.5 20.166 10.5 26.499s17.167 9.5 30.5 9.5h241c13.333 0 23.5 -3.16699 30.5 -9.5s10.5 -15.166 10.5 -26.499c0 -12 -3.5 -21.333 -10.5 -28s-17.167 -10 -30.5 -10
h-241c-12.667 0 -22.667 3.33301 -30 10z" />
    <glyph glyph-name="Ebreve" unicode="&#x114;" horiz-adv-x="570" 
d="M513.5 78c9 -9.33301 13.5 -20.333 13.5 -33c0 -13.333 -4.5 -24.166 -13.5 -32.499s-20.5 -12.5 -34.5 -12.5h-348c-13.333 0 -24.666 4.66699 -33.999 14s-14 20.666 -14 33.999v604c0 13.333 4.66699 24.666 14 33.999s20.666 14 33.999 14h348
c14 0 25.5 -4.33301 34.5 -13s13.5 -20 13.5 -34c0 -13.333 -4.5 -24.166 -13.5 -32.499s-20.5 -12.5 -34.5 -12.5h-297v-204h252c14 0 25.5 -4.33301 34.5 -13s13.5 -19.667 13.5 -33c0 -14 -4.5 -25 -13.5 -33s-20.5 -12 -34.5 -12h-252v-221h297
c14 0 25.5 -4.66699 34.5 -14zM217.5 790c-26.333 16.667 -44.834 40.3311 -55.501 70.998c-2.66699 6 -4 12 -4 18c0 8.66699 2.5 15.334 7.5 20.001s11.833 7 20.5 7c10.667 0 19 -2.33301 25 -7s13.667 -12.667 23 -24c16.667 -26.667 42.334 -40 77.001 -40
c36 0 61.667 13.333 77 40c6.66699 10.667 13.5 18.334 20.5 23.001s15.833 7 26.5 7c9.33301 0 16.5 -2.16699 21.5 -6.5s7.5 -10.833 7.5 -19.5c0 -5.33301 -1 -11 -3 -17c-10.667 -30.667 -29.167 -54.5 -55.5 -71.5s-57.833 -25.5 -94.5 -25.5
c-36 0 -67.167 8.33301 -93.5 25z" />
    <glyph glyph-name="ebreve" unicode="&#x115;" horiz-adv-x="570" 
d="M516 251.5c-9.33301 -8.33301 -20.334 -12.502 -33.001 -12.502h-352c4.66699 -48.667 23.167 -87.667 55.5 -117s71.833 -44 118.5 -44c32 0 58 4.66699 78 14s37.667 21.333 53 36c10 6 19.667 9 29 9c11.333 0 20.833 -4 28.5 -12s11.5 -17.333 11.5 -28
c0 -14 -6.66699 -26.667 -20 -38c-19.333 -19.333 -45 -35.666 -77 -48.999s-64.667 -20 -98 -20c-54 0 -101.5 11.333 -142.5 34s-72.667 54.334 -95 95.001s-33.5 86.667 -33.5 138c0 56 11.5 105.167 34.5 147.5s53.333 74.833 91 97.5s78.167 34 121.5 34
c42.667 0 82.667 -11 120 -33s67.333 -52.333 90 -91s34.334 -82 35.001 -130c-0.666992 -12 -5.66699 -22.167 -15 -30.5zM188.999 416.498c-27.333 -21 -45.335 -53.5 -54.002 -97.5h295v8c-3.33301 35.333 -19.166 64.333 -47.499 87s-60.5 34 -96.5 34
c-37.333 0 -69.666 -10.5 -96.999 -31.5zM188.997 599.998c-26.667 19.333 -44.333 44.667 -53 76c-2 5.33301 -3 10.333 -3 15c0 8.66699 2.66699 15.5 8 20.5s12.333 7.5 21 7.5c11.333 0 20.333 -2.5 27 -7.5s13.667 -12.833 21 -23.5c6 -15.333 15.333 -27 28 -35
s27.667 -12 45 -12s32.166 4.16699 44.499 12.5s21.833 19.833 28.5 34.5c7.33301 10.667 14.333 18.5 21 23.5s15.334 7.5 26.001 7.5c8.66699 0 15.834 -2.5 21.501 -7.5s8.5 -11.5 8.5 -19.5c0 -4.66699 -1 -9.66699 -3 -15c-8.66699 -32 -26.334 -57.667 -53.001 -77
s-58 -29 -94 -29s-67.333 9.66699 -94 29z" />
    <glyph glyph-name="Edotaccent" unicode="&#x116;" horiz-adv-x="570" 
d="M513.5 78c9 -9.33301 13.5 -20.333 13.5 -33c0 -13.333 -4.5 -24.166 -13.5 -32.499s-20.5 -12.5 -34.5 -12.5h-348c-13.333 0 -24.666 4.66699 -33.999 14s-14 20.666 -14 33.999v604c0 13.333 4.66699 24.666 14 33.999s20.666 14 33.999 14h348
c14 0 25.5 -4.33301 34.5 -13s13.5 -20 13.5 -34c0 -13.333 -4.5 -24.166 -13.5 -32.499s-20.5 -12.5 -34.5 -12.5h-297v-204h252c14 0 25.5 -4.33301 34.5 -13s13.5 -19.667 13.5 -33c0 -14 -4.5 -25 -13.5 -33s-20.5 -12 -34.5 -12h-252v-221h297
c14 0 25.5 -4.66699 34.5 -14zM269.5 763.5c-8.33301 7 -12.499 18.5 -12.499 34.5v16c0 16 4.5 27.5 13.5 34.5s22.5 10.5 40.5 10.5c19.333 0 33.166 -3.5 41.499 -10.5s12.5 -18.5 12.5 -34.5v-16c0 -16 -4.33301 -27.5 -13 -34.5s-22.667 -10.5 -42 -10.5
c-18.667 0 -32.167 3.5 -40.5 10.5z" />
    <glyph glyph-name="edotaccent" unicode="&#x117;" horiz-adv-x="570" 
d="M516 251.5c-9.33301 -8.33301 -20.334 -12.502 -33.001 -12.502h-352c4.66699 -48.667 23.167 -87.667 55.5 -117s71.833 -44 118.5 -44c32 0 58 4.66699 78 14s37.667 21.333 53 36c10 6 19.667 9 29 9c11.333 0 20.833 -4 28.5 -12s11.5 -17.333 11.5 -28
c0 -14 -6.66699 -26.667 -20 -38c-19.333 -19.333 -45 -35.666 -77 -48.999s-64.667 -20 -98 -20c-54 0 -101.5 11.333 -142.5 34s-72.667 54.334 -95 95.001s-33.5 86.667 -33.5 138c0 56 11.5 105.167 34.5 147.5s53.333 74.833 91 97.5s78.167 34 121.5 34
c42.667 0 82.667 -11 120 -33s67.333 -52.333 90 -91s34.334 -82 35.001 -130c-0.666992 -12 -5.66699 -22.167 -15 -30.5zM188.999 416.498c-27.333 -21 -45.335 -53.5 -54.002 -97.5h295v8c-3.33301 35.333 -19.166 64.333 -47.499 87s-60.5 34 -96.5 34
c-37.333 0 -69.666 -10.5 -96.999 -31.5zM244.497 605.498c-8.33301 7 -12.5 18.167 -12.5 33.5v16c0 16 4.5 27.333 13.5 34s22.833 10 41.5 10s32.167 -3.5 40.5 -10.5s12.5 -18.167 12.5 -33.5v-16c0 -16 -4.33301 -27.333 -13 -34s-22.334 -10 -41.001 -10
c-19.333 0 -33.166 3.5 -41.499 10.5z" />
    <glyph glyph-name="Eogonek" unicode="&#x118;" horiz-adv-x="575" 
d="M513.5 79c9 -8.66699 13.498 -19.998 13.498 -33.998c0 -12.667 -4.16699 -22.5 -12.5 -29.5s-20.166 -12.167 -35.499 -15.5c-27.333 -5.33301 -50.166 -15.5 -68.499 -30.5s-27.5 -31.5 -27.5 -49.5c0 -14 3.83301 -25 11.5 -33s16.5 -12 26.5 -12c10.667 0 19 4 25 12
c8 11.333 19.667 17 35 17c10 0 18.167 -3.33301 24.5 -10s9.5 -15.667 9.5 -27c0 -10 -4.83301 -20.333 -14.5 -31s-22.334 -19.334 -38.001 -26.001s-32.167 -10 -49.5 -10c-31.333 0 -57.5 8.83301 -78.5 26.5s-31.5 42.834 -31.5 75.501c0 38 20 70.667 60 98h-232
c-13.333 0 -24.666 4.66699 -33.999 14s-14 20.666 -14 33.999v604c0 13.333 4.66699 24.666 14 33.999s20.666 14 33.999 14h348c14 0 25.5 -4.33301 34.5 -13s13.5 -20 13.5 -34c0 -12 -4.5 -22.333 -13.5 -31s-20.5 -13 -34.5 -13h-297v-205h252
c14 0 25.5 -4.33301 34.5 -13s13.5 -19.667 13.5 -33c0 -12 -4.66699 -22.5 -14 -31.5s-20.666 -13.5 -33.999 -13.5h-252v-221h297c14 0 25.5 -4.33301 34.5 -13z" />
    <glyph glyph-name="eogonek" unicode="&#x119;" horiz-adv-x="570" 
d="M516 251.5c-9.33301 -8.33301 -20.333 -12.502 -33 -12.502h-352c4.66699 -48.667 23.167 -87.667 55.5 -117s71.833 -44 118.5 -44c32 0 58 4.66699 78 14s37.667 21.333 53 36c8.66699 6 18.334 9 29.001 9c12 0 22 -4.66699 30 -14s12 -19 12 -29
c0 -14 -7 -26 -21 -36l-39.5 -34c-21.667 -18.667 -37.667 -36.5 -48 -53.5s-15.5 -34.167 -15.5 -51.5c0 -13.333 3.66699 -24 11 -32s16.666 -12 27.999 -12c10.667 0 19 4 25 12c8 11.333 19.333 17 34 17c10 0 18.333 -3.33301 25 -10s10 -15.667 10 -27
c0 -10 -5 -20.167 -15 -30.5s-22.833 -19 -38.5 -26s-31.834 -10.5 -48.501 -10.5c-31.333 0 -57.666 8.83301 -78.999 26.5s-32 42.834 -32 75.501c0 35.333 13 65.333 39 90c-14.667 -1.33301 -25.334 -2 -32.001 -2c-54 0 -101.5 11.333 -142.5 34
s-72.667 54.334 -95 95.001s-33.5 86.667 -33.5 138c0 56 11.5 105.167 34.5 147.5s53.333 74.833 91 97.5s78.167 34 121.5 34c42.667 0 82.667 -11 120 -33s67.333 -52.333 90 -91s34.334 -82 35.001 -130c-0.666992 -12 -5.66699 -22.167 -15 -30.5zM187.5 416.498
c-27 -21 -44.501 -53.5 -52.501 -97.5h295v8c-3.33301 35.333 -19.166 64.333 -47.499 87s-60.5 34 -96.5 34c-38.667 0 -71.5 -10.5 -98.5 -31.5z" />
    <glyph glyph-name="Ecaron" unicode="&#x11a;" horiz-adv-x="570" 
d="M513.5 78c9 -9.33301 13.5 -20.333 13.5 -33c0 -13.333 -4.5 -24.166 -13.5 -32.499s-20.5 -12.5 -34.5 -12.5h-348c-13.333 0 -24.666 4.66699 -33.999 14s-14 20.666 -14 33.999v604c0 13.333 4.66699 24.666 14 33.999s20.666 14 33.999 14h348
c14 0 25.5 -4.33301 34.5 -13s13.5 -20 13.5 -34c0 -13.333 -4.5 -24.166 -13.5 -32.499s-20.5 -12.5 -34.5 -12.5h-297v-204h252c14 0 25.5 -4.33301 34.5 -13s13.5 -19.667 13.5 -33c0 -14 -4.5 -25 -13.5 -33s-20.5 -12 -34.5 -12h-252v-221h297
c14 0 25.5 -4.66699 34.5 -14zM441.5 884.5c5 -4.33301 7.50293 -9.16797 7.50293 -14.501c0 -4 -0.833008 -7.66699 -2.5 -11s-5.16699 -7.66602 -10.5 -12.999l-68 -76c-7.33301 -8 -14.833 -14 -22.5 -18s-16.834 -6 -27.501 -6h-14c-10.667 0 -19.834 2 -27.501 6
s-14.834 10 -21.501 18l-69 76c-4 4.66699 -7 8.83398 -9 12.501s-3 7.5 -3 11.5c0 5.33301 2.33301 10.166 7 14.499s10.667 6.5 18 6.5c11.333 0 25 -5.66699 41 -17l72 -49l70 49c16 11.333 29.667 17 41 17c7.33301 0 13.5 -2.16699 18.5 -6.5z" />
    <glyph glyph-name="ecaron" unicode="&#x11b;" horiz-adv-x="570" 
d="M516 251.5c-9.33301 -8.33301 -20.334 -12.502 -33.001 -12.502h-352c4.66699 -48.667 23.167 -87.667 55.5 -117s71.833 -44 118.5 -44c32 0 58 4.66699 78 14s37.667 21.333 53 36c10 6 19.667 9 29 9c11.333 0 20.833 -4 28.5 -12s11.5 -17.333 11.5 -28
c0 -14 -6.66699 -26.667 -20 -38c-19.333 -19.333 -45 -35.666 -77 -48.999s-64.667 -20 -98 -20c-54 0 -101.5 11.333 -142.5 34s-72.667 54.334 -95 95.001s-33.5 86.667 -33.5 138c0 56 11.5 105.167 34.5 147.5s53.333 74.833 91 97.5s78.167 34 121.5 34
c42.667 0 82.667 -11 120 -33s67.333 -52.333 90 -91s34.334 -82 35.001 -130c-0.666992 -12 -5.66699 -22.167 -15 -30.5zM188.999 416.498c-27.333 -21 -45.335 -53.5 -54.002 -97.5h295v8c-3.33301 35.333 -19.166 64.333 -47.499 87s-60.5 34 -96.5 34
c-37.333 0 -69.666 -10.5 -96.999 -31.5zM407.997 718.498c5.33301 -4.33301 8.00195 -9.16797 8.00195 -14.501c0 -9.33301 -4.33301 -18.666 -13 -27.999l-55 -65c-12 -16 -28.667 -24 -50 -24h-28c-10.667 0 -19.834 1.83301 -27.501 5.5s-14.834 9.83398 -21.501 18.501
l-56 65c-6.66699 8.66699 -10 17 -10 25c0 7.33301 2.83301 13.166 8.5 17.499s13.5 6.5 23.5 6.5s22.333 -6.33301 37 -19l62 -52l60 52c8 6.66699 15 11.5 21 14.5s13.667 4.5 23 4.5c6.66699 0 12.667 -2.16699 18 -6.5z" />
    <glyph glyph-name="Gcircumflex" unicode="&#x11c;" horiz-adv-x="695" 
d="M630.5 354c9 -9.33301 13.502 -20.665 13.502 -33.998v-225c0 -18 -8 -32 -24 -42c-30.667 -20 -64.334 -35.5 -101.001 -46.5s-74.334 -16.5 -113.001 -16.5c-66.667 0 -127.834 16 -183.501 48s-99.5 75.5 -131.5 130.5s-48 115.5 -48 181.5s16 126.5 48 181.5
s75.833 98.5 131.5 130.5s116.834 48 183.501 48c33.333 0 65.5 -3.66699 96.5 -11s58.833 -18.333 83.5 -33c8 -4.66699 14 -10.334 18 -17.001s6 -14 6 -22c0 -13.333 -4.5 -24.833 -13.5 -34.5s-19.833 -14.5 -32.5 -14.5c-10 0 -18.667 2.33301 -26 7
c-43.333 20 -87.333 30 -132 30c-48 0 -91.833 -11.667 -131.5 -35s-71 -55.333 -94 -96s-34.5 -85.334 -34.5 -134.001s11.5 -93.167 34.5 -133.5s54.333 -72.333 94 -96s83.5 -35.5 131.5 -35.5c22.667 0 46.5 2.66699 71.5 8s46.5 12.333 64.5 21v159h-121
c-13.333 0 -24.666 4.5 -33.999 13.5s-14 20.167 -14 33.5c0 14 4.66699 25.5 14 34.5s20.666 13.5 33.999 13.5h176c13.333 0 24.5 -4.66699 33.5 -14zM521.002 770.001c0 -5.33301 -2.5 -10.1699 -7.5 -14.5029s-10.833 -6.5 -17.5 -6.5
c-4.66699 0 -10.667 1.83301 -18 5.5s-15 7.83398 -23 12.501l-73 47l-70 -47c-8 -5.33301 -15.5 -9.66602 -22.5 -12.999s-13.167 -5 -18.5 -5c-6.66699 0 -12.5 2.16699 -17.5 6.5s-7.5 9.16602 -7.5 14.499c0 4 1 7.83301 3 11.5s5 7.83398 9 12.501l69 76
c7.33301 8.66699 14.666 14.834 21.999 18.501s16.333 5.5 27 5.5h14c10.667 0 19.834 -2 27.501 -6s15.167 -10 22.5 -18l69 -76c8 -8.66699 12 -16.667 12 -24z" />
    <glyph glyph-name="gcircumflex" unicode="&#x11d;" horiz-adv-x="627" 
d="M543.5 517.5c9 -9 13.5 -20.835 13.5 -35.502v-440c0 -54 -11.5 -99.167 -34.5 -135.5s-54.167 -63.166 -93.5 -80.499s-83.666 -26 -132.999 -26c-26.667 0 -57.834 4.66699 -93.501 14s-58.5 19 -68.5 29c-20.667 10.667 -31 24 -31 40c0 4 1.33301 9.33301 4 16
c7.33301 16.667 19.666 25 36.999 25c8.66699 0 18 -2 28 -6c53.333 -20.667 95 -31 125 -31c53.333 0 94.166 12.833 122.499 38.5s42.5 60.834 42.5 105.501v54c-14 -26 -37.5 -48.333 -70.5 -67s-67.833 -28 -104.5 -28c-46 0 -88 11.667 -126 35
s-67.833 55.833 -89.5 97.5s-32.5 88.5 -32.5 140.5s10.833 98.833 32.5 140.5s51.334 74.167 89.001 97.5s79.167 35 124.5 35c36.667 0 70.834 -8.33301 102.501 -25s56.5 -37 74.5 -61v32c0 14 4.33301 25.667 13 35s20 14 34 14s25.5 -4.5 34.5 -13.5zM385 101.498
c25.333 15.667 45.166 37.668 59.499 66.001s21.5 60.166 21.5 95.499s-7.16699 67 -21.5 95s-34.166 50 -59.499 66s-54.333 24 -87 24c-32 0 -60.667 -8 -86 -24s-45.166 -38.167 -59.499 -66.5s-21.5 -59.833 -21.5 -94.5s7.16699 -66.167 21.5 -94.5
s34.166 -50.5 59.499 -66.5s54 -24 86 -24c32.667 0 61.667 7.83301 87 23.5zM442 622.999c1.33301 -3.33301 2 -7.33301 2 -12c0 -6 -2.33301 -11 -7 -15s-10.667 -6 -18 -6c-8.66699 0 -15 1.16699 -19 3.5s-10.667 7.5 -20 15.5l-64 54l-65 -54c-2 -2 -5.5 -5 -10.5 -9
s-9.66699 -6.83301 -14 -8.5s-9.5 -2.5 -15.5 -2.5c-6.66699 0 -12.334 2.16699 -17.001 6.5s-7 9.16602 -7 14.499s0.666992 9.66602 2 12.999s4 7.33301 8 12l59 70c12 16 28.667 24 50 24h27c10.667 0 19.334 -1.66699 26.001 -5s13 -9.66602 19 -18.999l56 -69
c4 -5.33301 6.66699 -9.66602 8 -12.999z" />
    <glyph glyph-name="Gbreve" unicode="&#x11e;" horiz-adv-x="695" 
d="M630.5 354c9 -9.33301 13.502 -20.665 13.502 -33.998v-225c0 -18 -8 -32 -24 -42c-30.667 -20 -64.334 -35.5 -101.001 -46.5s-74.334 -16.5 -113.001 -16.5c-66.667 0 -127.834 16 -183.501 48s-99.5 75.5 -131.5 130.5s-48 115.5 -48 181.5s16 126.5 48 181.5
s75.833 98.5 131.5 130.5s116.834 48 183.501 48c33.333 0 65.5 -3.66699 96.5 -11s58.833 -18.333 83.5 -33c8 -4.66699 14 -10.334 18 -17.001s6 -14 6 -22c0 -13.333 -4.5 -24.833 -13.5 -34.5s-19.833 -14.5 -32.5 -14.5c-10 0 -18.667 2.33301 -26 7
c-43.333 20 -87.333 30 -132 30c-48 0 -91.833 -11.667 -131.5 -35s-71 -55.333 -94 -96s-34.5 -85.334 -34.5 -134.001s11.5 -93.167 34.5 -133.5s54.333 -72.333 94 -96s83.5 -35.5 131.5 -35.5c22.667 0 46.5 2.66699 71.5 8s46.5 12.333 64.5 21v159h-121
c-13.333 0 -24.666 4.5 -33.999 13.5s-14 20.167 -14 33.5c0 14 4.66699 25.5 14 34.5s20.666 13.5 33.999 13.5h176c13.333 0 24.5 -4.66699 33.5 -14zM291.502 790.001c-26.333 16.667 -44.834 40.3311 -55.501 70.998c-2.66699 6 -4 12 -4 18
c0 8.66699 2.5 15.334 7.5 20.001s11.833 7 20.5 7c10.667 0 19 -2.33301 25 -7s13.667 -12.667 23 -24c16.667 -26.667 42.334 -40 77.001 -40c36 0 61.667 13.333 77 40c6.66699 10.667 13.5 18.334 20.5 23.001s15.833 7 26.5 7c9.33301 0 16.5 -2.16699 21.5 -6.5
s7.5 -10.833 7.5 -19.5c0 -5.33301 -1 -11 -3 -17c-10.667 -30.667 -29.167 -54.5 -55.5 -71.5s-57.833 -25.5 -94.5 -25.5c-36 0 -67.167 8.33301 -93.5 25z" />
    </font>
</defs>
</svg>
